<?xml version="1.0" encoding="UTF-8"?>
<svg width="100px" height="50px" viewBox="0 0 100 50" version="1.1" xmlns="http://www.w3.org/2000/svg" xmlns:xlink="http://www.w3.org/1999/xlink">
    <!-- Generator: Sketch 57.1 (83088) - https://sketch.com -->
    <title>partners logos</title>
    <desc>Created with Sketch.</desc>
    <defs>
        <polygon id="path-1" points="0.376237624 0.297453465 0.634035644 0.297453465 0.634035644 1.97058218 0.376237624 1.97058218"></polygon>
        <polygon id="path-3" points="0.376237624 0.0893564356 0.581595065 0.0893564356 0.581595065 1.62666337 0.376237624 1.62666337"></polygon>
        <polygon id="path-5" points="0.376237624 0.333873267 0.599609901 0.333873267 0.599609901 0.710110891 0.376237624 0.710110891"></polygon>
        <polygon id="path-7" points="0.249859406 0.297980198 12.2446911 0.297980198 12.2446911 4.80485123 0.249859406 4.80485123"></polygon>
        <polygon id="path-9" points="0.376237624 37.7019822 62.0521188 37.7019822 62.0521188 0.3762 0.376237624 0.3762"></polygon>
    </defs>
    <g id="partners-logos" stroke="none" stroke-width="1" fill="none" fill-rule="evenodd">
        <g id="LogsticInWallonia" transform="translate(19.000000, 6.000000)">
            <path d="M27.5660277,20.4032535 L27.5618891,20.393095 L27.5686614,20.3889564 C27.6446614,20.3460653 27.716899,20.3144614 27.7966614,20.2903822 C27.7150178,20.3186 27.6442851,20.3535901 27.5660277,20.4032535" id="Fill-1" fill="#FEFEFE"></path>
            <path d="M15.2729149,36.6206 C15.2759248,36.6187188 15.2793109,36.619095 15.282697,36.6183426" id="Fill-3" fill="#FEFEFE"></path>
            <path d="M7.51997426,33.6918911 C7.3574396,33.5613366 7.19866733,33.4266436 7.04215248,33.2893168 C7.07074653,33.3145248 7.09821188,33.3416139 7.12718218,33.3668218 L7.34690495,33.5609604 C7.37963762,33.5865446 7.41387525,33.6136337 7.44886535,33.6407228 L7.3013802,33.5150594 C7.37324158,33.5752574 7.44698416,33.633198 7.51997426,33.6918911" id="Fill-5" fill="#FEFEFE"></path>
            <path d="M8.02405743,34.0804317 C7.86942376,33.9634218 7.73661188,33.8622139 7.61696832,33.7704119 C7.58423564,33.7444515 7.55225545,33.7181149 7.51989901,33.6917782 C7.54661188,33.7132238 7.57294851,33.735798 7.60003762,33.7572436 C7.54698812,33.7166099 7.49657228,33.6778574 7.4487901,33.6406099 L7.49356238,33.6789861 L7.64970099,33.7967485 C7.64857228,33.795996 7.64744356,33.7952436 7.64631485,33.7941149 C7.77047327,33.8919366 7.89651287,33.9871248 8.02405743,34.0804317" id="Fill-7" fill="#FEFEFE"></path>
            <path d="M5.27266931,31.4157287 C5.37086733,31.5406396 5.4705703,31.6636693 5.57253069,31.7848178 C5.4705703,31.6636693 5.37049109,31.5406396 5.27266931,31.4157287" id="Fill-9" fill="#FEFEFE"></path>
            <path d="M7.34306733,33.5579505 C6.80730495,33.0974356 6.11615644,32.4721287 5.61387921,31.9826436 C6.54318614,32.8799703 6.81332475,33.140703 7.34306733,33.5579505" id="Fill-11" fill="#FEFEFE"></path>
            <path d="M3.33395446,29.102996 C3.3234198,29.0856891 3.31514257,29.0717683 3.30611287,29.0567188 L3.14470693,28.8091545 C3.20114257,28.8971941 3.27714257,29.0149564 3.33395446,29.102996" id="Fill-13" fill="#FEFEFE"></path>
            <path d="M7.36180396,33.5741287 L7.34675446,33.5609604 C7.34562574,33.5598317 7.34449703,33.5590792 7.34299208,33.5579505 C7.34901188,33.5632178 7.35578416,33.5688614 7.36180396,33.5741287" id="Fill-15" fill="#FEFEFE"></path>
            <path d="M5.57264356,31.7848178 C5.6110198,31.8303426 5.6490198,31.8766198 5.68777228,31.9213921 C5.6490198,31.8766198 5.6110198,31.8303426 5.57264356,31.7848178" id="Fill-17" fill="#FEFEFE"></path>
            <path d="M3.40762178,29.2201941 C3.40837426,29.2213228 3.40912673,29.2224515 3.40987921,29.2235802 C3.49114653,29.3511248 3.58069109,29.4824317 3.63411683,29.5606891 L3.28421584,29.0320752 L3.40762178,29.2201941 Z" id="Fill-19" fill="#FEFEFE"></path>
            <path d="M6.6894297,32.967897 C6.80531089,33.0770059 6.92269703,33.1842337 7.04196436,33.289204 C6.92269703,33.1842337 6.80531089,33.0770059 6.6894297,32.967897" id="Fill-21" fill="#FEFEFE"></path>
            <path d="M6.10836832,32.3895822 C5.96464554,32.2372059 5.82506139,32.0803149 5.68773465,31.9215426 C5.82506139,32.0803149 5.96464554,32.2372059 6.10836832,32.3895822" id="Fill-23" fill="#FEFEFE"></path>
            <path d="M6.15114653,32.433301 C6.1368495,32.4186277 6.12217624,32.4043307 6.10825545,32.3896574 C6.12217624,32.4043307 6.1368495,32.4186277 6.15114653,32.433301" id="Fill-25" fill="#FEFEFE"></path>
            <path d="M6.15114653,32.433301 C6.28245347,32.5713802 6.41639406,32.705697 6.55296832,32.8381327 C6.41639406,32.705697 6.28207723,32.5713802 6.15114653,32.433301" id="Fill-27" fill="#FEFEFE"></path>
            <path d="M4.61534455,30.8488139 L4.6168495,30.8503188 C4.62211683,30.8529525 4.62888911,30.8567149 4.6337802,30.8593485 C4.61985941,30.8198436 4.61421584,30.8036653 4.47199802,30.5839426 C4.69021584,30.807804 4.97502772,31.111804 5.2007703,31.3273881 C5.22409703,31.3574871 5.24930495,31.385705 5.27263168,31.415804 C5.21205743,31.3386752 5.15073069,31.2626752 5.09166139,31.1844178 C4.88360198,30.9710911 4.59954257,30.6934277 4.39938416,30.4729525 C4.09199802,30.0094277 3.39558218,28.9954673 3.20294851,28.8227743 C3.1927901,28.8551307 3.19166139,28.8656653 3.30641386,29.0567941 L3.65744356,29.5944376 C4.04346337,30.1128931 4.29704752,30.4533881 4.50435446,30.7201406 C4.44340396,30.647903 4.38471089,30.5767941 4.3297802,30.5090713 C4.44340396,30.6535465 4.51037426,30.7336851 4.55213663,30.7810911 C4.88811683,31.210002 5.10934455,31.4511703 5.61387921,31.9827941 C5.30987921,31.6453089 4.9287505,31.2201604 4.59991881,30.8337644 C4.60631485,30.8401604 4.61158218,30.8450515 4.61534455,30.8488139" id="Fill-29" fill="#FEFEFE"></path>
            <path d="M6.55293069,32.8380198 C6.59807921,32.8816634 6.64360396,32.9245545 6.68950495,32.9678218 C6.64360396,32.9245545 6.59807921,32.8816634 6.55293069,32.8380198" id="Fill-31" fill="#FEFEFE"></path>
            <path d="M8.02921188,34.0843069 L7.64958812,33.7968614 C7.77713267,33.8965644 7.90618218,33.9947624 8.03711287,34.0903267 C8.03861782,34.0914554 8.04012277,34.0925842 8.04200396,34.0937129 C8.03598416,34.0895743 8.02996436,34.0846832 8.02394455,34.0805446 C8.02582574,34.0816733 8.02733069,34.0831782 8.02921188,34.0843069" id="Fill-33" fill="#FEFEFE"></path>
            <path d="M32.0186119,5.81208119 L32.0167307,5.80982376 C31.9185327,5.70598218 31.7251465,5.5152297 31.4647901,5.27932871 C31.6491465,5.45728911 31.8526911,5.65406139 32.059998,5.85873465 C32.0513446,5.8482 32.0400574,5.83540792 32.0186119,5.81208119" id="Fill-35" fill="#FEFEFE"></path>
            <path d="M31.3925149,5.21431485 C31.4173465,5.23651287 31.4410495,5.25795842 31.4647525,5.27940396 C31.4500792,5.26510693 31.433901,5.24968119 31.4192277,5.23538416 L31.3925149,5.21431485 Z" id="Fill-37" fill="#FEFEFE"></path>
            <path d="M34.4027921,8.66565545 C34.1401782,8.29543762 33.8026931,7.85298218 33.4821386,7.44363564 C33.7895248,7.84056634 34.1093267,8.27098218 34.3824752,8.64872475 C34.3892475,8.65436832 34.396396,8.66001188 34.4027921,8.66565545" id="Fill-39" fill="#FEFEFE"></path>
            <path d="M0.622786139,16.0860396 L0.645736634,15.9261386 C0.645360396,15.9268911 0.644984158,15.9344158 0.644231683,15.9445743 C0.65589505,15.8700792 0.669815842,15.7888119 0.686370297,15.6943762 C0.694647525,15.6488515 0.70330099,15.6033267 0.711954455,15.557802 C0.613756436,16.0186931 0.575380198,16.3170495 0.502390099,16.9303168 L0.6194,16.1101188 C0.620152475,16.1022178 0.621657426,16.0939406 0.622786139,16.0860396" id="Fill-41" fill="#FEFEFE"></path>
            <path d="M35.9299406,12.641697 L34.5337228,9.38272673 C34.6104752,9.45872673 34.6104752,9.45872673 34.6913663,9.51403366 C34.701901,9.49522178 34.716198,9.47001386 34.7271089,9.45157822 C34.7237228,9.43953861 34.7192079,9.4233604 34.7158218,9.41132079 L34.7135644,9.40454851 C34.6522376,9.25179604 34.5796238,9.09114257 34.3053465,8.67201386 C34.3685545,8.71264752 34.4558416,8.76532079 34.5062574,8.82100396 C34.4667525,8.76532079 34.4246139,8.70700396 34.3824752,8.64868713 C34.3275446,8.60278614 34.2583168,8.55124158 34.2003762,8.51813267 C33.8561188,8.02714257 33.6205941,7.77995446 33.5197624,7.67423168 C32.588198,6.46500396 32.5701386,6.44167723 31.9572475,5.81260792 C32.0204554,5.86264752 32.0528119,5.88747921 32.0874257,5.90704356 C32.0851683,5.90177624 32.0832871,5.8983901 32.0814059,5.89425149 C31.806,5.61734059 31.5305941,5.34757822 31.2867921,5.11732079 L31.258198,5.09512277 C31.1396832,4.9924099 30.7766139,4.70534059 30.3266337,4.36785545 C30.2848713,4.34151881 30.2709505,4.33587525 30.2152673,4.31179604 C30.2739604,4.39193465 30.2739604,4.39193465 30.3868317,4.49615248 L30.3898416,4.49878614 C30.460198,4.56048911 30.5313069,4.62181584 30.6031683,4.6823901 L30.6167129,4.69405347 C30.6987327,4.76365743 30.7811287,4.83250891 30.8631485,4.9013604 C30.5038416,4.79789505 30.5038416,4.79789505 30.187802,4.71512277 C29.6452673,4.30013267 29.038396,3.95662772 28.805505,3.93254851 C28.8043762,3.95587525 28.7991089,3.99124158 28.8126535,4.01005347 C29.1313267,4.36371683 30.1968317,5.10076634 30.3525941,5.19971683 C30.6460594,5.38520198 31.4135842,6.38223168 31.7879406,6.96351881 C31.5670891,6.81490495 31.4884554,6.80813267 31.4188515,6.80248911 C31.091901,7.31003366 32.977604,8.78262772 33.0110891,8.77510297 C33.1461584,8.74349901 33.113802,8.46019208 32.7240198,7.91163762 L30.5629109,5.32876634 C30.7194257,5.41530099 30.7532871,5.42433069 30.8277822,5.44464752 C30.8405743,5.43147921 30.8571287,5.41454851 30.8699208,5.4013802 C30.8665347,5.3923505 30.8616436,5.38068713 30.8582574,5.37165743 L30.8567525,5.36789505 C30.7709703,5.23282574 30.6618614,5.10678614 30.3296436,4.82799406 C30.7856436,4.95177624 30.8334257,4.96494455 31.0012277,5.01686535 C31.8782376,5.75165743 32.4576436,6.23700396 33.4343564,7.59033069 C33.3527129,7.51658812 33.3527129,7.51658812 33.2597822,7.45789505 C33.2477426,7.47557822 33.2319406,7.49928119 33.219901,7.51658812 C33.3737822,7.92480594 34.1638812,8.96397426 34.3866139,9.2194396 C34.6018218,9.46587525 35.0924356,10.7014396 35.3283366,11.5024495 C35.1259208,11.2797168 35.0070297,11.2616574 34.9754257,11.447895 C34.8719604,12.0543901 35.7583762,13.9107465 36.0413069,13.6793604 C36.1534257,13.5879347 36.1052673,13.1417168 35.9299406,12.641697" id="Fill-43" fill="#FEFEFE"></path>
            <path d="M33.0550713,6.9046 L33.0550713,6.9046 C33.0554475,6.90535248 33.0562,6.90610495 33.0569525,6.90685743 C33.0562,6.90610495 33.0554475,6.90535248 33.0550713,6.9046" id="Fill-45" fill="#FEFEFE"></path>
            <path d="M33.0569149,6.90700792 C33.188598,7.07142376 33.3338257,7.25427525 33.4820634,7.44389901 C33.3349545,7.25352277 33.1904792,7.07104752 33.0569149,6.90700792" id="Fill-47" fill="#FEFEFE"></path>
            <path d="M32.0599228,5.85873465 C32.0693287,5.87077426 32.0757248,5.88093267 32.0817446,5.89447723 C32.4256257,6.2402396 32.7702594,6.59728911 33.0550713,6.90467525 C32.7755267,6.57847723 32.4139624,6.20863564 32.0599228,5.85873465" id="Fill-49" fill="#FEFEFE"></path>
            <g id="Group-53" transform="translate(0.000000, 16.632675)">
                <mask id="mask-2" fill="white">
                    <use xlink:href="#path-1"></use>
                </mask>
                <g id="Clip-52"></g>
                <path d="M0.389481188,1.97058218 C0.407540594,1.57101782 0.444411881,1.0777703 0.502352475,0.297453465 C0.421461386,1.04202772 0.391738614,1.37123564 0.389481188,1.97058218" id="Fill-51" fill="#FEFEFE" mask="url(#mask-2)"></path>
            </g>
            <path d="M0.712067327,15.5578772 C0.773770297,15.2681743 0.859176238,14.9141347 0.991611881,14.3776198 C0.864443564,14.7764317 0.784681188,15.1703525 0.712067327,15.5578772" id="Fill-54" fill="#FEFEFE"></path>
            <path d="M1.03777624,14.1484535 C1.02347921,14.2007505 1.0054198,14.2707307 0.99149901,14.3230277 C1.02272673,14.2112851 1.04793465,14.1236218 1.07389505,14.0446119 C1.09007327,13.979899 1.10625149,13.913305 1.12355842,13.843701 L1.03777624,14.1484535 Z" id="Fill-56" fill="#FEFEFE"></path>
            <g id="Group-60" transform="translate(0.000000, 18.513863)">
                <mask id="mask-4" fill="white">
                    <use xlink:href="#path-3"></use>
                </mask>
                <g id="Clip-59"></g>
                <path d="M0.410776238,1.62666337 C0.396855446,0.914069307 0.38820198,0.452049505 0.389330693,0.0893564356 C0.365627723,0.617594059 0.374657426,0.982168317 0.410776238,1.62666337" id="Fill-58" fill="#FEFEFE" mask="url(#mask-4)"></path>
            </g>
            <g id="Group-63" transform="translate(0.000000, 19.642576)">
                <mask id="mask-6" fill="white">
                    <use xlink:href="#path-5"></use>
                </mask>
                <g id="Clip-62"></g>
                <path d="M0.411679208,0.546071287 C0.411679208,0.537794059 0.412055446,0.528011881 0.412055446,0.519358416 C0.411679208,0.512209901 0.41130297,0.505061386 0.410926733,0.497912871 C0.41130297,0.514091089 0.411679208,0.529516832 0.411679208,0.546071287" id="Fill-61" fill="#FEFEFE" mask="url(#mask-6)"></path>
            </g>
            <path d="M1.12355842,13.8438891 C1.35569703,13.1508594 1.5024297,12.7121663 1.61981584,12.3825822 C1.40122178,12.9157109 1.31656832,13.1899881 1.12355842,13.8438891" id="Fill-64" fill="#FEFEFE"></path>
            <path d="M0.622786139,16.0860396 L0.6194,16.1101188 C0.588924752,16.3354851 0.580647525,16.5209703 0.583657426,16.8607129 C0.612251485,16.3941782 0.638211881,16.0265941 0.644231683,15.9445743 C0.635954455,15.9942376 0.629182178,16.0412673 0.622786139,16.0860396" id="Fill-66" fill="#FEFEFE"></path>
            <path d="M1.61996634,12.3826574 C1.75353069,12.0572119 1.93713465,11.6354495 2.22570891,10.9713901 C1.93186733,11.5869149 1.81711485,11.8307168 1.61996634,12.3826574" id="Fill-68" fill="#FEFEFE"></path>
            <path d="M2.4942297,11.9977663 C2.51266535,11.9213901 2.55630891,11.742301 2.56458614,11.5748752 L2.2982099,12.6204396 C2.38211089,12.394697 2.44268515,12.2024396 2.4942297,11.9977663" id="Fill-70" fill="#FEFEFE"></path>
            <path d="M15.4279624,37.510101 L15.4283386,37.510101 L15.4279624,37.510101 Z" id="Fill-72" fill="#FEFEFE"></path>
            <path d="M6.79560396,32.912402 C6.37910891,32.3469168 5.56493069,31.4620059 5.38584158,31.4800653 C5.2729703,31.6523822 6.58491089,33.0038277 6.59845545,33.016996 C6.65451485,33.0689168 6.71057426,33.1200851 6.76776238,33.1708772 C6.6349505,33.0324218 6.45285149,32.850699 6.3369703,32.6975703 C6.48821782,32.8424218 6.84940594,33.1795307 6.94007921,33.1772733 L6.94045545,33.176897 C6.94760396,33.1539465 6.95211881,33.1400257 6.85467327,32.9955505 C7.24144554,33.2957881 7.76065347,33.6904614 8.15758416,33.9771545 L8.14742574,33.9335109 C7.7369505,33.6336495 7.19516832,33.2265604 6.79560396,32.912402" id="Fill-74" fill="#FEFEFE"></path>
            <path d="M5.74477228,30.0270733 C5.41782178,30.4029347 6.57362376,31.9835089 7.10374257,31.8853109 C7.2230099,31.8631129 7.23693069,31.7509941 7.24558416,31.6836475 C7.67825743,32.0102218 8.25766337,32.4421426 8.69861386,32.7574297 L8.69861386,32.7570535 L8.75316832,32.7047564 C8.29679208,32.3751723 7.6910495,31.9312119 7.24370297,31.5892119 C7.15566337,30.8299644 6.04952475,29.676796 5.74477228,30.0270733" id="Fill-76" fill="#FEFEFE"></path>
            <path d="M4.83194455,10.9102139 L4.72208317,11.0874218" id="Fill-78" fill="#FEFEFE"></path>
            <path d="M30.2051842,33.5970792 C30.3620752,33.4932376 30.453501,33.4266436 30.5957188,33.3115149 C30.8060356,33.4947426 30.8143129,33.5018911 30.8237188,33.5763861 C30.0847881,34.1843861 30.0847881,34.1843861 29.2269663,34.7558911 L29.1581149,34.8081881 L29.9489663,34.2848416 L29.8285703,34.3796535 C30.1694416,34.1215545 30.6367287,33.793099 30.9636792,33.5173168 L31.7522733,32.8310594 L31.7556594,32.8280495 L31.7883921,32.7949406 C31.7473822,32.8216535 31.7473822,32.8216535 31.6721347,32.8799703 L31.6653624,32.8856139 C31.5321743,32.9917129 31.4238178,33.0808812 30.9681941,33.4571188 C30.893699,33.3088812 30.8921941,33.3058713 30.7383129,33.1903663 C30.8203327,33.117 30.8730059,33.0673366 30.9467485,32.9939703 C31.1277188,32.814505 31.2270455,32.5725842 31.4072634,32.3923663 C32.0457386,31.7550198 32.7718772,31.2124851 33.3911644,30.5540693 C33.3682139,30.6409802 33.3682139,30.6409802 33.387402,30.7169802 C33.7184911,30.7316535 34.9803921,28.899 34.8554812,28.5855941 C34.5608871,28.5539901 33.6631842,29.9043069 33.4577584,30.3836337 C33.3516594,30.6315743 32.0577782,31.8031782 31.4249465,32.3186238 C31.4516594,32.1519505 31.4516594,32.1519505 31.0987485,32.2245644 L31.0942337,32.2260693 L31.0878376,32.228703 L31.0671446,32.2354752 L31.0411842,32.2497723 L31.0321545,32.2535347 L31.0186099,32.2618119 C30.7853426,32.3818317 30.5046693,32.5944059 30.5039168,32.5955347 C30.4064713,33.085396 30.3248277,33.3389802 30.2439366,33.4860891 C30.231897,33.5248416 30.2194812,33.5620891 30.2051842,33.5970792" id="Fill-80" fill="#FEFEFE"></path>
            <path d="M30.4983861,32.7169465 C30.3546634,32.9524713 30.3238119,33.3238178 30.2380297,33.607501 C30.3189208,33.4607683 30.4005644,33.2071842 30.4983861,32.7169465" id="Fill-82" fill="#FEFEFE"></path>
            <path d="M28.0076554,8.99723366 C27.3812198,8.37681782 26.9203287,8.71693663 26.941398,9.42351089 C26.955695,9.9035901 27.1870812,10.2685406 27.2630812,10.3885604 C26.5395762,11.4905604 26.5260317,11.5116297 25.9737149,12.1572535 C25.6324673,11.7501644 25.337497,11.7475307 25.1222891,11.7452733 L25.1113782,11.7467782 C24.7317545,11.8028376 24.5515366,12.0473921 24.425497,12.2791545 C23.3182297,11.5725802 23.1237149,11.4480455 22.6605663,11.1244812 C22.7666653,10.8964812 22.8054178,10.6214515 22.7561307,10.3366396 C22.6470218,9.71246139 22.1451208,9.2316297 21.6089822,9.20679802 C21.0532792,9.18083762 20.5863683,9.64812475 20.5841109,10.3140653 C20.5837347,10.5115901 20.6239921,10.7023426 20.6947248,10.8765406 C20.275596,11.1707584 19.7232792,11.5590356 19.3007644,11.8412139 L18.5445267,12.3284416 C18.2958337,11.8652931 17.957596,11.7930554 17.7781307,11.790798 L17.7638337,11.7900455 C17.4214574,11.8047188 17.1859327,11.8720653 16.8503287,12.1967584 C15.7900911,11.2004812 15.748705,11.1613525 15.2287446,10.5996297 C16.0064277,9.69440198 15.656903,8.74590693 14.8393386,8.86667921 C14.8295564,8.86818416 13.7877545,9.03899604 13.5676554,10.1891545 C12.9491208,10.5319069 12.6582891,10.6756297 12.333596,10.8392931 L12.3200515,11.0168772 C12.7933584,10.7952733 13.1560515,10.6248376 13.566903,10.4295703 C13.6135564,10.7279267 13.7365861,10.8517089 13.9269624,10.956303 C14.1647446,11.0864812 14.5601703,11.152699 15.094804,10.7279267 C16.0538337,11.7208178 16.0910812,11.7595703 16.7306851,12.340105 C16.3649822,12.8698475 16.4135168,13.3160653 16.5184871,13.5967386 C16.8488238,14.3307782 17.6750416,14.4372535 18.2864277,13.8247386 L18.4034376,13.6757485 L18.405695,13.6704812 C18.6547644,13.2712931 18.7119525,12.9281644 18.6043485,12.4857089 C18.833101,12.3378475 19.1378535,12.1403228 19.3666059,11.9924614 C19.7876158,11.7042634 20.3485861,11.3208772 20.7635762,11.0213921 C20.9836752,11.4288574 21.3824871,11.7102832 21.8294574,11.6952337 C22.154903,11.6843228 22.4171406,11.5176495 22.5823089,11.2670752 C23.5597743,11.934897 23.6564673,11.9977287 24.3626653,12.436798 C24.2140515,12.9345604 24.3216554,13.2837089 24.4469426,13.5591149 L24.5398733,13.7171347 C25.1873782,14.5843624 26.2099921,14.192699 26.3104475,13.2878475 C26.3642495,12.802501 26.1637149,12.4522238 26.0775564,12.3024812 C26.9425267,11.2211743 27.0128832,11.1327584 27.3695564,10.5262634 C27.9489624,11.174897 28.5543287,10.9329762 28.5659921,10.2854713 C28.5735168,9.86897624 28.3545465,9.36331287 28.0076554,8.99723366" id="Fill-84" fill="#FEFEFE"></path>
            <path d="M22.3598772,1.44787525 C22.4614614,1.51108317 22.5295604,1.59987525 24.8449267,2.63829109 C25.103402,2.21314257 26.1331644,2.83656832 26.1433228,2.84334059 C26.6576396,2.6394198 26.7114416,2.6183505 26.8946693,2.54009307 C26.2471644,2.14805347 26.1707881,2.04007327 26.1098376,1.95353861 C26.2249663,1.95015248 26.3686891,1.94601386 27.1215406,2.32262772 L27.2791842,2.4054 C27.8348871,2.7033802 28.0346693,2.88698416 28.1005109,2.94718218 L28.1479168,3.00060792 C28.1234614,3.02694455 28.1603327,3.11009307 28.0662733,3.08714257 C28.0154812,3.07510297 27.9481347,3.05779604 27.8992238,3.04011287 L27.8909465,3.03747921 C27.6377386,2.94003366 27.4469861,2.85387525 27.0455406,2.62813267 C26.6459762,2.79292475 26.6459762,2.79292475 26.2806495,2.93589505 C26.2806495,2.93589505 26.933798,3.34524158 26.8641941,3.65676634 C26.7945901,3.96829109 26.737402,3.85278614 26.3359564,3.79070693 L26.3250455,3.78882574 L26.2678574,3.77603366 L26.2663525,3.77565743 L26.2625901,3.77490495 C25.8483525,3.62365743 25.6933426,3.56722178 25.4559366,3.3964099 L25.4284713,3.3813604 C24.7617782,3.6443505 24.4856198,3.75308317 23.9743129,3.96114257 C24.2666495,4.24294455 24.3144317,4.39720198 24.3163129,4.65793465 L24.2512238,4.82498416 C24.0646099,5.08345941 23.7282535,5.08985545 23.4912238,5.07217228 L23.4833228,5.07104356 C23.0220554,5.0213802 22.6969861,4.79450891 22.5438574,4.66395446 L22.4302337,4.55597426 C22.2007287,4.29298416 22.1683723,4.15001386 22.1792832,3.90997426 C21.9685901,3.78732079 21.6871644,3.62403366 21.4764713,3.5013802 L21.5321545,3.41898416 L22.2409861,3.75421188 C22.5299366,3.4163505 22.9769069,3.48783564 23.217699,3.56082574 L23.2233426,3.56195446 C23.369699,3.6063505 23.399798,3.61575644 23.5525505,3.68460792 L23.5713624,3.6943901 C23.689501,3.75609307 23.7214812,3.77302376 23.8490257,3.86068713 C24.769303,3.48971683 24.769303,3.48971683 25.2960356,3.28278614 L25.1906891,3.19399406 L25.1741347,3.17555842 L25.1662337,3.1684099 C24.929204,2.94793465 24.8848079,2.81926139 24.8456792,2.70563762 C23.3787287,2.07130099 23.3787287,2.07130099 22.5758376,1.77745941 C22.527303,1.82787525 22.4234614,1.90048911 22.3327881,1.91177624 L22.3598772,1.44787525 Z M22.4926891,0.914370297 C22.0099762,0.767261386 21.9689663,0.720607921 22.0020752,0.679221782 C22.0351842,0.637835644 22.8241545,0.812409901 22.9212238,0.839122772 L22.9261149,0.840251485 C23.0175406,0.859063366 23.1804515,0.910607921 23.3305703,0.958013861 L23.3561545,0.967043564 C23.4844515,1.01031089 23.5615802,1.03928119 23.6620356,1.08217228 C23.9551248,1.21310297 23.9272832,1.25561782 23.8843921,1.26916238 C23.7083129,1.32484554 22.8245307,1.0464297 22.5581545,0.93769703 C22.5363327,0.92979604 22.5141347,0.922647525 22.4926891,0.914370297 L22.4926891,0.914370297 Z" id="Fill-86" fill="#FEFEFE"></path>
            <g id="Group-90" transform="translate(10.158416, 0.078220)">
                <mask id="mask-8" fill="white">
                    <use xlink:href="#path-7"></use>
                </mask>
                <g id="Clip-89"></g>
                <path d="M0.249859406,2.68558416 L0.257760396,2.65247525 L0.974116832,2.28827723 C1.17540396,2.10617822 1.79168119,1.70962376 1.79657228,1.70661386 C2.55544356,1.40788119 2.71346337,1.34580198 3.52764158,1.0869505 C3.74623564,1.02411881 4.03744356,0.941346535 4.25716634,0.883029703 L4.27033465,0.888673267 C4.32112673,0.873623762 4.37229505,0.858574257 4.42346337,0.845029703 C4.65673069,0.78370297 4.70564158,0.771287129 5.77227525,0.560217822 L6.09207723,0.50829703 C6.21473069,0.490990099 6.37801782,0.466910891 6.50067129,0.451108911 L6.50029505,0.451108911 C7.03793861,0.44019802 7.10716634,0.438693069 7.54661188,0.483089109 C7.6007901,0.452613861 7.69146337,0.40219802 8.03308713,0.408217822 L8.03609703,0.408217822 C8.11623564,0.411227723 8.13768119,0.411980198 8.23098812,0.41950495 L8.24265149,0.420633663 C8.31300792,0.428158416 8.33934455,0.431168317 8.42174059,0.444712871 C8.8517802,0.342376238 8.8517802,0.342376238 9.01055248,0.317168317 C8.81829505,0.302871287 8.76110693,0.301366337 8.65726535,0.298732673 C8.65839406,0.298356436 8.66027525,0.298356436 8.6617802,0.297980198 C8.92100792,0.298356436 9.26639406,0.300990099 9.52562178,0.307009901 L9.5798,0.309267327 C9.58958218,0.310019802 11.3093644,0.521089109 11.8729683,0.638475248 L12.0230871,0.710336634 C11.9914832,0.695663366 11.9497208,0.676851485 11.9181168,0.662554455 C10.6370277,0.419128713 10.6125723,0.414613861 9.94888911,0.34990099 C9.86799802,0.377742574 9.86799802,0.377742574 9.74195842,0.373227723 L9.73518614,0.373227723 C8.9977604,0.33560396 8.9977604,0.33560396 8.51015644,0.462772277 C8.77653267,0.531623762 8.79346337,0.577148515 8.82469109,0.659168317 C9.88568119,0.892059406 9.94926535,0.905980198 10.6313842,1.10049505 C10.8289089,0.819069307 11.8225525,1.09259406 12.2446911,1.39960396 C12.2307703,1.5290297 12.2367901,1.70774257 12.195404,1.83114851 C12.1002158,1.84318812 12.1002158,1.84318812 11.9038198,1.83641584 L11.8936614,1.83528713 C11.6506119,1.80180198 11.4372851,1.76267327 11.0937802,1.59374257 C10.3311465,1.87855446 10.2141366,1.92257426 9.69906733,2.1249901 C9.74572079,2.17164356 9.79688911,2.21378218 9.83902772,2.26457426 L9.84692871,2.28188119 C9.91502772,2.39437624 9.97372079,2.49144554 9.89847327,2.69009901 C10.3420574,2.88273267 10.933503,3.14007921 11.373701,3.3409901 L11.3180178,3.4230099 C10.8770673,3.22435644 10.2893842,2.95910891 9.84504752,2.7679802 C9.77243366,2.83984158 9.77243366,2.83984158 9.71787921,2.87332673 C9.50906733,2.97867327 9.50906733,2.97867327 9.11100792,3.01479208 L9.09972079,3.01441584 L9.08467129,3.01441584 L9.05156238,3.01516832 C8.61663168,2.97679208 8.3788495,2.80033663 8.33595842,2.76534653 L8.31526535,2.75481188 C7.1767703,3.24392079 7.0838396,3.28380198 6.38968119,3.60172277 C6.80241386,4.22176238 5.9438396,4.90388119 5.15374059,4.79289109 C4.41857228,4.68942574 4.27673069,4.0050495 4.8967703,3.55130693 C5.20791881,3.32368317 5.84187921,3.12728713 6.31330495,3.51819802 C7.55827525,2.95948515 7.55827525,2.95948515 8.23023564,2.67617822 C8.21330495,2.65322772 8.19035446,2.62275248 8.17041386,2.60205941 L8.16439406,2.58550495 C8.05302772,2.41920792 8.10494851,2.26645545 8.12714653,2.20136634 C7.23508713,1.80744554 7.23508713,1.80744554 6.50029505,1.55536634 C6.26514653,1.72730693 6.01871089,1.7709505 5.85316634,1.77772277 L5.84338416,1.77772277 C5.57550297,1.78035644 5.50589901,1.75891089 5.34562178,1.67312871 C4.39261188,2.01362376 4.39261188,2.01362376 3.58031485,2.38045545 C3.64502772,2.71718812 3.18413663,3.0930495 3.0287505,3.16641584 C2.54265149,3.39554455 2.3157802,3.47116832 2.02344356,3.29320792 C1.92185941,3.22021782 1.8187703,3.0339802 2.2747703,2.60657426 C1.84247327,2.30934653 1.80710693,2.28526733 1.70100792,2.15245545 C1.4248495,2.31348515 1.23597822,2.39851485 1.04861188,2.4470495 L1.04296832,2.44817822 C0.99819604,2.45457426 0.936493069,2.45081188 0.892849505,2.43877228 C0.896235644,2.41883168 0.900374257,2.39174257 0.903760396,2.37180198 C0.707740594,2.46586139 0.445879208,2.59152475 0.249859406,2.68558416 M1.68633465,1.83265347 C2.26160198,1.54972277 2.35189901,1.58170297 2.38199802,1.59223762 C2.36017624,1.71639604 1.97566139,1.97750495 1.81124554,2.08435644 C2.0847703,2.34207921 2.0847703,2.34207921 2.37785941,2.52568317 C2.46815644,2.46247525 2.49223564,2.44742574 2.57688911,2.39926733 C2.77817624,2.29956436 3.31356238,2.03506931 3.55209703,2.32138614 C4.6717802,1.83039604 4.6717802,1.83039604 5.26736436,1.59148515 C5.07397822,1.21712871 5.93593861,0.880019802 6.40661188,1.04330693 C6.4348297,1.05308911 6.47094851,1.07039604 6.49728515,1.08356436 C7.30694851,0.803267327 7.30694851,0.803267327 7.70199802,0.680613861 C7.51613663,0.594455446 7.5247901,0.535762376 7.52968119,0.504158416 C6.74447327,0.439821782 6.74447327,0.439821782 6.13271089,0.519960396 L6.12932475,0.520712871 C6.07552277,0.527108911 6.07552277,0.527108911 5.84940396,0.547425743 C5.16013663,0.686633663 5.16013663,0.686633663 4.55928515,0.977465347 C4.4968297,1.00681188 4.47500792,1.01584158 4.41706733,1.03954455 C4.12999802,1.13849505 3.93322574,1.19906931 3.82073069,1.14112871 L3.80793861,1.11140594 C3.83201782,1.08318812 3.88845347,1.01621782 4.19019604,0.914257426 L4.17665149,0.90409901 C3.9817604,0.95790099 3.7217802,1.02976238 3.52764158,1.0869505 C2.84251287,1.30667327 2.65815644,1.36611881 1.89364158,1.66673267 C1.82892871,1.71376238 1.73336436,1.76831683 1.68633465,1.83265347 M8.19261188,2.07946535 C8.23023564,2.04108911 8.2528099,2.01813861 8.32467129,1.97336634 C8.44356238,1.91956436 8.44356238,1.91956436 8.6298,1.86689109 C8.74455248,1.85447525 8.77916634,1.85033663 8.88752277,1.85372277 L8.91762178,1.85221782 C8.9657802,1.85823762 9.01393861,1.86275248 9.06247327,1.86839604 L9.07714653,1.87065347 C9.1967901,1.89473267 9.34540396,1.92483168 9.57791881,2.04259406 L9.5918396,2.05237624 L9.59785941,2.05538614 C10.5091069,1.70473267 10.5091069,1.70473267 10.9827901,1.53166337 C10.6554634,1.33037624 10.6336416,1.19718812 10.6253644,1.14714851 C9.41463168,0.815683168 9.41463168,0.815683168 8.80964158,0.691148515 C8.74342376,0.761881188 8.60421584,0.797247525 8.37132475,0.803267327 L8.36718614,0.803643564 C8.2847901,0.802891089 8.03459208,0.801386139 7.77423564,0.708831683 C7.09061188,0.931188119 7.01912673,0.954514851 6.55409703,1.12194059 C6.7147505,1.26566337 6.64326535,1.39772277 6.56312673,1.49667327 C7.47023564,1.81007921 7.58686931,1.85033663 8.19261188,2.07946535" id="Fill-88" fill="#FEFEFE" mask="url(#mask-8)"></path>
            </g>
            <path d="M13.4731069,36.8641762 C13.3726515,36.8310673 13.2379584,36.7859188 13.0268891,36.7151861 C13.2183941,36.7817802 13.2917604,36.8073644 13.4731069,36.8641762" id="Fill-91" fill="#FEFEFE"></path>
            <path d="M13.9105208,36.9995842 C13.7058475,36.9367525 13.5734119,36.8957426 13.4729564,36.8641386 C13.6520455,36.9232079 13.720897,36.9435248 13.9105208,36.9995842" id="Fill-93" fill="#FEFEFE"></path>
            <path d="M14.4825901,37.158695 L14.4874812,37.1590713 C14.303501,37.1101604 14.0826495,37.0484574 13.9103327,36.9995465 C14.0815208,37.0492099 14.3106495,37.1116653 14.4825901,37.158695" id="Fill-95" fill="#FEFEFE"></path>
            <path d="M13.0268515,36.7150356 C12.9632673,36.6917089 12.8906535,36.6653723 12.8165347,36.6386594 C12.8902772,36.6657485 12.9625149,36.6920851 13.0268515,36.7150356" id="Fill-97" fill="#FEFEFE"></path>
            <path d="M12.4961307,36.5201069 C12.5913188,36.556602 12.705695,36.5983644 12.8166851,36.6386218 C12.7068238,36.5979881 12.5950812,36.5562257 12.4923683,36.5178495 C12.493497,36.518602 12.495002,36.5193545 12.4961307,36.5201069" id="Fill-99" fill="#FEFEFE"></path>
            <path d="M10.0428733,35.3643802 C10.0421208,35.364004 10.0406158,35.3632515 10.0398634,35.362499 C10.0398634,35.3628752 10.0402396,35.3628752 10.0406158,35.3628752 L10.0428733,35.3643802 Z" id="Fill-101" fill="#FEFEFE"></path>
            <path d="M31.9248911,29.5211089 C31.478297,29.9108911 30.4338614,30.6535842 29.9127723,31.060297 C29.7746931,30.8172475 29.5971089,30.8018218 29.2754257,30.8593861 L29.2618812,30.862396 C29.0282376,30.9357624 28.7870693,31.0110099 28.371703,31.381604 C27.489802,31.0377228 27.489802,31.0377228 26.4897624,30.5839802 L26.4946535,30.5794653 C26.8754059,30.0873465 26.8016634,29.8017822 26.7365743,29.5493267 C28.1982574,28.5210693 28.3645545,28.4036832 29.0726337,27.8190099 C29.1328317,27.9409109 29.1550297,27.93 29.381901,28.1986337 C29.5538416,28.2979604 29.7047129,28.3370891 30.0911089,28.2328713 L30.0971287,28.2306139 C30.3522178,28.0929109 30.5053465,27.9612277 30.7036238,27.7095248 C31.6946337,28.2178218 31.821802,28.2829109 32.260495,28.5150495 C32.0238416,28.9251485 31.9297822,29.2069505 31.9248911,29.5211089 L31.9248911,29.5211089 Z M30.3958614,32.7217624 C30.0309109,33.0840792 29.9014851,33.3034257 29.8292475,33.454297 C28.3856238,34.3708119 28.3581584,34.388495 27.504099,34.8388515 C27.5067327,34.701901 27.3848317,34.6680396 27.0966337,34.7263564 L27.0902376,34.7278614 C26.8381584,34.7835446 26.5337822,34.9171089 26.1857624,35.1255446 C25.5311089,34.8452475 25.5311089,34.8452475 24.9543366,34.6044554 C25.125901,34.4742772 25.4445743,34.2319802 25.4039406,33.8681584 C26.9664554,33.0415644 27.0274059,33.0095842 27.8479802,32.5027921 C27.953703,32.762396 28.2381386,32.8071683 28.6930099,32.6359802 L28.7103168,32.6288317 C28.8303366,32.5754059 28.9018218,32.5392871 29.0353861,32.453505 L29.0455446,32.4467327 C29.146,32.3805149 29.2186139,32.3278416 29.3378812,32.2251287 L29.3525545,32.2115842 C30.0674059,32.551703 30.110297,32.5716436 30.3958614,32.7217624 L30.3958614,32.7217624 Z M27.0601386,35.832495 C26.8242376,36.0375446 26.5266337,36.1323564 26.2606337,36.2832277 C24.815505,36.8329109 24.7880396,36.8434455 23.963703,37.0778416 C23.9768713,37.0703168 23.9941782,37.0605347 24.0073465,37.0530099 C23.9426337,37.0274257 23.9426337,37.0274257 23.810198,37.0511287 L23.8053069,37.0522574 C23.612297,37.089505 23.4072475,37.1406733 22.9922574,37.254297 C22.7446931,37.1527129 22.7446931,37.1527129 22.4832079,37.0552673 C23.1423762,36.815604 23.1920396,36.6158218 23.0682574,36.5462178 C22.9621584,36.4867723 22.5987129,36.4521584 21.910198,36.7023564 L21.8921386,36.708 C21.531703,36.8551089 21.3409505,36.9548119 21.2299604,37.1241188 C19.913505,37.4055446 19.913505,37.4055446 19.2385347,37.4999802 C19.1994059,37.4604752 19.1501188,37.4115644 18.841604,37.4010297 L18.8363366,37.4010297 C18.5646931,37.3968911 18.3558812,37.4326337 18.1873267,37.468 C17.5740594,37.2659604 17.5240198,37.2497822 17.1056436,37.094396 C17.3178416,36.9743762 17.288495,36.8603762 17.2320594,36.7648119 C18.2441386,36.4969307 18.3498614,36.4687129 19.0240792,36.2632871 C19.4748119,36.7742178 20.8751683,36.326495 20.9011287,35.818198 C20.9026337,35.7850891 20.8924752,35.7410693 20.8838218,35.7090891 C22.266495,35.2026733 22.4440792,35.1372079 23.2131089,34.8147723 C23.3500594,35.0145545 23.5543564,35.0747525 23.9411287,35.0292277 L23.9482772,35.028099 L23.9746139,35.0213267 C24.1424158,34.9923564 24.4753861,34.9129703 24.8234059,34.7034059 C25.588297,35.0228317 25.726,35.080396 26.0431683,35.2173465 C25.8065149,35.3810099 25.5126733,35.6176634 25.4551089,35.8159406 C25.4502178,36.0849505 26.0488119,35.908495 26.6425149,35.5950891 C26.7704356,35.6613069 26.9393663,35.7542376 27.0601386,35.832495 L27.0601386,35.832495 Z M16.5905743,36.5003168 L16.5841782,36.4995644 C16.3381188,36.4837624 16.1454851,36.5198812 15.9953663,36.609802 C15.0762178,36.2128713 15.0013465,36.1805149 14.4279604,35.9103762 C14.5453465,35.6902772 14.365505,35.4773267 14.2883762,35.385901 C14.7993069,35.1725743 15.3106139,34.9603762 15.822297,34.7485545 C15.9912277,34.9118416 16.2229901,35.080396 16.6590495,35.0916832 C16.7230099,35.088297 16.7873465,35.0864158 16.8513069,35.0811485 L16.8674851,35.0796436 C16.9600396,35.0653465 17.1959406,35.0179406 17.3848119,34.8888911 C18.5394851,35.4250297 18.5613069,35.4351881 19.1851089,35.7045743 C18.9322772,35.9182772 18.9446931,36.0804356 18.984198,36.1970693 C17.7870099,36.5548713 17.7870099,36.5548713 17.1842772,36.7117624 C17.0033069,36.5556238 16.7587525,36.5161188 16.5905743,36.5003168 L16.5905743,36.5003168 Z M13.475703,34.9716634 L13.4700594,34.9712871 C13.0975842,34.9257624 12.9937426,35.0709901 12.9549901,35.1259208 C11.8398218,34.527703 11.7487723,34.4787921 11.0884752,34.092396 C11.1046535,33.7838812 10.8461782,33.4832673 10.7487327,33.3700198 C11.4869109,32.8933267 11.4869109,32.8933267 12.0185347,32.5915842 C12.2288515,32.8199604 12.5885347,33.0878416 13.1058614,33.0682772 L13.1224158,33.0667723 C13.2221188,33.053604 13.2796832,33.0408119 13.3786337,32.9960396 L13.3865347,32.9934059 C13.4647921,32.9520198 13.5080594,32.923802 13.5735248,32.8575842 L13.580297,32.8485545 C14.9430297,33.6100594 14.9430297,33.6100594 15.6981386,34.0017228 C15.5675842,34.2169307 15.5803762,34.4125743 15.7402772,34.656 C14.9535644,34.9859604 14.5581386,35.151505 14.204099,35.3038812 C13.923802,35.066099 13.6540396,35.0002574 13.475703,34.9716634 L13.475703,34.9716634 Z M11.8394455,31.5027525 C11.6603564,31.4098218 11.4218218,31.2856634 11.2427327,31.1927327 C10.7464752,30.8612673 10.0861782,30.4169307 9.59669307,30.0753069 L9.59744554,30.0711683 C9.67984158,29.7295446 9.6260396,29.4556436 9.39954455,29.0605941 C10.456396,28.3814851 10.456396,28.3814851 11.2081188,27.9281188 C11.3243762,28.0831287 11.3503366,28.1072079 11.4485347,28.1963762 C11.6611089,28.3592871 11.6866931,28.3728317 11.900396,28.4706535 C12.060297,28.5199406 12.060297,28.5199406 12.2600792,28.5477822 L12.2679802,28.5481584 C12.3255446,28.5436436 12.402297,28.5376238 12.4598614,28.5338614 L12.4662574,28.5338614 C12.7710099,28.4356634 12.7710099,28.4356634 13.0298614,28.227604 L13.0370099,28.2215842 C13.5234851,28.5376238 14.172495,28.9590099 14.6642376,29.2667723 L15.4678812,29.7558812 C15.3252871,30.0324158 15.2718614,30.2991683 15.4720198,30.7021188 C14.7951683,31.0565347 14.1179406,31.4094455 13.4429703,31.7668713 C13.0829109,31.3940198 12.7898218,31.334198 12.5313465,31.281901 L12.5181782,31.2811485 C12.1833267,31.2679802 12.0309505,31.3176436 11.8394455,31.5027525 L11.8394455,31.5027525 Z M15.4471881,25.6439802 C15.9046931,26.2956238 16.5025347,26.2847129 16.818198,26.22 L16.8242178,26.2181188 C16.9965347,26.1710891 17.0322772,26.1613069 17.2008317,26.0721386 L17.2211485,26.0593465 C17.3464356,25.9735644 17.380297,25.9506139 17.503703,25.8230693 C17.9657228,26.1048713 18.5797426,26.4818614 20.0372871,27.3675248 C20.0256238,27.3897228 20.0139604,27.4119208 20.0019208,27.429604 L19.9951485,27.4619604 L19.9902574,27.4721188 C19.8770099,27.7268317 19.8770099,27.7268317 20.0064356,28.348 C18.4371485,29.2479604 18.4371485,29.2479604 17.5112277,29.7502376 C17.1383762,29.328099 16.7230099,29.261505 16.5081782,29.2596238 L16.4931287,29.2577426 C16.1548911,29.2701584 15.8715842,29.3055248 15.5600594,29.6287129 C15.3388317,29.4940198 15.0434851,29.3145545 14.8218812,29.1798614 C14.3120792,28.8559208 13.6318416,28.4236238 13.1276832,28.0910297 C13.1626733,28.0018614 13.1999208,27.9138218 13.2322772,27.8235248 L13.2322772,27.7877822 C13.2601188,27.565802 13.2800594,27.4055248 13.1201584,27.0108515 L13.0979604,26.9732277 C13.572396,26.6835248 14.3440594,26.3159406 15.4471881,25.6439802 L15.4471881,25.6439802 Z M23.1724752,34.733505 C21.6479604,35.3490297 21.6479604,35.3490297 20.8428119,35.636099 C20.6768911,35.4306733 20.3657426,35.401703 20.1460198,35.3983168 L20.138495,35.3975644 C19.6700792,35.4077228 19.4003168,35.5649901 19.2851881,35.6323366 C18.2215644,35.1620396 18.1346535,35.1236634 17.4743564,34.8102574 C17.6703762,34.5901584 17.6884356,34.3749505 17.5326733,34.1127129 C18.802099,33.5630297 18.9650099,33.492297 19.7114653,33.1491683 C20.3638614,33.8455842 21.2457624,33.3737822 21.500099,33.2123762 L21.5083762,33.204099 L21.5125149,33.2022178 C22.7379208,33.7515248 22.7379208,33.7515248 23.4809901,34.0634257 C23.1092673,34.3990297 23.1551683,34.6420792 23.1724752,34.733505 L23.1724752,34.733505 Z M20.0959802,28.4981188 C21.0452277,29.5158416 22.0309703,28.6704356 22.1404554,28.5707327 L22.1457228,28.5643366 C23.6811485,29.3442772 23.710495,29.3589505 24.5566535,29.7577624 C24.2831287,30.1569505 24.2458812,30.5091089 24.4426535,30.833802 C24.8538812,31.3609109 25.695901,31.312 26.3607129,30.7228119 C26.9751089,31.000099 27.5898812,31.2770099 28.2042772,31.554297 C27.8649109,31.9561188 27.8235248,32.2078218 27.8276634,32.4012079 C26.2523564,33.3327723 26.2523564,33.3327723 25.368198,33.7808713 C25.0773663,33.3011683 24.0671683,33.6427921 23.6074059,33.9603366 C22.4429505,33.4618218 22.3477624,33.4211881 21.6351683,33.0942376 C21.6848317,33.0295248 21.7465347,32.9742178 21.7841584,32.900099 L21.7992079,32.8812871 C21.8733267,32.703703 21.8793465,32.6894059 21.8947723,32.5513267 C21.8970297,31.5625743 20.4184158,31.5546733 19.8352475,32.1686931 C19.7806931,32.2258812 19.7355446,32.2909703 19.6843762,32.3507921 C19.5030297,32.672099 19.5970891,32.9110099 19.6373465,33.0129703 L19.6426139,33.0381782 C18.2332277,33.6774059 18.2332277,33.6774059 17.4427525,34.0175248 C16.6387327,33.2691881 15.7797822,33.9054059 15.771505,33.9125545 C14.476495,33.2247921 14.3989901,33.1834059 13.6495248,32.7548713 C13.7827129,32.4753267 13.7518614,32.225505 13.5426733,31.8936634 C14.2165149,31.5418812 14.8911089,31.191604 15.5653267,30.8405743 C16.3057624,31.7409109 17.6786535,31.3255446 17.7362178,30.422198 C17.7520198,30.1791485 17.6583366,29.9910297 17.6079208,29.8898218 C19.0887921,29.0786535 19.2434257,28.994 20.0959802,28.4981188 L20.0959802,28.4981188 Z M1.96659406,21.319505 C1.9259604,21.3748119 1.89736634,21.4414059 1.86275248,21.5527723 C1.63926733,21.134396 1.3450495,20.573802 1.1550495,20.1392475 L0.953762376,19.5895644 C1.00794059,19.1779604 0.842772277,18.757703 1.00267327,18.3498614 C1.00455446,18.3449703 1.24308911,17.8133465 1.88306931,17.0672673 C1.94025743,17.389703 2.0809703,17.6169505 2.28188119,17.6579604 C2.33756436,17.6692475 2.39437624,17.6639802 2.45118812,17.6466733 C2.45720792,17.6466733 2.46322772,17.6466733 2.46661386,17.646297 C2.4669901,17.6451683 2.46736634,17.6436634 2.46774257,17.6421584 C2.56217822,17.609802 2.65661386,17.5413267 2.74540594,17.4438812 L3.37748515,18.680198 C3.22435644,19.0372475 3.17130693,19.5587129 3.31916832,20.1110297 C2.96926733,20.5689109 2.90681188,20.6599604 2.57007921,21.303703 C2.49708911,21.1027921 2.39776238,20.9786337 2.28451485,20.9756238 C2.16487129,20.9718614 2.05312871,21.1035446 1.96659406,21.319505 L1.96659406,21.319505 Z M2.0230297,14.2225347 L1.93687129,13.4666733 C2.1569703,13.0291089 2.17465347,12.9929901 2.40867327,12.0072475 L3.82031683,11.1065347 C3.74469307,11.4763762 3.82821782,11.7461386 4.10287129,11.757802 C4.24471287,11.7638218 4.43019802,11.6483168 4.61568317,11.4650891 C4.7729505,11.9316238 5.12811881,12.9538614 5.31435644,13.3906733 C5.0479802,13.7458416 4.9249505,14.0720396 4.88920792,14.5167525 C4.15178218,14.9885545 3.59607921,15.366297 3.23037624,15.6274059 C3.19388119,15.3839802 3.11261386,15.1894653 2.99447525,15.0799802 C2.91922772,15.0054851 2.86128713,14.9930693 2.83532673,14.9919406 C2.83118812,14.9911881 2.82780198,14.9893069 2.8240396,14.9885545 C2.64645545,14.9524356 2.45532673,15.0686931 2.28978218,15.2861584 C2.20136634,14.9588317 2.08322772,14.5449703 2.0230297,14.2225347 L2.0230297,14.2225347 Z M2.63479208,10.1512673 C3.31164356,8.97627723 3.31164356,8.97627723 3.94334653,8.36188119 L4.31356436,8.04132673 C4.18112871,8.26706931 4.13560396,8.37655446 4.12469307,8.49130693 C4.12883168,8.51877228 4.12431683,8.56241584 4.1450099,8.58047525 L4.14839604,8.58122772 C4.29813861,8.55338614 4.38693069,8.49619802 4.57693069,8.33855446 C4.49340594,9.07861386 4.45540594,9.41647525 4.47459406,9.87623762 C4.18677228,10.2080792 3.9839802,10.5749109 3.87788119,10.8965941 L2.45683168,11.8029505 C2.46172277,11.7822574 2.46623762,11.7638218 2.47150495,11.742 C2.47037624,11.6099406 2.47037624,11.6099406 2.42409901,11.5275446 C2.32740594,11.5316832 2.27849505,11.5331881 2.08360396,11.8424554 C2.35487129,10.7596436 2.35976238,10.7389505 2.63479208,10.1512673 L2.63479208,10.1512673 Z M1.9030099,25.3851287 L1.89962376,25.3745941 C1.82588119,25.0589307 1.58885149,24.7940594 1.61142574,24.4479208 C1.61481188,24.3963762 1.65281188,23.954297 1.9669703,23.3041584 C2.03431683,23.4441188 2.11784158,23.5265149 2.21039604,23.5295248 C2.45720792,23.5366733 2.67354455,22.9704356 2.69423762,22.2653663 C2.70326733,21.9579802 2.67316832,21.6754257 2.61635644,21.4534455 C2.75782178,21.1705149 2.89740594,20.9684752 3.37485149,20.2773267 C3.5400198,20.6648515 3.68411881,20.7698218 3.89330693,20.8270099 L3.90083168,20.8281386 C4.17247525,20.8326535 4.31243564,20.6411485 4.43885149,20.3518218 C4.4719604,20.247604 4.4580396,20.3130693 4.49340594,20.1934257 C4.60364356,19.7475842 4.6040198,19.3796238 4.49415842,18.9228713 L4.49190099,18.917604 C4.47271287,18.8352079 4.47271287,18.8352079 4.43734653,18.7486733 C4.38279208,18.62 4.29174257,18.4047921 4.11265347,18.2847723 C3.87336634,18.124495 3.62956436,18.2403762 3.45912871,18.5187921 L2.84548515,17.3185941 C2.99861386,17.1030099 3.12653465,16.8005149 3.19689109,16.454 C3.24279208,16.2278812 3.2589703,16.0096634 3.24881188,15.8132673 C3.87825743,15.3580198 4.31845545,15.0513861 4.89071287,14.698099 C4.97574257,15.3527525 5.3139802,15.4678812 5.5829901,15.4486931 L5.58788119,15.4490693 C5.76734653,15.405802 5.76734653,15.405802 5.87607921,15.3467327 L5.89263366,15.3369505 C6.04576238,15.2338669 6.04576238,15.2338669 6.14584158,15.1375446 C6.17180198,15.084495 6.2090495,15.0679406 6.26473267,15.0013465 C6.66053465,14.4791287 6.6819802,13.9817426 6.69025743,13.7947525 C6.69025743,13.7947525 6.68762376,13.6190495 6.68160396,13.6224356 C6.61990099,13.0859208 6.32455446,12.9877228 6.22710891,12.9553663 L6.22146535,12.9531089 C5.96073267,12.8966733 5.7030099,12.9963762 5.43437624,13.2571089 C5.25491089,12.8195446 4.89936634,11.8345545 4.73758416,11.3352871 C4.9689703,11.0689109 5.18417822,10.7118614 5.29366337,10.3668515 L5.36251485,10.1189109 L7.53980198,9.35213861 C7.52550495,9.58164356 7.60037624,9.84350495 8.0149901,9.842 L8.03116832,9.84087129 C8.25089109,9.81114851 8.39875248,9.74869307 8.63992079,9.58465347 C9.1230099,10.6275842 9.14182178,10.6682178 9.5289703,11.2878812 C9.09328713,11.7416238 9.05039604,12.175802 9.03421782,12.3394653 L9.03722772,12.5076436 C9.15461386,13.415505 10.1422376,13.3665941 10.7227723,12.6483564 C10.9665743,12.3469901 11.0986337,11.9959604 11.1155644,11.6054257 C11.6144554,11.3623762 11.9989703,11.1746337 12.3285545,11.013604 L12.3334455,10.8394059 C12.0377228,10.9947921 11.7201782,11.1486733 11.103901,11.4470297 C11.0395644,11.1430297 10.9285743,10.9372277 10.5737822,10.8510693 L10.5621188,10.8503168 C10.266396,10.831505 10.0357624,10.8751485 9.6670495,11.1592079 C9.05340594,10.1004752 9.02932673,10.0590891 8.78552475,9.47140594 C9.56960396,8.76671287 9.7919604,7.82875248 9.18885149,7.77043564 C8.67980198,7.72152475 7.95855446,8.31146535 7.70083168,8.83330693 L7.56350495,9.18922772 L5.38847525,9.95524752 C5.40992079,9.73590099 5.3640198,9.64146535 5.31661386,9.57223762 C5.26394059,9.48043564 5.08823762,9.31526733 4.59386139,9.75508911 C4.61605941,8.74037624 4.61643564,8.72118812 4.75376238,8.16924752 C5.05174257,7.86374257 5.36364356,7.45514851 5.50134653,7.26138614 C6.57324752,6.64887129 6.57324752,6.64887129 7.27079208,6.31477228 C7.11164356,6.57475248 7.10374257,6.73766337 7.24784158,6.79823762 L7.25047525,6.80011881 C7.44950495,6.8430099 7.72077228,6.69326733 7.96081188,6.54126733 L8.1090495,6.4370495 C8.37805941,6.23388119 9.3359604,5.40766337 9.11322772,5.0769505 C8.968,5.05023762 8.8630297,5.0310495 8.42885149,5.26657426 L8.27835644,5.35724752 C8.03417822,5.51075248 7.676,5.77938614 7.35582178,6.19023762 C6.22033663,6.75459406 6.15223762,6.78845545 5.59126733,7.12594059 C5.82716832,6.7549703 5.86667327,6.57663366 5.7090297,6.59544554 L5.70263366,6.59657426 C5.66839604,6.60936634 5.66425743,6.61087129 5.59352475,6.65 C5.49005941,6.70756436 5.41932673,6.76136634 5.32451485,6.84037624 C5.84974257,5.98067327 5.85990099,5.96449505 6.25645545,5.50736634 C6.39453465,5.3899802 6.71772277,5.11457426 7.12744554,4.75940594 L7.2549901,4.64841584 C7.5710297,4.37112871 7.75425743,4.20671287 7.69443564,4.23756436 C7.40887129,4.39069307 6.95287129,4.77784158 6.20566337,5.45469307 L6.20114851,5.45845545 C5.90053465,5.74439604 5.81249505,5.84522772 5.80760396,5.85952475 L5.80722772,5.8610297 C5.8200198,5.86366337 5.82453465,5.86441584 5.92950495,5.78013861 C5.94342574,5.76922772 5.95809901,5.75605941 5.97239604,5.74439604 C5.96976238,5.7470297 5.96712871,5.74928713 5.96449505,5.75192079 C6.0100198,5.71467327 6.07059406,5.66425743 6.11574257,5.62625743 C5.52768317,6.38512871 5.46635644,6.46451485 5.20712871,6.94572277 C5.15671287,6.99463366 5.10817822,7.04580198 5.0570099,7.09433663 L5.04346535,7.10825743 C4.69243564,7.46756436 4.40386139,7.88443564 4.02912871,8.22229703 C3.81015842,8.44691089 3.51782178,8.74790099 3.32029703,8.99207921 C3.51556436,8.66964356 3.59118812,8.54811881 3.65853465,8.44126733 C3.64649505,8.45819802 3.63069307,8.48114851 3.61865347,8.49807921 C2.6250099,10.0891881 2.58625743,10.1512673 2.1219802,11.1445347 L2.37744554,10.6132871 C2.394,10.5813069 2.43764356,10.4974059 2.55954455,10.2829505 C2.1400396,11.3209901 2.12386139,11.3616238 2.00647525,11.9771485 C1.97712871,12.0332079 1.94966337,12.0885149 1.9229505,12.1434455 L1.82550495,12.205901 L1.8650099,12.2687327 C1.6840396,12.6701782 1.58508911,13.0174455 1.54370297,13.1653069 C1.19568317,13.8049109 1.10538614,13.9715842 1.02374257,14.2375842 C0.996277228,14.3564752 0.971069307,14.4674653 0.947366337,14.5716832 C1.06851485,14.166099 1.23819802,13.7548713 1.50118812,13.336495 C1.42029703,13.7168713 1.4180396,13.9091287 1.4940396,13.9794851 L1.4970495,13.9817426 C1.59675248,13.9700792 1.65168317,13.9636832 1.85974257,13.6107723 C1.8969901,13.9155248 1.93461386,14.324495 1.99405941,14.6258614 L2.20550495,15.4110693 C2.07720792,15.6187525 1.97073267,15.8881386 1.9090297,16.1925149 C1.86651485,16.4009505 1.85033663,16.6026139 1.8559802,16.7869703 C1.6400198,17.2832277 1.23932673,17.6809109 0.991009901,18.1594851 C0.943980198,17.5992673 0.877009901,17.5123564 0.81229703,17.4280792 C0.794237624,17.4303366 0.769782178,17.4329703 0.751722772,17.4348515 L0.750217822,17.4363564 C0.709207921,17.4920396 0.709207921,17.4920396 0.674594059,17.5657822 L0.670455446,17.5789505 C0.656910891,17.6210891 0.628693069,17.7091287 0.610633663,17.8092079 C0.597465347,17.487901 0.588059406,17.2512475 0.582792079,17.0616238 C0.549683168,17.8163564 0.514316832,18.8246733 0.535762376,19.2829307 C0.499643564,19.6057426 0.462772277,20.0354059 0.468792079,20.3653663 C0.474811881,20.4443762 0.480831683,20.527901 0.48760396,20.6163168 C0.48609901,20.2709307 0.501524752,19.8089109 0.549306931,19.4669109 C0.597465347,19.9684356 0.66819802,20.0937228 0.724633663,20.146396 L0.727643564,20.1471485 C0.822455446,20.1140396 0.847663366,20.1050099 0.91990099,19.7908515 C0.976336634,19.9255446 1.05158416,20.1053861 1.1080198,20.239703 C1.31231683,20.6844158 1.59374257,21.2739802 1.8330297,21.7010099 L1.83265347,21.7062772 C1.81835644,21.8071089 1.81233663,21.9143366 1.81346535,22.0264554 C1.80744554,22.0960594 1.80293069,22.1667921 1.80067327,22.2394059 C1.78976238,22.6171485 1.83754455,22.9572673 1.92219802,23.1935446 C1.8089505,23.5573663 1.59750495,23.8888317 1.54558416,24.2729703 C1.46055446,24.0570099 1.4210495,23.9768713 1.42029703,23.9761188 C1.29576238,23.7127525 1.25813861,23.6657228 1.25776238,23.6657228 C1.22051485,23.613802 1.216,23.6104158 1.17423762,23.5750495 L1.17273267,23.574297 L1.1460198,23.5878416 L1.14526733,23.5874653 C1.12946535,23.6871683 1.12419802,23.7206535 1.15768317,23.9181782 L1.15843564,23.9238218 C1.0410495,23.56 0.882653465,23.073901 0.795366337,22.7014257 L0.791980198,22.686 L0.797623762,22.7115842 L0.845029703,22.9339406 C0.941346535,23.2748119 1.06550495,23.7319406 1.18740594,24.0649109 C1.21788119,24.1950891 1.21788119,24.1950891 1.25889109,24.3504752 L1.26980198,24.3888515 C1.37025743,24.744396 1.49253465,25.0924158 1.60916832,25.4430693 L1.60277228,25.4769307 L1.62158416,25.4806931 C1.65619802,25.5860396 1.69081188,25.6913861 1.72392079,25.7974851 L1.80255446,25.9923762 L1.64114851,25.4844554 L1.64980198,25.4859604 C1.69269307,25.588297 1.71112871,25.6270495 1.71489109,25.6349505 C1.84130693,25.9050891 1.86952475,25.9366931 1.94439604,26.0217228 L1.94665347,26.0232277 L1.94966337,26.0247327 L1.95906931,26.0341386 C1.96809901,26.0296238 1.98051485,26.023604 1.98992079,26.0187129 C1.99857426,25.9491089 2.00948515,25.862198 1.97148515,25.6977822 L1.96960396,25.680099 L1.94176238,25.5431485 L1.94138614,25.5408911 L1.9030099,25.3851287 Z M4.28045545,25.9814653 C4.45916832,26.6282178 4.96708911,27.2399802 5.33693069,27.2689505 C5.30532673,27.2147723 5.2729703,27.1564554 5.24061386,27.0966337 C5.27447525,27.1553267 5.30871287,27.2140198 5.34182178,27.2693267 C5.55251485,27.2486337 5.60481188,27.2241782 5.73235644,26.9909109 C6.96190099,28.0996832 6.98560396,28.1207525 7.74710891,28.7313861 C7.6090297,29.807802 8.87732673,30.7066337 9.39766337,30.3507129 C9.43415842,30.325505 9.47291089,30.2799802 9.50489109,30.2498812 C9.99663366,30.5463564 10.6505347,30.9444158 11.1298614,31.2604554 L11.7476436,31.6558812 C11.6577228,31.9598812 11.7344752,32.1686931 11.9188317,32.4696832 C11.0508515,32.982495 10.9989307,33.0133465 10.6362376,33.2635446 C10.2558614,32.9245545 10.0726337,32.8406535 9.70015842,32.8000198 C9.46538614,32.8233465 9.43679208,32.9881386 9.43679208,32.9896436 C9.43190099,32.9975446 9.42437624,33.0080792 9.41873267,33.0152277 C9.30134653,32.9388515 9.14483168,32.8372673 9.02744554,32.7608911 L8.9740198,32.8143168 L9.41572277,33.1077822 C9.44469307,33.364 9.6429703,33.6044158 9.8130297,33.7850099 C9.48118812,34.1796832 9.4680198,34.1951089 9.41120792,34.3948911 C9.0500198,34.1157228 8.89388119,34.0551485 8.76859406,34.0062376 L8.7629505,34.0051089 C8.58536634,33.9535644 8.63126733,34.0671881 8.65948515,34.1183564 C8.66663366,34.131901 8.67829703,34.1492079 8.68657426,34.1623762 C8.6139604,34.1138416 8.51651485,34.0487525 8.44314851,33.9998416 L8.45443564,34.0434851 L8.74188119,34.2349901 C8.81110891,34.3177624 8.88108911,34.3881188 9.00035644,34.4953465 C9.12188119,34.6048317 9.26033663,34.6932475 9.38336634,34.8004752 C9.45259406,34.8606733 9.51617822,34.9686535 9.57336634,35.0405149 C9.62641584,35.1078614 9.71370297,35.1676832 9.79835644,35.2203564 C9.88338614,35.270396 9.96653465,35.3193069 10.039901,35.3625743 C9.6260396,35.0758812 9.60986139,35.0645941 9.50413861,34.8858812 C9.63920792,34.9780594 10.0876832,35.2760396 10.1934059,35.2331485 C10.2178614,35.1097426 9.78556436,34.7064158 9.52633663,34.4878218 C9.69564356,34.1228713 9.69865347,34.1157228 9.92213861,33.889604 C10.3299802,34.2455248 10.5907129,34.314 10.7099802,34.3230297 C10.7190099,34.321901 10.7306733,34.3215248 10.7393267,34.321901 C10.8318812,34.3222772 11.004198,34.3230297 11.0715446,34.1665149 L11.0715446,34.1665149 L11.1565743,34.2161782 L11.156198,34.215802 L11.1565743,34.2161782 C12.3319406,34.8809901 12.3319406,34.8809901 12.9294059,35.1917624 C12.9177426,35.6846337 13.7800792,36.2550099 14.3515842,35.9935248 C14.6085545,36.0962376 14.6085545,36.0962376 15.9400594,36.6530693 C15.9005545,36.7181584 15.8813663,36.8272673 15.8945347,36.9025149 C15.640198,36.9931881 15.2921782,37.0928911 15.0261782,37.1384158 L14.978396,37.1451881 C14.8181188,37.0669307 14.6898218,37.0334455 14.6544554,37.0251683 C14.5882376,37.0074851 14.5882376,37.0074851 14.5111089,36.9913069 L14.5050891,36.9905545 C14.4260792,36.9770099 14.3489505,37.0217822 14.2699406,36.9969505 C13.8195842,36.8562376 13.6073861,36.7794851 12.9704158,36.5104752 C12.7228515,36.1737426 11.8172475,35.6707129 11.6784158,35.8471683 C11.7100198,36.039802 12.4064356,36.4841386 12.4132079,36.487901 C12.4380396,36.4973069 12.4658812,36.5078416 12.4922178,36.5176238 C12.4297624,36.4792475 12.3439802,36.4209307 12.3138812,36.3554653 C12.5072673,36.4525347 12.6287921,36.4999406 12.7311287,36.5368119 C12.8391089,36.5789505 13.0155644,36.6357624 12.9869703,36.5413267 C13.4091089,36.7106337 13.8402772,36.8573663 14.2616634,37.0289307 C14.3007921,37.0451089 14.3256238,37.0812277 14.3621188,37.1007921 C14.4095248,37.1263762 14.5208911,37.1632475 14.5220198,37.1636238 L14.4874059,37.1591089 C14.5107327,37.165505 14.5351881,37.171901 14.5566337,37.1779208 L14.5844752,37.1824356 C14.6774059,37.2091485 14.6774059,37.2091485 15.0066139,37.2874059 L15.0291881,37.292297 L15.0340792,37.2934257 L15.0352079,37.293802 C15.0513861,37.2968119 15.0675644,37.2998218 15.0837426,37.3035842 C15.2726139,37.3348119 15.4569703,37.385604 15.6447129,37.422099 L15.7850495,37.4488119 C15.6006931,37.4085545 15.3553861,37.3536238 15.1729109,37.3065941 L15.1766733,37.2956832 L15.1766733,37.2941782 C15.1642574,37.2693465 15.1514653,37.2437624 15.0348317,37.1749109 C15.049505,37.1730297 15.0694455,37.1707723 15.0841188,37.1688911 C15.3568911,37.1263762 15.7195842,37.0616634 15.9904752,37.0093663 C16.0770099,37.0639208 16.2794257,37.1922178 16.659802,37.187703 L16.6624356,37.187703 C16.7218812,37.1843168 16.8012673,37.178297 16.8599604,37.1700198 L16.8723762,37.1681386 C16.9209109,37.1564752 16.9863762,37.1414257 17.0337822,37.1256238 C17.7580396,37.3833465 17.7580396,37.3833465 18.1000396,37.4898218 C17.7569109,37.5929109 17.4122772,37.6230099 17.1112871,37.6192475 C17.3535842,37.6301584 17.6075446,37.6361782 17.8174851,37.6354257 C18.0857426,37.719703 18.4311287,37.7087921 18.6734257,37.6843366 L18.6835842,37.6839604 C19.0970693,37.6410693 21.1991089,37.1685149 21.219802,37.164 C21.7092871,37.7550693 22.3165347,37.0695644 22.8428911,37.2956832 C22.5501782,37.3769505 22.2559604,37.4525743 21.9651287,37.5409901 C22.0249505,37.5357228 22.1043366,37.5263168 22.1637822,37.5172871 C23.8515842,37.2392475 25.6695644,36.5353069 26.1868911,36.3261188 C26.1590495,36.3453069 26.1225545,36.3705149 26.0950891,36.3893267 C26.2625149,36.3441782 26.2625149,36.3441782 26.4126337,36.2828515 L26.416396,36.2813465 C26.5089505,36.2429703 26.601505,36.2038416 26.6936832,36.1632079 L26.7117426,36.1553069 C26.8110693,36.1109109 26.910396,36.0657624 27.0093465,36.0198614 L26.9848911,36.0360396 L27.1444158,35.9611683 L27.1703762,35.9431089 C27.6267525,35.7203762 27.7249505,35.6609307 28.0906535,35.4400792 C28.498495,35.1906337 29.0590891,34.885505 29.4624158,34.6296634 L29.5305149,34.5758614 C29.1219208,34.8245545 28.5793861,35.1590297 28.1613861,35.3907921 C28.1832079,35.3674653 28.2121782,35.3366139 28.234,35.3136634 C28.1771881,35.3260792 28.1008119,35.3433861 28.0470099,35.3644554 L28.0383564,35.3682178 C27.8479802,35.4491089 27.6820594,35.5262376 27.2535248,35.7474653 C27.0992673,35.6692079 26.948396,35.5853069 26.7933861,35.5093069 L26.797901,35.506297 C27.0289109,35.3629505 29.7799604,33.5472277 29.8040396,33.5310495 C29.8089307,33.5656634 29.8160792,33.6115644 29.8213465,33.6461782 C29.937604,33.6894455 29.937604,33.6894455 30.1343762,33.6108119 L30.1392673,33.6085545 L30.1689901,33.5916238 C30.2066139,33.5728119 30.2562772,33.5479802 30.2931485,33.5272871 L30.2984158,33.523901 C30.3815644,33.4704752 30.453802,33.4226931 30.5249109,33.2883762 C30.605802,33.0031881 30.6302574,32.6314653 30.7698416,32.3933069 C30.7152871,32.4369505 30.643802,32.4956436 30.5907525,32.5404158 C30.132495,32.3835248 30.132495,32.3835248 29.4872475,32.0806535 C29.9105149,31.6227723 29.9248119,31.3684356 29.936099,31.1645149 C29.9526535,31.1517228 29.9650693,31.1408119 29.9763564,31.1306535 C30.5027129,30.7179208 31.5121584,30.0181188 31.9391881,29.6351089 C32.0949505,30.2186535 32.9219208,29.6783762 33.3869505,28.8585545 C33.5506139,28.569604 33.4964356,28.2148119 33.6691287,27.928495 C34.1593663,27.1165743 34.8384752,26.4412277 35.3343564,25.6330693 C35.4430891,26.129703 35.7677822,25.7666337 35.9423564,25.4735446 C36.0033069,25.3708317 36.2132475,24.9919604 36.3453069,24.4302376 L36.3456832,24.4302376 C36.3968515,24.2108911 36.4739802,23.7970297 36.4107723,23.4888911 C36.3182178,23.1314653 36.0736634,23.2063366 35.802396,23.6758812 C35.4713069,24.2496436 35.3080198,25.0514059 35.317802,25.4095842 C35.325703,25.7083168 33.9016436,27.5168911 33.6529505,27.8122376 C33.5491089,27.5018416 33.3335248,27.5718218 33.1431485,27.633901 L33.1326139,27.6395446 C32.757505,27.8156238 32.4858614,28.1884752 32.3699802,28.348 C31.5016238,27.8927525 31.5016238,27.8927525 30.8149901,27.5417228 C31.348495,26.6244554 30.9583366,25.7026733 30.1306139,25.9242772 C29.7246535,26.0333861 29.2152277,26.4348317 28.9917426,27.0872277 C28.9172475,27.3039406 28.8894059,27.3893465 28.9804554,27.6165941 C27.7712277,28.6775842 27.7279604,28.7073069 26.6654653,29.4236634 C26.3791485,29.0673663 26.0367723,29.0775248 25.7342772,29.0865545 L25.719604,29.0884356 C25.3670693,29.1535248 25.0664554,29.2332871 24.6781782,29.6140396 C23.210099,28.9055842 23.1224356,28.8630693 22.2540792,28.4123366 C22.4305347,28.1869703 22.6363366,27.8216436 22.3868911,27.2550297 C23.9772475,26.2045743 24.1074257,26.1187921 24.9934653,25.4671485 C25.726,26.4355842 27.1414059,25.7775446 27.3125941,24.676297 C27.3287723,24.5735842 27.3374257,24.5141386 27.2870099,24.4008911 C27.2745941,24.1480594 27.208,23.9475248 27.071802,23.751505 C26.9431287,23.5810693 26.8099406,23.4772277 26.6116634,23.392198 L26.6161782,23.3993465 C25.4874653,23.0656238 24.4648515,24.198099 24.9031683,25.308 C23.2627723,26.4788515 23.2627723,26.4788515 22.2920792,27.1037822 C22.1912475,26.9852673 21.8849901,26.6248317 21.2453861,26.6327327 L21.227703,26.6331089 L21.1471881,26.6376238 L21.1456832,26.6383762 L21.1396634,26.6383762 C20.5531089,26.7971485 20.5531089,26.7971485 20.2190099,27.1090495 L20.14,27.2072475 C18.7193267,26.3407723 18.089505,25.9641584 17.6188317,25.672198 C17.9235842,25.1454653 17.823505,24.736495 17.6850495,24.4057822 C17.6470495,24.3196238 17.6470495,24.3196238 17.5883564,24.2330891 C17.2177624,23.705604 16.7376832,23.6687327 16.5567129,23.6551881 L16.5476832,23.6551881 C16.0017624,23.6363762 15.6695446,23.9460198 15.5201782,24.1322574 C15.4550891,24.2157822 15.4701386,24.1890693 15.4106931,24.2914059 C15.2003762,24.6966139 15.184198,25.0389901 15.3542574,25.4731683 C14.2928911,26.1154059 13.5825545,26.4468713 12.9869703,26.7896238 C12.9226337,26.7072277 12.8357228,26.5969901 12.8033663,26.5819406 C12.5023762,26.3464158 12.5023762,26.3464158 12.0196634,26.2068317 L12.0049901,26.2064554 L11.9876832,26.2053267 L11.9466733,26.196297 C11.4925545,26.2060792 11.2852475,26.3945743 11.1554455,26.5582376 L11.0523564,26.7143762 L11.0000594,26.8509505 L10.9974257,26.8825545 C10.9315842,27.1666139 10.9413663,27.1993465 11.1042772,27.7497822 C10.337505,28.2400198 9.4390495,28.8145347 9.29607921,28.9097228 C8.90968317,28.4458218 8.58122772,28.3404752 8.41982178,28.3194059 L8.40815842,28.317901 C8.06465347,28.2896832 7.99015842,28.3513861 7.82574257,28.5346139 C6.62140594,27.6628713 6.62140594,27.6628713 5.76922772,26.8656238 C5.93853465,25.7350297 4.94978218,24.6394257 4.4550297,24.9140792 C4.38241584,24.9543366 4.32485149,25.0476436 4.28083168,25.1319208 L4.28083168,25.1319208 C4.28083168,25.1319208 4.28083168,25.132297 4.28045545,25.1326733 C4.26879208,25.1552475 4.25750495,25.1778218 4.24772277,25.1977624 C4.25035644,25.2034059 4.25374257,25.209802 4.25637624,25.2154455 C4.20182178,25.4058218 4.20445545,25.6153861 4.24433663,25.8260792 L4.28045545,25.9814653 Z" id="Fill-103" fill="#FEFEFE"></path>
            <path d="M39.0324337,23.521699 C39.0094832,23.6548871 38.9568099,23.7583525 38.8744139,23.8324713 C38.7916416,23.9065901 38.6795228,23.9438376 38.5369287,23.9438376 C38.4511465,23.9438376 38.3747703,23.9295406 38.3074238,23.9013228 C38.2404535,23.873105 38.1836416,23.8317188 38.1377406,23.7775406 C38.0918396,23.7233624 38.0568495,23.657897 38.0320178,23.5815208 C38.0075624,23.5051446 37.9955228,23.4186099 37.9955228,23.3219168 C37.9955228,23.2256 38.0086911,23.1383129 38.0346515,23.0604317 C38.0606119,22.9825505 38.0971069,22.9159564 38.1445129,22.8610257 C38.1919188,22.8057188 38.2498594,22.763204 38.3179584,22.7334812 C38.3860574,22.7037584 38.4628099,22.6887089 38.5485921,22.6887089 C38.6783941,22.6887089 38.7818594,22.7221941 38.8593644,22.7887881 C38.9364931,22.8553822 38.9872851,22.9490653 39.0117406,23.0694614 L38.8834436,23.1018178 C38.8744139,23.059303 38.8612455,23.0194218 38.8443149,22.9825505 C38.8277604,22.9456792 38.8059386,22.9144515 38.7799782,22.8884911 C38.7540178,22.8625307 38.7216614,22.8418376 38.6825327,22.8264119 C38.6437802,22.8113624 38.597503,22.8034614 38.543701,22.8034614 C38.4718396,22.8034614 38.4108891,22.8166297 38.360097,22.8425901 C38.3100574,22.8685505 38.2679188,22.9042931 38.2340574,22.9494416 C38.2005723,22.9945901 38.1761168,23.0483921 38.1606911,23.1112238 C38.1452653,23.1736792 38.1377406,23.2417782 38.1377406,23.3151446 C38.1377406,23.3885109 38.1452653,23.4566099 38.1606911,23.5194416 C38.1761168,23.5822733 38.1998198,23.6364515 38.2318,23.6823525 C38.2641564,23.7282535 38.3055426,23.7643723 38.3570871,23.7899564 C38.4082554,23.8162931 38.4695822,23.8290851 38.5414436,23.8290851 C38.656196,23.8290851 38.740097,23.8012436 38.7927703,23.7455604 C38.8454436,23.689501 38.8811861,23.6150059 38.8992455,23.521699 L39.0324337,23.521699 Z" id="Fill-105" fill="#FEFEFE"></path>
            <path d="M40.1133595,23.8397187 C40.1986035,23.8397187 40.2709967,23.8260497 40.3301107,23.7990912 C40.3892246,23.7721328 40.4380579,23.7356819 40.4761821,23.6889793 C40.5147347,23.6426564 40.5425783,23.5879801 40.5597127,23.5245708 C40.5772756,23.4611616 40.5862712,23.3928162 40.5862712,23.3183958 C40.5862712,23.2473926 40.5772756,23.1809457 40.5597127,23.1182959 C40.5425783,23.0560257 40.5147347,23.0013494 40.4761821,22.9550265 C40.4380579,22.9087035 40.3892246,22.8722527 40.3301107,22.8452943 C40.2709967,22.8183358 40.1986035,22.8046668 40.1133595,22.8046668 C40.0298289,22.8046668 39.957864,22.8183358 39.8978933,22.8452943 C39.8374943,22.8722527 39.788661,22.9087035 39.7513935,22.9550265 C39.7136976,23.0013494 39.6862825,23.0560257 39.669148,23.1182959 C39.6515851,23.1809457 39.6430179,23.2485317 39.6430179,23.3210537 C39.6430179,23.3935756 39.6515851,23.4611616 39.669148,23.5245708 C39.6862825,23.5879801 39.7136976,23.6426564 39.7513935,23.6889793 C39.788661,23.7356819 39.8374943,23.7721328 39.8978933,23.7990912 C39.957864,23.8260497 40.0298289,23.8397187 40.1133595,23.8397187 M40.1077908,23.9555261 C40.0088391,23.9555261 39.9201682,23.9407179 39.843063,23.9111016 C39.7655294,23.881865 39.6999901,23.8397187 39.6468732,23.7850425 C39.5937563,23.7303662 39.5530619,23.6646788 39.5243616,23.5872207 C39.4956613,23.5101424 39.481097,23.4235716 39.481097,23.3278882 C39.481097,23.2306859 39.4965181,23.1425964 39.5265034,23.0639993 C39.5573455,22.9854022 39.5997533,22.9181959 39.6545837,22.8623806 C39.7098424,22.8069449 39.7762385,22.7640393 39.8546288,22.7340433 C39.933019,22.7036676 40.0208332,22.6888594 40.1184998,22.6888594 C40.2161664,22.6888594 40.3039806,22.7036676 40.3819425,22.7329042 C40.4607611,22.7621408 40.5267289,22.8042871 40.5807025,22.8589633 C40.6346761,22.9140193 40.6762272,22.9797067 40.7049275,23.0567851 C40.7336277,23.1342431 40.7477637,23.2200544 40.7477637,23.3138394 C40.7477637,23.4114214 40.7331994,23.4995109 40.7036424,23.578108 C40.6740854,23.6567051 40.6316776,23.7242911 40.5768472,23.7804861 C40.5220169,23.8370608 40.454764,23.8799665 40.375517,23.9103422 C40.2962701,23.9403382 40.2071708,23.9555261 40.1077908,23.9555261" id="Fill-107" fill="#FEFEFE"></path>
            <path d="M41.1008376,22.7256931 L41.2340257,22.7256931 L41.2340257,22.9183267 C41.2979861,22.8370594 41.3668376,22.7787426 41.4390752,22.7426238 C41.5116891,22.7068812 41.5895703,22.6888218 41.6723426,22.6888218 C41.8066594,22.6888218 41.9063624,22.7264455 41.9703228,22.8013168 C42.0346594,22.8761881 42.0666396,22.9826634 42.0666396,23.1203663 L42.0666396,23.9070792 L41.9334515,23.9070792 L41.9334515,23.1568614 C41.9334515,23.0330792 41.9116297,22.9439109 41.8672337,22.8897327 C41.8228376,22.8355545 41.7524812,22.8080891 41.6561644,22.8080891 C41.6102634,22.8080891 41.5617287,22.8171188 41.5105604,22.834802 C41.4590158,22.8521089 41.4131149,22.8799505 41.3717287,22.9183267 C41.3258277,22.9582079 41.2912139,22.9992178 41.2682634,23.0409802 C41.2453129,23.0831188 41.2340257,23.1410594 41.2340257,23.2144257 L41.2340257,23.9070792 L41.1008376,23.9070792 L41.1008376,22.7256931 Z" id="Fill-109" fill="#FEFEFE"></path>
            <path d="M42.6159089,22.7256931 L42.749097,22.7256931 L42.749097,22.9183267 C42.8130574,22.8370594 42.8819089,22.7787426 42.9541465,22.7426238 C43.0267604,22.7068812 43.1046416,22.6888218 43.1874139,22.6888218 C43.3217307,22.6888218 43.4214337,22.7264455 43.4853941,22.8013168 C43.5497307,22.8761881 43.5817109,22.9826634 43.5817109,23.1203663 L43.5817109,23.9070792 L43.4485228,23.9070792 L43.4485228,23.1568614 C43.4485228,23.0330792 43.4263248,22.9439109 43.382305,22.8897327 C43.3379089,22.8355545 43.2675525,22.8080891 43.1712356,22.8080891 C43.1253347,22.8080891 43.0768,22.8171188 43.0252554,22.834802 C42.9740871,22.8521089 42.9281861,22.8799505 42.8868,22.9183267 C42.840899,22.9582079 42.8062851,22.9992178 42.7833347,23.0409802 C42.7603842,23.0831188 42.749097,23.1410594 42.749097,23.2144257 L42.749097,23.9070792 L42.6159089,23.9070792 L42.6159089,22.7256931 Z" id="Fill-111" fill="#FEFEFE"></path>
            <path d="M45.1849988,23.2399526 C45.1849988,23.1750246 45.1767796,23.1157919 45.1598847,23.0614954 C45.1434463,23.0075785 45.1178755,22.9608759 45.0822591,22.9213875 C45.0470993,22.8822787 45.0009806,22.851903 44.9439029,22.8298807 C44.8863687,22.8086177 44.8178755,22.7976065 44.7379669,22.7976065 C44.5991541,22.7976065 44.4881952,22.8340573 44.4050901,22.9065793 C44.3215285,22.9791013 44.2717568,23.0899726 44.2548618,23.2399526 L45.1849988,23.2399526 Z M45.327008,23.6056001 C45.3050901,23.7092572 45.2452728,23.79317 45.1489258,23.8580981 C45.0525787,23.9230261 44.9151358,23.9553003 44.7370536,23.9553003 C44.5306609,23.9553003 44.3708436,23.9002444 44.2566883,23.7897528 C44.1420765,23.6796409 44.0854554,23.5277624 44.0854554,23.3348767 C44.0854554,23.2297008 44.1014372,23.1370549 44.1338573,23.056939 C44.166734,22.9768231 44.2119395,22.9092372 44.270387,22.8545609 C44.3288344,22.799505 44.3977842,22.7581181 44.4767796,22.7307799 C44.5553185,22.7026824 44.6425331,22.6886337 44.7370536,22.6886337 C44.8484691,22.6886337 44.9429897,22.7038215 45.0210719,22.7338175 C45.0991541,22.7641932 45.1621678,22.8048207 45.2119395,22.8568391 C45.2607979,22.9084778 45.2964143,22.9699886 45.3187888,23.0409918 C45.3411632,23.1116153 45.3521221,23.1883139 45.3521221,23.2699486 L45.3521221,23.35576 L44.2525787,23.35576 C44.2525787,23.4233459 44.2626244,23.4867552 44.2827157,23.5459878 C44.3032637,23.6048407 44.3338573,23.6564794 44.3744965,23.7001445 C44.4151358,23.7441892 44.4662774,23.7783619 44.5274646,23.8038015 C44.5881952,23.8292412 44.6585148,23.8417712 44.7379669,23.8417712 C44.8105696,23.8417712 44.8713002,23.8360757 44.9215285,23.8246848 C44.9713002,23.8132939 45.0133093,23.796967 45.046186,23.775704 C45.0795194,23.7540613 45.1060034,23.7293811 45.1256381,23.7009038 C45.1448162,23.6728063 45.1598847,23.6409118 45.1713002,23.6056001 L45.327008,23.6056001 Z" id="Fill-113" fill="#FEFEFE"></path>
            <path d="M46.6290475,23.521699 C46.606097,23.6548871 46.5534238,23.7583525 46.4706515,23.8324713 C46.3882554,23.9065901 46.2757604,23.9438376 46.1335426,23.9438376 C46.0477604,23.9438376 45.9713842,23.9295406 45.9040376,23.9013228 C45.8370673,23.873105 45.7802554,23.8317188 45.7343545,23.7775406 C45.6884535,23.7233624 45.6530871,23.657897 45.6286317,23.5815208 C45.6041762,23.5051446 45.5921366,23.4186099 45.5921366,23.3219168 C45.5921366,23.2256 45.6049287,23.1383129 45.6308891,23.0604317 C45.6572257,22.9825505 45.6937208,22.9159564 45.7411267,22.8610257 C45.7885327,22.8057188 45.846097,22.763204 45.9145723,22.7334812 C45.9826713,22.7037584 46.0594238,22.6887089 46.1452059,22.6887089 C46.2750079,22.6887089 46.3784733,22.7221941 46.4559782,22.7887881 C46.5331069,22.8553822 46.583899,22.9490653 46.6083545,23.0694614 L46.4800574,23.1018178 C46.4706515,23.059303 46.4578594,23.0194218 46.4409287,22.9825505 C46.423998,22.9456792 46.4025525,22.9144515 46.3765921,22.8884911 C46.3506317,22.8625307 46.3182752,22.8418376 46.2791465,22.8264119 C46.2400178,22.8113624 46.1937406,22.8034614 46.1403149,22.8034614 C46.0684535,22.8034614 46.007503,22.8166297 45.9567109,22.8425901 C45.9066713,22.8685505 45.8645327,22.9042931 45.8306713,22.9494416 C45.7971861,22.9945901 45.7727307,23.0483921 45.757305,23.1112238 C45.7418792,23.1736792 45.7343545,23.2417782 45.7343545,23.3151446 C45.7343545,23.3885109 45.7418792,23.4566099 45.757305,23.5194416 C45.7727307,23.5822733 45.7964337,23.6364515 45.8284139,23.6823525 C45.8603941,23.7282535 45.9021564,23.7643723 45.9533248,23.7899564 C46.0048693,23.8162931 46.066196,23.8290851 46.1380574,23.8290851 C46.2528099,23.8290851 46.3367109,23.8012436 46.3893842,23.7455604 C46.4420574,23.689501 46.4778,23.6150059 46.4958594,23.521699 L46.6290475,23.521699 Z" id="Fill-115" fill="#FEFEFE"></path>
            <path d="M47.1786931,22.8381129 L46.9950891,22.8381129 L46.9950891,22.7256178 L47.1786931,22.7256178 L47.1786931,22.399796 L47.3118812,22.399796 L47.3118812,22.7256178 L47.6467327,22.7256178 L47.6467327,22.8381129 L47.3118812,22.8381129 L47.3118812,23.6094 C47.3118812,23.6673406 47.3239208,23.7166277 47.3483762,23.7568851 C47.3728317,23.7975188 47.4157228,23.8178356 47.4766733,23.8178356 C47.5165545,23.8178356 47.5504158,23.8144495 47.5778812,23.8084297 C47.6053465,23.8024099 47.629802,23.7952614 47.6512475,23.7877366 L47.6790891,23.8957168 C47.6561386,23.9047465 47.6279208,23.9130238 47.5951881,23.9209248 C47.5620792,23.9284495 47.5191881,23.9322119 47.4653861,23.9322119 C47.3980396,23.9322119 47.3453663,23.9209248 47.3069901,23.8979743 C47.2689901,23.8750238 47.240396,23.8449248 47.2212079,23.8076772 C47.2020198,23.7700535 47.1903564,23.7271624 47.1858416,23.6782515 C47.1809505,23.6293406 47.1786931,23.5781723 47.1786931,23.5247465 L47.1786931,22.8381129 Z" id="Fill-117" fill="#FEFEFE"></path>
            <path d="M48.8353802,22.6659842 C48.9102515,22.6659842 48.9749644,22.6817861 49.0295188,22.7141426 C49.083697,22.7461228 49.1243307,22.7927762 49.1521723,22.854103 C49.2010832,22.7912713 49.2548851,22.7442416 49.3135782,22.7130139 C49.3726475,22.6817861 49.4418752,22.6659842 49.5216376,22.6659842 C49.640905,22.6659842 49.7327069,22.7017267 49.797796,22.7739644 C49.8628851,22.8458257 49.8952416,22.9534297 49.8952416,23.0971525 L49.8952416,23.9071921 L49.4798752,23.9071921 L49.4798752,23.1430535 C49.4798752,23.0896277 49.4700931,23.0535089 49.4501525,23.0350733 C49.4305881,23.0170139 49.4019941,23.0079842 49.365499,23.0079842 C49.3406673,23.0079842 49.319598,23.0109941 49.3011624,23.0170139 C49.2827267,23.0230337 49.2654198,23.0343208 49.2484891,23.0512515 C49.2345683,23.0651723 49.2236574,23.0813505 49.215004,23.0994099 C49.2067267,23.1178455 49.2025881,23.1441822 49.2025881,23.1772911 L49.2025881,23.9071921 L48.7872218,23.9071921 L48.7872218,23.1430535 C48.7872218,23.0896277 48.7774396,23.0535089 48.7571228,23.0350733 C48.7375584,23.0170139 48.7093406,23.0079842 48.6724693,23.0079842 C48.6480139,23.0079842 48.6265683,23.0109941 48.6081327,23.0170139 C48.5900733,23.0230337 48.5723901,23.0343208 48.5554594,23.0512515 C48.5419149,23.0651723 48.5306277,23.0813505 48.5223505,23.0994099 C48.5140733,23.1178455 48.5095584,23.1441822 48.5095584,23.1772911 L48.5095584,23.9071921 L48.0941921,23.9071921 L48.0941921,22.7024792 L48.4982713,22.7024792 L48.4982713,22.8428158 C48.5377762,22.786004 48.5855584,22.7423604 48.6416178,22.7118851 C48.697301,22.6814099 48.7620139,22.6659842 48.8353802,22.6659842" id="Fill-119" fill="#FEFEFE"></path>
            <path d="M50.7581464,23.3036317 C50.7581464,23.4138693 50.7764763,23.492503 50.812754,23.5399089 C50.8490318,23.5873149 50.9002025,23.6110178 50.9651206,23.6110178 C51.0304206,23.6110178 51.0812095,23.5873149 51.1178691,23.5399089 C51.1545287,23.492503 51.1724767,23.4138693 51.1724767,23.3036317 C51.1724767,23.1937703 51.1545287,23.1151366 51.1178691,23.0673545 C51.0812095,23.0203248 51.0304206,22.9962455 50.9651206,22.9962455 C50.9002025,22.9962455 50.8490318,23.0203248 50.812754,23.0673545 C50.7764763,23.1151366 50.7581464,23.1937703 50.7581464,23.3036317 M51.5986449,23.2991168 C51.5986449,23.4996515 51.5428917,23.6565426 51.4310034,23.7705426 C51.3194971,23.8845426 51.162548,23.9417307 50.9605382,23.9417307 C50.7619652,23.9417307 50.6073073,23.8860475 50.4973284,23.7750574 C50.3869677,23.6640673 50.3319782,23.5086812 50.3319782,23.3081465 C50.3319782,23.1049782 50.3881133,22.9469584 50.5007653,22.8344634 C50.6134173,22.7223446 50.7696026,22.6659089 50.9700849,22.6659089 C51.1686579,22.6659089 51.3229339,22.7212158 51.4336765,22.8322059 C51.5436554,22.943196 51.5986449,23.0989584 51.5986449,23.2991168" id="Fill-121" fill="#FEFEFE"></path>
            <polygon id="Fill-123" fill="#FEFEFE" points="52.3089564 23.9071168 51.872897 22.702404 52.3228772 22.702404 52.5339465 23.4688 52.7446396 22.702404 53.1784416 22.702404 52.7423822 23.9071168"></polygon>
            <path d="M54.1208138,22.9597505 C54.046116,22.9597505 53.9909914,22.9778099 53.9550406,23.0146812 C53.9194892,23.0515525 53.8983182,23.1019683 53.891927,23.1659287 L54.3277306,23.1659287 C54.324535,23.0929386 54.3061601,23.0398891 54.2730055,23.0079089 C54.2398509,22.9755525 54.1887208,22.9597505 54.1208138,22.9597505 L54.1208138,22.9597505 Z M54.7347736,23.4022059 L53.891927,23.4022059 C53.899916,23.4894931 53.9206876,23.5519485 53.9538422,23.5895723 C53.9873963,23.6268198 54.0397247,23.6456317 54.1112269,23.6456317 C54.221476,23.6456317 54.2889836,23.6034931 54.3129508,23.5192158 L54.7247873,23.5192158 C54.6988228,23.6618099 54.6341113,23.7679089 54.529854,23.8382653 C54.4259961,23.9086218 54.2881847,23.9439881 54.1160203,23.9439881 C53.9015138,23.9439881 53.7397352,23.8905624 53.6310839,23.7829584 C53.5224326,23.6761069 53.4681069,23.5233545 53.4681069,23.3243248 C53.4681069,23.2189782 53.4832862,23.125295 53.5140441,23.0432752 C53.5452014,22.9616317 53.5883424,22.8927802 53.6446653,22.8367208 C53.7005888,22.7810376 53.7688953,22.7385228 53.8491855,22.7095525 C53.9294756,22.6805822 54.0201515,22.6659089 54.1208138,22.6659089 C54.221476,22.6659089 54.3101547,22.6802059 54.3864503,22.7084238 C54.4627458,22.7366416 54.5266584,22.7772752 54.5785873,22.8299485 C54.6305163,22.8826218 54.6696627,22.9465822 54.6956272,23.0214535 C54.7215916,23.0963248 54.7347736,23.1798495 54.7347736,23.2716515 L54.7347736,23.4022059 Z" id="Fill-125" fill="#FEFEFE"></path>
            <path d="M55.1904475,23.5790376 C55.207002,23.6708396 55.2461307,23.7359287 55.3074574,23.774305 C55.3687842,23.812305 55.4560713,23.8314931 55.5689426,23.8314931 C55.683695,23.8314931 55.7645861,23.8100475 55.8119921,23.7671564 C55.859398,23.7242653 55.8834772,23.6708396 55.8834772,23.606503 C55.8834772,23.5790376 55.8800911,23.5534535 55.8740713,23.5297505 C55.8680515,23.5060475 55.8560119,23.4842257 55.8383287,23.4642851 C55.8206455,23.4447208 55.7954376,23.4277901 55.762705,23.4138693 C55.729596,23.3999485 55.686705,23.3886614 55.6347842,23.3796317 L55.4895564,23.3566812 C55.4267248,23.3457703 55.3706653,23.332602 55.321002,23.3175525 C55.2709624,23.3021267 55.2288238,23.2818099 55.1942099,23.256602 C55.159596,23.2313941 55.1336356,23.2001663 55.1159525,23.1625426 C55.0982693,23.125295 55.0892396,23.0790178 55.0892396,23.0237109 C55.0892396,22.9717901 55.100903,22.9247604 55.1238535,22.8826218 C55.146804,22.8408594 55.1780317,22.8054931 55.2179129,22.7772752 C55.2577941,22.7490574 55.3048238,22.7268594 55.359002,22.7118099 C55.4131802,22.6963842 55.4718733,22.6888594 55.534705,22.6888594 C55.615596,22.6888594 55.6833188,22.6967604 55.737497,22.7129386 C55.7920515,22.7291168 55.8360713,22.7509386 55.8706851,22.778404 C55.9049228,22.8058693 55.9316356,22.8382257 55.9508238,22.8747208 C55.9700119,22.9115921 55.9850614,22.9503446 55.995596,22.9917307 L55.8740713,23.0169386 C55.8620317,22.9819485 55.8477347,22.9507208 55.8315564,22.9240079 C55.8157545,22.897295 55.7950614,22.875097 55.7709822,22.8577901 C55.7465267,22.8401069 55.7156752,22.8265624 55.6791802,22.8175327 C55.6426851,22.8081267 55.5964079,22.8036119 55.5414772,22.8036119 C55.4805267,22.8036119 55.4289822,22.8092554 55.387596,22.8205426 C55.3465861,22.8322059 55.313101,22.8480079 55.2878931,22.8679485 C55.2626851,22.8878891 55.245002,22.9108396 55.2340911,22.9364238 C55.2231802,22.9627604 55.2179129,22.9894733 55.2179129,23.0169386 C55.2179129,23.044404 55.2209228,23.0696119 55.2273188,23.0918099 C55.2333386,23.1136317 55.2453782,23.133196 55.2638139,23.1501267 C55.2822495,23.1670574 55.3078337,23.1813545 55.3405663,23.1937703 C55.3736752,23.2058099 55.4169426,23.2167208 55.4703683,23.2257505 L55.6517149,23.2554733 C55.775497,23.2769188 55.8680515,23.3137901 55.929002,23.3668396 C55.9903287,23.4195129 56.0211802,23.500404 56.0211802,23.6091366 C56.0211802,23.6546614 56.011398,23.698305 55.9922099,23.7396911 C55.973398,23.7810772 55.944804,23.8164436 55.9075564,23.8461663 C55.8699327,23.8762653 55.822903,23.8999683 55.7664673,23.9172752 C55.7096554,23.9349584 55.6449426,23.9439881 55.5712,23.9439881 C55.4993386,23.9439881 55.433497,23.9368396 55.3729228,23.923295 C55.3123485,23.9093743 55.2600515,23.8879287 55.2156554,23.8589584 C55.1712594,23.8299881 55.1355168,23.7923644 55.1076752,23.7464634 C55.0805861,23.7005624 55.0636554,23.6448792 55.0572594,23.5790376 L55.1904475,23.5790376 Z" id="Fill-127" fill="#FEFEFE"></path>
            <path d="M56.5234574,22.2689782 L56.6566455,22.2689782 L56.6566455,22.9183644 C56.7206059,22.837097 56.7894574,22.7787802 56.861695,22.7426614 C56.9346851,22.7069188 57.0121901,22.6888594 57.0949624,22.6888594 C57.2292792,22.6888594 57.3289822,22.7264832 57.3929426,22.8013545 C57.4572792,22.8762257 57.4892594,22.9823248 57.4892594,23.120404 L57.4892594,23.9071168 L57.3564475,23.9071168 L57.3564475,23.156899 C57.3564475,23.0331168 57.3342495,22.9439485 57.2898535,22.8893941 C57.2454574,22.8352158 57.175101,22.8081267 57.0787842,22.8081267 C57.0328832,22.8081267 56.9843485,22.8171564 56.9331802,22.8344634 C56.8820119,22.8521465 56.8357347,22.8799881 56.7943485,22.9183644 C56.7484475,22.9582455 56.7138337,22.9988792 56.6908832,23.0410178 C56.6679327,23.0831564 56.6566455,23.1407208 56.6566455,23.2144634 L56.6566455,23.9071168 L56.5234574,23.9071168 L56.5234574,22.2689782 Z" id="Fill-129" fill="#FEFEFE"></path>
            <path d="M59.048732,23.2883735 L58.7613703,23.297555 C58.6446451,23.3009981 58.54622,23.3090319 58.4680734,23.3220391 C58.3894323,23.3354288 58.3256291,23.3541744 58.2771584,23.3782759 C58.2286878,23.4023773 58.1940659,23.4318347 58.1727981,23.4670305 C58.1515304,23.5018438 58.1411438,23.5435432 58.1411438,23.5917461 C58.1411438,23.6648157 58.1678521,23.7237304 58.2212688,23.7677252 C58.2746854,23.8121025 58.3681645,23.8342912 58.5012115,23.8342912 C58.5674877,23.8342912 58.6337639,23.8285527 58.6990509,23.8166933 C58.7648325,23.8052164 58.8187437,23.7860882 58.8612792,23.7596914 C58.8973849,23.7394155 58.9270608,23.7199048 58.9503069,23.7011592 C58.973553,23.6824136 58.9928424,23.6621377 59.0076803,23.6395665 C59.0230129,23.6169953 59.0338941,23.5917461 59.0398292,23.563819 C59.0457644,23.5355093 59.048732,23.5029915 59.048732,23.4658828 L59.048732,23.2883735 Z M59.0516996,23.757396 C59.0259805,23.7822626 58.9948208,23.8067466 58.9582205,23.8304655 C58.9221148,23.8549496 58.8810631,23.8763731 58.8345709,23.8947362 C58.7885732,23.9134817 58.7376296,23.9284017 58.6822345,23.9391135 C58.6268395,23.9502078 58.5660039,23.9555637 58.5002223,23.9555637 C58.3370048,23.9555637 58.2064308,23.9253412 58.1080057,23.8645137 C58.009086,23.8040687 57.9601208,23.7137838 57.9601208,23.5940415 C57.9601208,23.5129381 57.9823777,23.4471372 58.026397,23.3958738 C58.0704162,23.3442277 58.1292735,23.3040586 58.2029686,23.2742187 C58.2761692,23.2447613 58.3597564,23.2244855 58.4532355,23.212626 C58.5467146,23.2007666 58.6436559,23.1934979 58.744554,23.1904373 L59.0457644,23.1808733 L59.0457644,23.1437646 C59.0457644,23.0255526 59.0160885,22.9390933 58.9567367,22.8847694 C58.8973849,22.8304454 58.7915408,22.8029009 58.6387099,22.8029009 C58.5645201,22.8029009 58.5017061,22.8078742 58.4502679,22.8170557 C58.3988296,22.8262372 58.3562942,22.8400095 58.3221669,22.85799 C58.287545,22.8759704 58.2608367,22.8970114 58.2405581,22.9211129 C58.2207742,22.9452144 58.2054416,22.9719938 58.1950551,23.0014511 L58.0352998,22.9827055 C58.091684,22.7868332 58.294964,22.688897 58.6446451,22.688897 C58.7534567,22.688897 58.8444628,22.6988437 58.9191472,22.7191195 C58.9938316,22.7393954 59.0531834,22.7688527 59.0986865,22.8067265 C59.1436949,22.8446002 59.1763384,22.8912729 59.196617,22.946362 C59.2168955,23.0018337 59.2267875,23.0653392 59.2267875,23.1368785 L59.2267875,23.9276366 L59.0516996,23.9276366 L59.0516996,23.757396 Z" id="Fill-131" fill="#FEFEFE"></path>
            <path d="M59.4751168,22.7256931 L59.608305,22.7256931 L59.608305,22.9183267 C59.6557109,22.8509802 59.7098891,22.7990594 59.7712158,22.7621881 C59.8325426,22.7256931 59.8976317,22.7072574 59.9661069,22.7072574 C59.9830376,22.7072574 59.9988396,22.7076337 60.0135129,22.7083861 C60.0278099,22.7091386 60.0432356,22.7110198 60.0601663,22.7140297 L60.0443644,22.8381881 C60.0165228,22.8336733 59.9916911,22.8310396 59.9683644,22.8310396 C59.9288594,22.8310396 59.8882257,22.8385644 59.8468396,22.8528614 C59.8054535,22.8675347 59.766701,22.8923663 59.7298297,22.9277327 C59.6948396,22.9585842 59.6654931,22.9954554 59.6429188,23.039099 C59.6195921,23.0827426 59.608305,23.1342871 59.608305,23.1944851 L59.608305,23.9070792 L59.4751168,23.9070792 L59.4751168,22.7256931 Z" id="Fill-133" fill="#FEFEFE"></path>
            <path d="M61.4995275,23.2399526 C61.4995275,23.1750246 61.4913084,23.1157919 61.4744134,23.0614954 C61.457975,23.0075785 61.4324042,22.9608759 61.3967878,22.9213875 C61.361628,22.8822787 61.3155093,22.851903 61.2584316,22.8298807 C61.2008974,22.8086177 61.1324042,22.7976065 61.0524956,22.7976065 C60.9136828,22.7976065 60.8027239,22.8340573 60.7196189,22.9065793 C60.6360572,22.9791013 60.5862855,23.0899726 60.5693906,23.2399526 L61.4995275,23.2399526 Z M61.6415367,23.6056001 C61.6196189,23.7092572 61.5598015,23.79317 61.4634545,23.8580981 C61.3671074,23.9230261 61.2296645,23.9553003 61.0515823,23.9553003 C60.8451896,23.9553003 60.6853723,23.9002444 60.571217,23.7897528 C60.4566052,23.6796409 60.3999842,23.5277624 60.3999842,23.3348767 C60.3999842,23.2297008 60.4159659,23.1370549 60.448386,23.056939 C60.4812627,22.9768231 60.5264682,22.9092372 60.5849157,22.8545609 C60.6433632,22.799505 60.7123129,22.7581181 60.7913084,22.7307799 C60.8698472,22.7026824 60.9570618,22.6886337 61.0515823,22.6886337 C61.1629979,22.6886337 61.2575184,22.7038215 61.3356006,22.7338175 C61.4136828,22.7641932 61.4766965,22.8048207 61.5264682,22.8568391 C61.5753266,22.9084778 61.6109431,22.9699886 61.6333175,23.0409918 C61.6556919,23.1116153 61.6666508,23.1883139 61.6666508,23.2699486 L61.6666508,23.35576 L60.5671074,23.35576 C60.5671074,23.4233459 60.5771531,23.4867552 60.5972444,23.5459878 C60.6177924,23.6048407 60.648386,23.6564794 60.6890253,23.7001445 C60.7296645,23.7441892 60.7808061,23.7783619 60.8419933,23.8038015 C60.9027239,23.8292412 60.9730435,23.8417712 61.0524956,23.8417712 C61.1250983,23.8417712 61.1858289,23.8360757 61.2360572,23.8246848 C61.2858289,23.8132939 61.327838,23.796967 61.3607148,23.775704 C61.3940481,23.7540613 61.4205321,23.7293811 61.4401668,23.7009038 C61.4593449,23.6728063 61.4744134,23.6409118 61.4858289,23.6056001 L61.6415367,23.6056001 Z" id="Fill-135" fill="#FEFEFE"></path>
            <polygon id="Fill-137" fill="#FEFEFE" points="8.76866931 16.1384119 9.61482772 16.1384119 9.61482772 20.7533426 11.0069069 20.7533426 11.0069069 21.5227485 8.76866931 21.5227485"></polygon>
            <path d="M12.3454851,20.2842119 C12.3454851,20.6687267 12.5147921,20.8150832 12.783802,20.8150832 C13.0531881,20.8150832 13.222495,20.6687267 13.222495,20.2842119 L13.222495,17.3766475 C13.222495,16.9921327 13.0531881,16.8461525 12.783802,16.8461525 C12.5147921,16.8461525 12.3454851,16.9921327 12.3454851,17.3766475 L12.3454851,20.2842119 Z M11.4993267,17.4308257 C11.4993267,16.5688653 11.9534455,16.0767465 12.783802,16.0767465 C13.6145347,16.0767465 14.0682772,16.5688653 14.0682772,17.4308257 L14.0682772,20.2304099 C14.0682772,21.0916178 13.6145347,21.5841129 12.783802,21.5841129 C11.9534455,21.5841129 11.4993267,21.0916178 11.4993267,20.2304099 L11.4993267,17.4308257 Z" id="Fill-139" fill="#FEFEFE"></path>
            <path d="M16.0760693,18.5227802 L17.2604653,18.5227802 L17.2604653,20.2305228 C17.2604653,21.0917307 16.8300495,21.5842257 15.9993168,21.5842257 C15.1685842,21.5842257 14.7377921,21.0917307 14.7377921,20.2305228 L14.7377921,17.4305624 C14.7377921,16.5689782 15.1685842,16.0768594 15.9993168,16.0768594 C16.8300495,16.0768594 17.2604653,16.5689782 17.2604653,17.4305624 L17.2604653,17.9535327 L16.4605842,17.9535327 L16.4605842,17.3767604 C16.4605842,16.9922455 16.2916535,16.8458891 16.0222673,16.8458891 C15.7532574,16.8458891 15.5839505,16.9922455 15.5839505,17.3767604 L15.5839505,20.2843248 C15.5839505,20.6688396 15.7532574,20.807295 16.0222673,20.807295 C16.2916535,20.807295 16.4605842,20.6688396 16.4605842,20.2843248 L16.4605842,19.2918099 L16.0760693,19.2918099 L16.0760693,18.5227802 Z" id="Fill-141" fill="#FEFEFE"></path>
            <mask id="mask-10" fill="white">
                <use xlink:href="#path-9"></use>
            </mask>
            <g id="Clip-144"></g>
            <polygon id="Fill-143" fill="#FEFEFE" mask="url(#mask-10)" points="17.9992079 21.5226356 18.8453663 21.5226356 18.8453663 16.138299 17.9992079 16.138299"></polygon>
            <path d="M20.7915307,16.0768594 C21.6147386,16.0768594 22.0376297,16.5689782 22.0376297,17.4305624 L22.0376297,17.5998693 L21.2377485,17.5998693 L21.2377485,17.3767604 C21.2377485,16.9922455 21.0838673,16.8458891 20.8148574,16.8458891 C20.5454713,16.8458891 20.3915901,16.9922455 20.3915901,17.3767604 C20.3915901,18.484404 22.0455307,18.6920871 22.0455307,20.2305228 C22.0455307,21.0917307 21.6147386,21.5842257 20.7836297,21.5842257 C19.952897,21.5842257 19.5224812,21.0917307 19.5224812,20.2305228 L19.5224812,19.8998099 L20.3223624,19.8998099 L20.3223624,20.2843248 C20.3223624,20.6688396 20.4916693,20.807295 20.7606792,20.807295 C21.0300653,20.807295 21.198996,20.6688396 21.198996,20.2843248 C21.198996,19.1766812 19.5454317,18.968998 19.5454317,17.4305624 C19.5454317,16.5689782 19.9683228,16.0768594 20.7915307,16.0768594" id="Fill-145" fill="#FEFEFE" mask="url(#mask-10)"></path>
            <polygon id="Fill-146" fill="#FEFEFE" mask="url(#mask-10)" points="22.4763228 16.1384119 25.0915505 16.1384119 25.0915505 16.9074416 24.2070158 16.9074416 24.2070158 21.5227485 23.3608574 21.5227485 23.3608574 16.9074416 22.4763228 16.9074416"></polygon>
            <polygon id="Fill-147" fill="#FEFEFE" mask="url(#mask-10)" points="25.6530099 21.5226356 26.4991683 21.5226356 26.4991683 16.138299 25.6530099 16.138299"></polygon>
            <path d="M29.7604337,19.5149941 L29.7604337,20.2302218 C29.7604337,21.0918059 29.3296416,21.584301 28.4989089,21.584301 C27.6681762,21.584301 27.2377604,21.0918059 27.2377604,20.2302218 L27.2377604,17.4306376 C27.2377604,16.5690535 27.6681762,16.0769347 28.4989089,16.0769347 C29.3296416,16.0769347 29.7604337,16.5690535 29.7604337,17.4306376 L29.7604337,17.9536079 L28.9605525,17.9536079 L28.9605525,17.3768356 C28.9605525,16.9919446 28.7912455,16.8459644 28.5218594,16.8459644 C28.2528495,16.8459644 28.0835426,16.9919446 28.0835426,17.3768356 L28.0835426,20.2840238 C28.0835426,20.6685386 28.2528495,20.8073703 28.5218594,20.8073703 C28.7912455,20.8073703 28.9605525,20.6685386 28.9605525,20.2840238 L28.9605525,19.5149941 L29.7604337,19.5149941 Z" id="Fill-148" fill="#FEFEFE" mask="url(#mask-10)"></path>
            <path d="M31.6067069,16.0768594 C32.4299149,16.0768594 32.8528059,16.5689782 32.8528059,17.4305624 L32.8528059,17.5998693 L32.0529248,17.5998693 L32.0529248,17.3767604 C32.0529248,16.9922455 31.8986673,16.8458891 31.6296574,16.8458891 C31.3606475,16.8458891 31.2067663,16.9922455 31.2067663,17.3767604 C31.2067663,18.484404 32.8603307,18.6920871 32.8603307,20.2305228 C32.8603307,21.0917307 32.4299149,21.5842257 31.5988059,21.5842257 C30.7680733,21.5842257 30.3372812,21.0917307 30.3372812,20.2305228 L30.3372812,19.8998099 L31.1375386,19.8998099 L31.1375386,20.2843248 C31.1375386,20.6688396 31.3068455,20.807295 31.5758554,20.807295 C31.8448653,20.807295 32.0141723,20.6688396 32.0141723,20.2843248 C32.0141723,19.1766812 30.3606079,18.968998 30.3606079,17.4305624 C30.3606079,16.5689782 30.783499,16.0768594 31.6067069,16.0768594" id="Fill-149" fill="#FEFEFE" mask="url(#mask-10)"></path>
            <polygon id="Fill-150" fill="#FEFEFE" mask="url(#mask-10)" points="33.5374455 21.5226356 33.7067525 21.5226356 33.7067525 16.138299 33.5374455 16.138299"></polygon>
            <polygon id="Fill-151" fill="#FEFEFE" mask="url(#mask-10)" points="34.6757901 21.522598 34.5143842 21.522598 34.5143842 16.1382614 34.7529188 16.1382614 36.6450178 21.1764594 36.6450178 16.1382614 36.8064238 16.1382614 36.8064238 21.522598 36.5987406 21.522598 34.6757901 16.384697"></polygon>
            <polygon id="Fill-152" fill="#FEFEFE" mask="url(#mask-10)" points="39.4911802 18.653598 39.1834178 21.5224099 38.0219723 21.5224099 37.4218733 16.1384495 38.2450812 16.1384495 38.6988238 20.3842911 39.1066653 16.1384495 39.9219723 16.1384495 40.3448634 20.4151426 40.7831802 16.1384495 41.5213584 16.1384495 40.9216356 21.5224099 39.7985663 21.5224099"></polygon>
            <path d="M42.8295366,19.8150059 L43.6448436,19.8150059 L43.237002,17.0921743 L42.8295366,19.8150059 Z M44.7600119,21.5227485 L43.9063287,21.5227485 L43.7603485,20.5456594 L42.7219327,20.5456594 L42.5755762,21.5227485 L41.7990218,21.5227485 L42.6602297,16.1384119 L43.898804,16.1384119 L44.7600119,21.5227485 Z" id="Fill-153" fill="#FEFEFE" mask="url(#mask-10)"></path>
            <polygon id="Fill-154" fill="#FEFEFE" mask="url(#mask-10)" points="45.345099 16.1384119 46.1912574 16.1384119 46.1912574 20.7533426 47.5833366 20.7533426 47.5833366 21.5227485 45.345099 21.5227485"></polygon>
            <polygon id="Fill-155" fill="#FEFEFE" mask="url(#mask-10)" points="48.1450218 16.1384119 48.9911802 16.1384119 48.9911802 20.7533426 50.3832594 20.7533426 50.3832594 21.5227485 48.1450218 21.5227485"></polygon>
            <path d="M51.7218376,20.2842119 C51.7218376,20.6687267 51.8911446,20.8150832 52.1601545,20.8150832 C52.4295406,20.8150832 52.5988475,20.6687267 52.5988475,20.2842119 L52.5988475,17.3766475 C52.5988475,16.9921327 52.4295406,16.8461525 52.1601545,16.8461525 C51.8911446,16.8461525 51.7218376,16.9921327 51.7218376,17.3766475 L51.7218376,20.2842119 Z M50.8756792,17.4308257 C50.8756792,16.5688653 51.329798,16.0767465 52.1601545,16.0767465 C52.9908871,16.0767465 53.4450059,16.5688653 53.4450059,17.4308257 L53.4450059,20.2304099 C53.4450059,21.0916178 52.9908871,21.5841129 52.1601545,21.5841129 C51.329798,21.5841129 50.8756792,21.0916178 50.8756792,20.2304099 L50.8756792,17.4308257 Z" id="Fill-156" fill="#FEFEFE" mask="url(#mask-10)"></path>
            <polygon id="Fill-157" fill="#FEFEFE" mask="url(#mask-10)" points="54.9373149 17.6229703 54.9373149 21.5226733 54.1758099 21.5226733 54.1758099 16.1383366 55.2371762 16.1383366 56.1062851 19.3611881 56.1062851 16.1383366 56.8602653 16.1383366 56.8602653 21.5226733 55.9907802 21.5226733"></polygon>
            <polygon id="Fill-158" fill="#FEFEFE" mask="url(#mask-10)" points="57.660297 21.5226356 58.5064554 21.5226356 58.5064554 16.138299 57.660297 16.138299"></polygon>
            <path d="M60.1217941,19.8150059 L60.937101,19.8150059 L60.5292594,17.0921743 L60.1217941,19.8150059 Z M62.0522693,21.5227485 L61.1985861,21.5227485 L61.0526059,20.5456594 L60.0138139,20.5456594 L59.8678337,21.5227485 L59.090903,21.5227485 L59.9524871,16.1384119 L61.1910614,16.1384119 L62.0522693,21.5227485 Z" id="Fill-159" fill="#FEFEFE" mask="url(#mask-10)"></path>
        </g>
    </g>
</svg>