<?xml version="1.0" encoding="UTF-8"?>
<svg width="100px" height="50px" viewBox="0 0 100 50" version="1.1" xmlns="http://www.w3.org/2000/svg" xmlns:xlink="http://www.w3.org/1999/xlink">
    <!-- Generator: Sketch 57.1 (83088) - https://sketch.com -->
    <title>partners logos</title>
    <desc>Created with Sketch.</desc>
    <defs>
        <polygon id="path-1" points="0.0651840909 0.00365909091 17.7085364 0.00365909091 17.7085364 8.52683182 0.0651840909 8.52683182"></polygon>
    </defs>
    <g id="partners-logos" stroke="none" stroke-width="1" fill="none" fill-rule="evenodd">
        <g id="MacKinsey" transform="translate(13.000000, 14.000000)">
            <path d="M1.07715795,1.32678636 C1.07715795,1.15141136 0.585532955,0.683047727 0.421657955,0.683047727 L7.84090909e-05,0.683047727 L7.84090909e-05,0.261468182 L2.4819875,0.261468182 L5.03420341,6.68892273 L5.09301023,6.68892273 L7.78557841,0.261468182 L10.0100443,0.261468182 L10.0100443,0.683047727 L9.58846477,0.683047727 C9.42458977,0.683047727 8.93296477,1.15141136 8.93296477,1.32678636 L8.93296477,7.71921818 C8.93296477,7.89485455 9.42458977,8.36295682 9.58846477,8.36295682 L10.0100443,8.36295682 L10.0100443,8.78453636 L6.70849886,8.78453636 L6.70849886,8.36295682 L7.13007841,8.36295682 C7.29395341,8.36295682 7.78557841,7.89485455 7.78557841,7.71921818 L7.78557841,1.51418409 L4.68293068,8.93691136 L1.58054432,1.38533182 L1.58054432,7.71921818 C1.58054432,7.89485455 2.07243068,8.36295682 2.23630568,8.36295682 L2.65762386,8.36295682 L2.65762386,8.78453636 L7.84090909e-05,8.78453636 L7.84090909e-05,8.36295682 L0.421657955,8.36295682 C0.585532955,8.36295682 1.07715795,7.89485455 1.07715795,7.71921818 L1.07715795,1.32678636 Z" id="Fill-1" fill="#FFFFFF"></path>
            <path d="M13.597208,5.14347955 C13.7493216,4.28882045 13.6089693,3.51596818 12.660742,3.51596818 C11.5601398,3.51596818 11.0217307,4.39415 11.0217307,5.69365 C11.0217307,6.92310455 11.8058216,7.94163864 13.0702989,7.94163864 C14.0305489,7.94163864 14.4401057,7.60212727 14.8266625,6.95812727 L15.1659125,6.95812727 C14.8031398,8.16405909 14.0655716,8.92488864 12.6840034,8.92488864 C11.1503216,8.92488864 10.1553102,7.61388864 10.1553102,6.04492273 C10.1553102,4.26555909 11.337458,3.09465 12.7895943,3.09465 C13.6557534,3.09465 14.241208,3.36385455 14.7445943,3.86724091 L13.9367193,5.12021818 L13.597208,5.14347955 Z" id="Fill-3" fill="#FFFFFF"></path>
            <path d="M24.742433,1.94739432 C25.1522511,1.94739432 25.4567398,1.66642841 25.4567398,1.23334886 C25.4567398,0.800007955 25.1522511,0.530803409 24.742433,0.530803409 C24.3328761,0.530803409 24.0166261,0.800007955 24.0166261,1.23334886 C24.0166261,1.66642841 24.3328761,1.94739432 24.742433,1.94739432" id="Fill-5" fill="#FFFFFF"></path>
            <g id="Group-9" transform="translate(15.159091, 0.257809)">
                <mask id="mask-2" fill="white">
                    <use xlink:href="#path-1"></use>
                </mask>
                <g id="Clip-8"></g>
                <path d="M17.4275705,8.10525227 C17.2636955,8.10525227 16.8185932,7.70719545 16.8185932,7.51979773 L16.8185932,4.44067273 C16.8185932,3.49244545 16.1398318,2.86020682 15.2851727,2.86020682 C14.2899,2.86020682 13.7747523,3.4339 13.1074909,4.11292273 L12.8968318,2.97729773 L11.1522295,2.97729773 L11.1522295,3.39887727 L11.4917409,3.39887727 C11.6556159,3.39887727 12.1007182,3.80869545 12.1007182,3.98407045 L12.1007182,7.51979773 C12.1007182,7.70719545 11.6556159,8.10525227 11.4917409,8.10525227 L11.1522295,8.10525227 L10.8127182,8.10525227 C10.6603432,8.10525227 10.2037409,7.70719545 10.2037409,7.51979773 L10.2037409,2.97729773 L8.22521818,2.97729773 L8.22521818,3.39887727 L8.56472955,3.39887727 C8.72860455,3.39887727 9.17370682,3.80869545 9.17370682,3.98407045 L9.17370682,7.51979773 C9.17370682,7.70719545 8.72860455,8.10525227 8.56472955,8.10525227 L8.22521818,8.10525227 L7.94425227,8.10525227 C7.76861591,8.10525227 7.07783182,7.57834318 6.93747955,7.39120682 L3.95218409,3.42213864 L6.024275,1.19767273 C6.14136591,1.06908182 6.94924091,0.425081818 7.11311591,0.425081818 L7.52293409,0.425081818 L7.52293409,0.00350227273 L4.43204773,0.00350227273 L4.43204773,0.425081818 L4.84186591,0.425081818 C5.00574091,0.425081818 5.48586591,1.010275 5.35701364,1.16291136 L2.31291136,4.558025 L2.31291136,1.06908182 C2.31291136,0.893445455 2.80479773,0.425081818 2.96867273,0.425081818 L3.39025227,0.425081818 L3.39025227,0.00350227273 L0.0651840909,0.00350227273 L0.0651840909,0.425081818 L0.486502273,0.425081818 C0.650638636,0.425081818 1.14226364,0.893445455 1.14226364,1.06908182 L1.14226364,7.46125227 C1.14226364,7.63688864 0.650638636,8.10525227 0.486502273,8.10525227 L0.0651840909,8.10525227 L0.0651840909,8.52683182 L3.39025227,8.52683182 L3.39025227,8.10525227 L2.96867273,8.10525227 C2.80479773,8.10525227 2.31291136,7.63688864 2.31291136,7.46125227 L2.31291136,5.20176364 L3.17933182,4.26529773 L6.12960455,8.52683182 L8.22521818,8.52683182 L11.1522295,8.52683182 L14.0439568,8.52683182 L14.0439568,8.10525227 L13.7279682,8.10525227 C13.5640932,8.10525227 13.1192523,7.70719545 13.1192523,7.51979773 L13.1192523,4.69837727 C13.1192523,4.32384318 14.1377864,3.55099091 14.9221386,3.55099091 C15.5193545,3.55099091 15.8000591,3.96080909 15.8000591,4.49921818 L15.8000591,7.51979773 C15.8000591,7.70719545 15.3552182,8.10525227 15.1913432,8.10525227 L14.8750932,8.10525227 L14.8750932,8.52683182 L17.7085364,8.52683182 L17.7085364,8.10525227 L17.4275705,8.10525227 Z" id="Fill-7" fill="#FFFFFF" mask="url(#mask-2)"></path>
            </g>
            <path d="M33.6146307,6.8410625 C33.6146307,7.35621023 34.3639602,8.4683125 35.5581307,8.4683125 C36.2489148,8.4683125 36.6352102,8.22263068 36.6352102,7.70748295 C36.6352102,7.08700568 36.0850398,6.87634659 35.5931534,6.66542614 C35.206858,6.50155114 34.8908693,6.37269886 34.4460284,6.17380114 C33.7785057,5.8693125 33.2751193,5.42447159 33.2751193,4.66338068 C33.2751193,3.66836932 33.8723352,3.09467614 34.9376534,3.09467614 C35.5463693,3.09467614 35.8858807,3.38740341 36.3074602,3.38740341 C36.4713352,3.38740341 36.5649034,3.35211932 36.6116875,3.23528977 L36.9161761,3.23528977 L36.9161761,4.94460795 L36.5766648,4.94460795 C36.5766648,4.48774432 35.9329261,3.51599432 34.9023693,3.51599432 C34.2586307,3.51599432 33.954142,3.79722159 33.954142,4.25382386 C33.954142,4.7336875 34.281892,4.90932386 34.8555852,5.15500568 C35.2771648,5.33090341 35.5931534,5.47125568 36.0497557,5.64689205 C36.6469716,5.88107386 37.3259943,6.3609375 37.3259943,7.25088068 C37.3259943,8.3044375 36.6001875,8.92491477 35.5581307,8.92491477 C34.8555852,8.92491477 34.4460284,8.59716477 33.9659034,8.59716477 C33.743483,8.59716477 33.6849375,8.65571023 33.5443239,8.7845625 L33.2751193,8.7845625 L33.2751193,6.8410625 L33.6146307,6.8410625 Z" id="Fill-10" fill="#FFFFFF"></path>
            <path d="M41.2965261,5.10837841 C41.3900943,4.32402614 41.261242,3.5279125 40.1841625,3.5279125 C39.0367761,3.5279125 38.5801739,4.47613977 38.5454125,5.34256023 L41.2965261,5.10837841 Z M37.6669693,6.00982159 C37.6669693,4.37081023 38.779333,3.09457159 40.2076852,3.10633295 C41.4604011,3.11809432 42.1626852,3.97275341 42.2212307,5.04983295 L42.2447534,5.44788977 L38.5569125,5.74035568 C38.5569125,6.85271932 39.3297648,7.95332159 40.5824807,7.95332159 C41.530708,7.95332159 41.9640489,7.5902875 42.3032989,6.95831023 L42.6428102,6.95831023 C42.2800375,8.16398068 41.5892534,8.91331023 40.231208,8.91331023 C38.6857648,8.91331023 37.6669693,7.56702614 37.6669693,6.00982159 L37.6669693,6.00982159 Z" id="Fill-12" fill="#FFFFFF"></path>
            <path d="M43.1919091,4.28882045 C43.1101023,4.10142273 42.6182159,3.65658182 42.4776023,3.65658182 L42.2316591,3.65658182 L42.2316591,3.23526364 L45.1701705,3.23526364 L45.1701705,3.65658182 L44.8309205,3.65658182 C44.6785455,3.65658182 44.3392955,4.04313864 44.3392955,4.25379773 L45.6267727,7.21557045 L46.89125,4.26555909 C46.9030114,4.04313864 46.5635,3.65658182 46.411125,3.65658182 L46.0721364,3.65658182 L46.0721364,3.23526364 L48.2843182,3.23526364 L48.2843182,3.65658182 L48.0271364,3.65658182 C47.8982841,3.65658182 47.4999659,4.07816136 47.3831364,4.26555909 L45.4981818,8.51533182 L44.1048523,11.5826955 L43.6014659,11.3485136 L45.0768636,8.32793409 L43.1919091,4.28882045 Z" id="Fill-14" fill="#FFFFFF"></path>
            <path d="M16.101725,17.2831148 C16.101725,18.500808 17.4014864,19.6714557 18.6189182,19.6714557 C19.3797477,19.6714557 19.988725,19.4605352 20.4685886,19.0977625 C19.2276341,18.0324443 17.8460659,16.6976602 16.7810091,15.4802284 C16.3359068,15.9368307 16.101725,16.4051943 16.101725,17.2831148 M16.4647591,13.1854557 C16.4647591,13.8644784 16.9328614,14.4146489 17.6704295,14.6958761 C18.7710318,15.8782852 20.0940545,17.1310011 21.2529409,18.1610352 C21.5809523,17.6226261 21.6980432,17.048933 21.6980432,16.3463875 C21.6980432,15.5620352 21.1828955,15.0936716 20.3514977,15.0704102 L20.3514977,14.649092 L23.3720773,14.649092 L23.3720773,15.0704102 L23.0443273,15.0704102 C22.8804523,15.0704102 22.2949977,15.7376716 22.2832364,15.9951148 C22.259975,16.721183 22.0608159,17.6226261 21.5224068,18.3954784 C22.1428841,18.9338875 22.7633614,19.4372739 23.2549864,19.7767852 L23.7701341,19.7767852 L23.7701341,20.1981034 L22.8451682,20.1981034 C22.0140318,20.1981034 21.4285773,19.9759443 20.7262932,19.3319443 C20.0472705,19.9877057 19.18085,20.3504784 17.9281341,20.3504784 C16.5468273,20.3504784 15.2238045,19.3319443 15.2238045,17.8332852 C15.2238045,16.6508761 15.8207591,15.784717 16.59335,15.2460466 C16.1835318,14.7191375 15.9028273,14.2157511 15.9028273,13.4661602 C15.9028273,12.2487284 16.6986795,11.569967 17.9516568,11.569967 C18.7360091,11.569967 19.1455659,11.8274102 19.5086,11.8274102 C19.6957364,11.8274102 19.8130886,11.8159102 19.9066568,11.6752966 L20.2696909,11.6752966 L20.2696909,13.688842 L19.9066568,13.688842 C19.9066568,13.1151489 19.0637591,11.9677625 17.9281341,11.9677625 C17.0149295,11.9677625 16.4647591,12.4126034 16.4647591,13.1854557" id="Fill-16" fill="#FFFFFF"></path>
            <path d="M32.5200398,14.6957716 C32.5200398,13.8178511 31.5367898,12.0382261 29.9328011,12.0382261 C28.4576648,12.0382261 27.579483,12.8578625 27.4273693,14.7775784 C27.3688239,15.526908 27.3923466,16.1941693 27.4506307,16.9437602 C27.5912443,18.4303966 28.6215398,19.6595898 30.3541193,19.6595898 C31.829517,19.6595898 32.5435625,19.0393739 33.093733,17.9152489 L33.5385739,17.9152489 C32.9884034,19.4374307 31.794233,20.3506352 30.0966761,20.3506352 C27.6497898,20.3506352 26.0693239,18.3368284 26.0693239,15.901442 C26.0693239,13.466317 27.4976761,11.5230784 29.886017,11.5230784 C30.7992216,11.5230784 31.3729148,11.8976125 32.0401761,11.8976125 C32.3093807,11.8976125 32.438233,11.8273057 32.5668239,11.675192 L32.8830739,11.675192 L32.8830739,14.6957716 L32.5200398,14.6957716 Z" id="Fill-18" fill="#FFFFFF"></path>
            <path d="M38.5034636,18.3484591 C38.5737705,17.7865273 38.5737705,17.0254364 38.5034636,16.4635045 C38.3981341,15.5738227 37.9065091,14.9768682 36.8759523,14.9768682 C35.8809409,14.9768682 35.3775545,15.5738227 35.2487023,16.4517432 C35.1666341,16.9904136 35.1666341,17.7865273 35.2487023,18.3366977 C35.3775545,19.1913568 35.8574182,19.8238568 36.8759523,19.8238568 C37.9180091,19.8238568 38.3981341,19.2146182 38.5034636,18.3484591 M34.1130773,17.4234932 C34.1130773,15.6321068 35.4008159,14.5085045 36.8644523,14.5085045 C38.3278273,14.5085045 39.6158273,15.6321068 39.6158273,17.4234932 C39.6158273,19.2146182 38.3278273,20.3505045 36.8644523,20.3505045 C35.4008159,20.3505045 34.1130773,19.2146182 34.1130773,17.4234932" id="Fill-20" fill="#FFFFFF"></path>
            <path d="M48.59325,19.1912784 C48.59325,19.3786761 49.0145682,19.776733 49.1784432,19.776733 L49.4364091,19.776733 L49.4364091,20.1983125 L46.6730114,20.1983125 L46.6730114,19.776733 L46.9892614,19.776733 C47.1531364,19.776733 47.5747159,19.3786761 47.5747159,19.1912784 L47.5747159,16.1124148 C47.5747159,15.5737443 47.30525,15.1992102 46.7082955,15.1992102 C45.9824886,15.1992102 45.0810455,15.9014943 45.0810455,16.2762898 L45.0810455,19.1912784 C45.0810455,19.3786761 45.502625,19.776733 45.6665,19.776733 L45.9824886,19.776733 L45.9824886,20.1983125 L43.1610682,20.1983125 L43.1610682,19.776733 L43.4770568,19.776733 C43.6409318,19.776733 44.0625114,19.3786761 44.0625114,19.1912784 L44.0625114,16.1124148 C44.0625114,15.5737443 43.7815455,15.1992102 43.1843295,15.1992102 C42.4585227,15.1992102 41.5568182,15.9367784 41.5568182,16.3113125 L41.5568182,19.1912784 C41.5568182,19.3786761 41.9783977,19.776733 42.1422727,19.776733 L42.4585227,19.776733 L42.4585227,20.1983125 L39.6368409,20.1983125 L39.6368409,19.776733 L39.9528295,19.776733 C40.1167045,19.776733 40.5385455,19.3786761 40.5385455,19.1912784 L40.5385455,15.6558125 C40.5385455,15.4801761 40.1167045,15.070358 39.9528295,15.070358 L39.6368409,15.070358 L39.6368409,14.6490398 L41.3346591,14.6490398 L41.5568182,15.7140966 C42.1893182,15.0470966 42.598875,14.5319489 43.570625,14.5319489 C44.3081932,14.5319489 44.9286705,14.9297443 45.0342614,15.7025966 C45.7130227,15.0353352 46.1463636,14.5437102 47.0830909,14.5437102 C47.9142273,14.5437102 48.59325,15.105642 48.59325,16.1124148 L48.59325,19.1912784 Z" id="Fill-22" fill="#FFFFFF"></path>
            <path d="M51.2487568,16.6743727 L51.2487568,18.1262477 C51.2487568,18.9924068 51.9162795,19.7297136 52.8527455,19.7297136 C53.8012341,19.7297136 54.246075,19.1327591 54.3629045,18.2548386 C54.4334727,17.7279295 54.4449727,17.1192136 54.3746659,16.6040659 C54.257575,15.7258841 53.7777114,15.1642136 52.9815977,15.1642136 C52.0448705,15.1642136 51.5179614,15.8082136 51.2487568,16.6743727 L51.2487568,16.6743727 Z M51.0731205,14.6490659 L51.2605182,15.7846909 C51.7406432,14.8947477 52.3493591,14.5084523 53.2625636,14.5084523 C54.6085864,14.5084523 55.4284841,15.6440773 55.4284841,17.3416341 C55.4284841,19.0394523 54.4917568,20.3154295 53.1454727,20.3154295 C52.1737227,20.3154295 51.658575,19.9406341 51.2605182,19.2265886 L51.2605182,21.8726341 C51.2605182,22.0597705 51.6935977,22.4578273 51.8457114,22.4578273 L52.2090068,22.4578273 L52.2090068,22.8791455 L49.2819955,22.8791455 L49.2819955,22.4578273 L49.6447682,22.4578273 C49.8086432,22.4578273 50.2304841,22.0597705 50.2304841,21.8726341 L50.2304841,15.6558386 C50.2304841,15.4802023 49.8086432,15.0703841 49.6447682,15.0703841 L49.2819955,15.0703841 L49.2819955,14.6490659 L51.0731205,14.6490659 Z" id="Fill-24" fill="#FFFFFF"></path>
            <path d="M59.2170284,18.5710364 C58.9828466,18.9805932 58.397392,19.5427864 57.858983,19.5427864 C57.3088125,19.5427864 56.9693011,19.1327068 56.9693011,18.6528432 C56.9693011,18.1026727 57.203483,17.7278773 57.8940057,17.5525023 L59.2170284,17.2129909 L59.2170284,18.5710364 Z M67.4476307,19.7767068 C67.2837557,19.7767068 66.8386534,19.37865 66.8386534,19.1912523 L66.8386534,16.1123886 C66.8386534,15.1641614 66.1596307,14.5319227 65.305233,14.5319227 C64.3099602,14.5319227 63.7948125,15.1053545 63.1275511,15.7846386 L62.9166307,14.6490136 L61.1722898,14.6490136 L61.1722898,15.0700705 L61.5118011,15.0700705 C61.6756761,15.0700705 62.120517,15.48015 62.120517,15.6557864 L62.120517,19.1912523 C62.120517,19.37865 61.6756761,19.7767068 61.5118011,19.7767068 L61.1722898,19.7767068 L60.8445398,19.7767068 C60.6924261,19.7767068 60.2355625,19.37865 60.2355625,19.1912523 L60.2355625,16.1709341 C60.2355625,15.0820932 59.357642,14.5201614 58.1634716,14.5201614 C57.039608,14.5201614 56.395608,14.9064568 55.9390057,15.3748205 L56.6765739,16.4869227 L57.0746307,16.4869227 C56.6648125,15.5386955 56.9693011,14.9297182 57.9175284,14.9297182 C58.9128011,14.9297182 59.2287898,15.3748205 59.2170284,16.1589114 L59.205267,16.8499568 L57.7769148,17.1426841 C56.9925625,17.3065591 55.9857898,17.6928545 55.9857898,18.7934568 C55.9857898,19.6949 56.6297898,20.3036159 57.3908807,20.3036159 C58.2099943,20.3036159 58.7957102,19.6598773 59.2405511,19.0861841 L59.3811648,20.1982864 L61.1722898,20.1982864 L64.064017,20.1982864 L64.064017,19.7767068 L63.7480284,19.7767068 C63.583892,19.7767068 63.1393125,19.37865 63.1393125,19.1912523 L63.1393125,16.3698318 C63.1393125,15.9952977 64.1575852,15.2224455 64.9421989,15.2224455 C65.5391534,15.2224455 65.8203807,15.6322636 65.8203807,16.1709341 L65.8203807,19.1912523 C65.8203807,19.37865 65.3752784,19.7767068 65.2114034,19.7767068 L64.8954148,19.7767068 L64.8954148,20.1982864 L67.7283352,20.1982864 L67.7283352,19.7767068 L67.4476307,19.7767068 Z" id="Fill-26" fill="#FFFFFF"></path>
            <path d="M68.1350432,15.702675 C68.0532364,15.5152773 67.5616114,15.0704364 67.4209977,15.0704364 L67.1750545,15.0704364 L67.1750545,14.6491182 L70.1135659,14.6491182 L70.1135659,15.0704364 L69.7740545,15.0704364 C69.6219409,15.0704364 69.2824295,15.4569932 69.2824295,15.6673909 L70.5701682,18.629425 L71.8346455,15.6791523 C71.8464068,15.4569932 71.5066341,15.0704364 71.3545205,15.0704364 L71.0152705,15.0704364 L71.0152705,14.6491182 L73.2277136,14.6491182 L73.2277136,15.0704364 L72.9702705,15.0704364 C72.8414182,15.0704364 72.4433614,15.4917545 72.3262705,15.6791523 L70.4413159,19.928925 L69.0482477,22.9962886 L68.5446,22.7623682 L70.0199977,19.7417886 L68.1350432,15.702675 Z" id="Fill-28" fill="#FFFFFF"></path>
        </g>
    </g>
</svg>