<?xml version="1.0" encoding="UTF-8"?>
<svg width="100px" height="50px" viewBox="0 0 100 50" version="1.1" xmlns="http://www.w3.org/2000/svg" xmlns:xlink="http://www.w3.org/1999/xlink">
    <!-- Generator: Sketch 57.1 (83088) - https://sketch.com -->
    <title>partners logos</title>
    <desc>Created with Sketch.</desc>
    <defs>
        <polygon id="path-1" points="0.00135652174 0.198052174 2.09005217 0.198052174 2.09005217 2.08695652 0.00135652174 2.08695652"></polygon>
    </defs>
    <g id="partners-logos" stroke="none" stroke-width="1" fill="none" fill-rule="evenodd">
        <g id="montea" transform="translate(27.000000, 13.000000)">
            <polygon id="Fill-1" fill="#FEFEFE" points="23.5612174 0 23.5612174 12.1081739 26.0516522 11.8434783 26.0516522 6.05426087 30.8853913 6.05426087 30.8853913 11.3290435 33.1309565 11.090087 33.1309565 6.05426087 37.7692174 6.05426087 37.7692174 10.5968696 40.0641739 10.3530435 40.0641739 6.05426087 44.1163478 6.05426087 44.1163478 9.92173913 46.5083478 9.66713043 46.5083478 2.49043478"></polygon>
            <polygon id="Fill-2" fill="#FEFEFE" points="21.3639652 0.224452174 21.3639652 11.8940174 22.4870957 12.0035826 22.4870957 0.101321739"></polygon>
            <polygon id="Fill-3" fill="#FEFEFE" points="19.0206957 11.6570783 20.1438261 11.7687304 20.1438261 0.358643478 19.0206957 0.473078261"></polygon>
            <polygon id="Fill-4" fill="#FEFEFE" points="16.5793043 11.3945043 17.7024348 11.5176348 17.7024348 0.609808696 16.5793043 0.732243478"></polygon>
            <polygon id="Fill-5" fill="#FEFEFE" points="14.2357217 11.1487652 15.3588522 11.2715478 15.3588522 0.862504348 14.2357217 0.9832"></polygon>
            <polygon id="Fill-6" fill="#FEFEFE" points="11.7944696 10.8972174 12.9176 11.0144348 12.9176 1.12956522 11.7944696 1.24434783"></polygon>
            <polygon id="Fill-7" fill="#FEFEFE" points="9.45092174 10.6513043 10.5740522 10.7629565 10.5740522 1.3813913 9.45092174 1.4986087"></polygon>
            <polygon id="Fill-8" fill="#FEFEFE" points="7.0101913 10.3943304 8.13332174 10.5004174 8.13332174 1.64024348 7.0101913 1.76302609"></polygon>
            <polygon id="Fill-9" fill="#FEFEFE" points="4.6666087 10.1465391 5.78973913 10.2658435 5.78973913 1.89227826 4.6666087 2.01262609"></polygon>
            <polygon id="Fill-10" fill="#FEFEFE" points="2.37175652 9.90827826 3.50149565 10.0310609 3.49488696 2.1354087 2.37175652 2.2581913"></polygon>
            <polygon id="Fill-11" fill="#FEFEFE" points="0.0313043478 2.50998261 0.028173913 9.66789565 1.15130435 9.77989565 1.15443478 2.38685217"></polygon>
            <polygon id="Fill-12" fill="#FEFEFE" points="6.19074783 15.1084174 3.64744348 17.9793739 2.22274783 16.4058087 1.03596522 15.1084174 0.000139130435 15.1084174 0.000139130435 19.8538087 1.03596522 19.8538087 1.03596522 16.7567652 1.01683478 16.5873739 0.991791304 16.4058087 1.07909565 16.5873739 1.2050087 16.7567652 3.40848696 19.277113 3.66622609 19.277113 4.80883478 17.9793739 5.75631304 16.9066783 5.84466087 16.7936348 5.95144348 16.625287 6.06448696 16.4058087 6.0397913 16.6625043 6.0397913 16.7567652 6.02031304 19.8538087 7.22587826 19.8538087 7.22587826 16.4058087 7.22587826 15.1084174"></polygon>
            <path d="M9.97008696,18.9633739 L14.2212174,18.9633739 L14.2212174,15.9414609 L9.97008696,15.9414609 L9.97008696,18.9633739 Z M15.4514783,15.7153739 L15.2758261,15.3647652 L14.9363478,15.1762435 L14.4153043,15.1084174 L10.0584348,15.1084174 L9.45565217,15.1449391 L9.04104348,15.2705043 L8.80904348,15.5529391 L8.69634783,15.9978087 L8.69634783,16.217287 L8.69634783,18.7192 L8.73913043,19.2392 L8.9346087,19.5783304 L9.28,19.7786783 L9.8013913,19.8538087 L14.1335652,19.8538087 L14.7422609,19.8162435 L15.149913,19.6656348 L15.4076522,19.3898087 L15.496,18.9633739 L15.5147826,18.7192 L15.5147826,16.2176348 L15.496,15.9418087 L15.4514783,15.7153739 Z" id="Fill-13" fill="#FEFEFE"></path>
            <polygon id="Fill-14" fill="#FEFEFE" points="23.3659826 18.2928 23.3659826 15.1084522 22.1983304 15.1084522 22.1983304 17.5901913 22.2164174 17.8663652 22.2421565 18.2928 22.0668522 18.2235826 21.8529391 18.0541913 21.6143304 17.9035826 19.737113 16.5498435 17.7346783 15.1084522 16.849113 15.1084522 16.849113 19.8538435 18.0105043 19.8538435 18.0105043 17.2771478 17.9917217 16.994713 17.9482435 16.5498435 18.0978087 16.6813217 18.2494609 16.7933217 18.4004174 16.906713 22.481113 19.8538435 23.3659826 19.8538435"></polygon>
            <polygon id="Fill-15" fill="#FEFEFE" points="24.257113 15.9417391 26.8007652 15.9417391 26.8007652 19.8346087 28.0727652 19.8346087 28.0727652 15.9417391 30.6219826 15.9417391 30.6219826 15.1073043 24.257113 15.1073043"></polygon>
            <polygon id="Fill-16" fill="#FEFEFE" points="37.7353739 18.9634783 33.2898087 18.9634783 33.2898087 17.7784348 35.8578087 17.7784348 35.8578087 16.9565217 33.2898087 16.9565217 33.2898087 15.9036522 37.6661565 15.9036522 37.6661565 15.1085217 32.0150261 15.1085217 32.0150261 19.853913 37.7353739 19.853913"></polygon>
            <path d="M41.975687,15.1084174 L38.8313391,19.8538087 L40.1245565,19.8538087 L40.7711652,18.813113 L44.2873391,18.813113 L44.9332522,19.8538087 L46.4031652,19.8538087 L45.6873391,18.813113 L45.127687,17.9605913 L43.8351652,16.0158957 L43.2069913,15.1084174 L41.975687,15.1084174 Z M42.5610783,16.0158957 L43.7468174,17.9605913 L41.3113391,17.9605913 L42.5610783,16.0158957 Z" id="Fill-17" fill="#FEFEFE"></path>
            <g id="Group-75" transform="translate(0.000000, 21.902504)">
                <path d="M1.90573913,1.10598261 C1.79478261,1.04372174 1.54956522,1.00476522 1.17078261,0.990156522 C0.850086957,0.97693913 0.661217391,0.9592 0.603826087,0.93693913 C0.546782609,0.913634783 0.51826087,0.844069565 0.51826087,0.729634783 C0.51826087,0.631895652 0.55373913,0.568591304 0.624,0.537982609 C0.69426087,0.508417391 0.843478261,0.493113043 1.07234783,0.493113043 C1.26573913,0.493113043 1.38852174,0.505982609 1.44069565,0.532417391 C1.49286957,0.558504348 1.52452174,0.622852174 1.53565217,0.725113043 C1.53565217,0.733113043 1.5373913,0.745634783 1.53947826,0.762678261 L2.01113043,0.762678261 L2.01113043,0.69346087 C2.01113043,0.504591304 1.94504348,0.377982609 1.81182609,0.31293913 C1.67895652,0.247895652 1.42086957,0.2152 1.0386087,0.2152 C0.634782609,0.2152 0.365217391,0.250330435 0.230608696,0.321634783 C0.0963478261,0.392243478 0.0285217391,0.533808696 0.0285217391,0.746678261 C0.0285217391,0.954678261 0.0845217391,1.09067826 0.195826087,1.15363478 C0.308173913,1.21763478 0.565217391,1.25728696 0.967304348,1.27398261 L1.23408696,1.28650435 C1.384,1.29311304 1.48208696,1.31015652 1.52765217,1.33902609 C1.57252174,1.36789565 1.59513043,1.42667826 1.59513043,1.51467826 C1.59513043,1.63398261 1.56591304,1.7098087 1.50573913,1.7432 C1.4466087,1.77589565 1.30852174,1.79224348 1.09252174,1.79224348 C0.815652174,1.79224348 0.645565217,1.77833043 0.584,1.7498087 C0.52173913,1.72163478 0.490434783,1.64337391 0.490434783,1.51606957 L0.488695652,1.47711304 L0.0191304348,1.47711304 L0.0212173913,1.54424348 C0.0212173913,1.75641739 0.0866086957,1.89624348 0.21773913,1.9658087 C0.348521739,2.03572174 0.614608696,2.0698087 1.01426087,2.0698087 C1.45913043,2.0698087 1.74643478,2.03502609 1.87686957,1.96372174 C2.00765217,1.89346087 2.07269565,1.7365913 2.07269565,1.49485217 C2.07269565,1.29798261 2.01704348,1.16824348 1.90573913,1.10598261" id="Fill-18" fill="#FEFEFE"></path>
                <g id="Group-22">
                    <mask id="mask-2" fill="white">
                        <use xlink:href="#path-1"></use>
                    </mask>
                    <g id="Clip-21"></g>
                    <path d="M0.0368347826,1.4944 L0.038226087,1.5437913 C0.038226087,1.75074783 0.0997913043,1.88396522 0.225704348,1.95074783 C0.35266087,2.01822609 0.617704348,2.05266087 1.01422609,2.05266087 C1.45492174,2.05266087 1.74222609,2.01753043 1.86883478,1.94866087 C1.99266087,1.88187826 2.05561739,1.72918261 2.05561739,1.49474783 C2.05561739,1.30553043 2.0024,1.17996522 1.89735652,1.12083478 C1.78918261,1.06031304 1.54466087,1.02205217 1.17005217,1.00709565 C0.845182609,0.994226087 0.657704348,0.97613913 0.597530435,0.952834783 C0.533530435,0.926747826 0.501182609,0.851617391 0.501182609,0.729530435 C0.501182609,0.625182609 0.54013913,0.555617391 0.617008696,0.522226087 C0.6904,0.491617391 0.843443478,0.475965217 1.07231304,0.475965217 C1.27022609,0.475965217 1.39335652,0.489182609 1.44831304,0.517008696 C1.50605217,0.545530435 1.54118261,0.615095652 1.55266087,0.723269565 C1.55266087,0.729530435 1.55335652,0.736834783 1.55474783,0.745530435 L1.99405217,0.745530435 L1.99405217,0.693704348 C1.99405217,0.510052174 1.9317913,0.390747826 1.80448696,0.32813913 C1.67405217,0.264486957 1.41631304,0.232486957 1.03857391,0.232486957 C0.638573913,0.232486957 0.369704348,0.267617391 0.238573913,0.336834783 C0.110573913,0.403965217 0.0455304348,0.542052174 0.0455304348,0.746921739 C0.0455304348,0.947269565 0.0990956522,1.07909565 0.20413913,1.13892174 C0.31266087,1.20048696 0.569704348,1.24013913 0.967965217,1.25683478 L1.23474783,1.26935652 C1.38987826,1.27596522 1.48866087,1.29405217 1.53666087,1.32466087 C1.58709565,1.35666087 1.61248696,1.4210087 1.61248696,1.51492174 C1.61248696,1.64187826 1.58013913,1.72153043 1.51405217,1.75805217 C1.45144348,1.79248696 1.31370435,1.80953043 1.09248696,1.80953043 C0.810052174,1.80953043 0.641356522,1.79492174 0.57666087,1.76535652 C0.507791304,1.73405217 0.473008696,1.65022609 0.473008696,1.51596522 L0.472313043,1.4944 L0.0368347826,1.4944 Z M1.01422609,2.08709565 C0.606573913,2.08709565 0.343269565,2.05231304 0.209704348,1.98066087 C0.0730086957,1.90866087 0.00379130435,1.76187826 0.00379130435,1.54413913 L0.00135652174,1.45996522 L0.505356522,1.45996522 L0.507443478,1.51561739 C0.507443478,1.63561739 0.535617391,1.7090087 0.590921739,1.73405217 C0.650052174,1.76153043 0.819095652,1.77509565 1.09248696,1.77509565 C1.30466087,1.77509565 1.4410087,1.75944348 1.49735652,1.7277913 C1.55161739,1.69787826 1.57805217,1.62831304 1.57805217,1.51492174 C1.57805217,1.43318261 1.55822609,1.37892174 1.51822609,1.35353043 C1.47613913,1.32709565 1.38013913,1.31005217 1.23335652,1.30344348 L0.966573913,1.29126957 C0.557182609,1.27387826 0.302226087,1.23387826 0.187443478,1.16848696 C0.070573913,1.10274783 0.0110956522,0.960486957 0.0110956522,0.746921739 C0.0110956522,0.52813913 0.0824,0.379965217 0.222573913,0.306226087 C0.360313043,0.233530435 0.627443478,0.198052174 1.03857391,0.198052174 C1.42153043,0.198052174 1.68413913,0.231443478 1.81944348,0.297530435 C1.95787826,0.365008696 2.02848696,0.498573913 2.02848696,0.693704348 L2.02848696,0.779965217 L1.52448696,0.779965217 L1.5224,0.765008696 C1.51996522,0.745530435 1.51857391,0.733356522 1.51857391,0.725356522 C1.50813913,0.631443478 1.47926957,0.570921739 1.4330087,0.547617391 C1.38361739,0.522921739 1.26187826,0.510052174 1.07231304,0.510052174 C0.847965217,0.510052174 0.699443478,0.525008696 0.630573913,0.553878261 C0.566573913,0.581356522 0.535617391,0.639095652 0.535617391,0.729530435 C0.535617391,0.836313043 0.56066087,0.90066087 0.610052174,0.920834783 C0.666052174,0.942747826 0.854921739,0.96013913 1.17144348,0.97266087 C1.55683478,0.987965217 1.79961739,1.02657391 1.91405217,1.09092174 C2.03092174,1.15631304 2.09005217,1.29231304 2.09005217,1.49474783 C2.09005217,1.74274783 2.02118261,1.90553043 1.88483478,1.97892174 C1.75196522,2.05161739 1.46674783,2.08709565 1.01422609,2.08709565 L1.01422609,2.08709565 Z" id="Fill-20" fill="#FEFEFE" mask="url(#mask-2)"></path>
                </g>
                <path d="M4.71057391,1.11972174 C4.65109565,1.15589565 4.51266087,1.17398261 4.29387826,1.17398261 L3.74396522,1.17398261 L3.74396522,0.522504348 L4.34222609,0.522504348 C4.54813913,0.522504348 4.67613913,0.540591304 4.72518261,0.577808696 C4.77422609,0.615026087 4.79892174,0.710330435 4.79892174,0.864765217 C4.79892174,0.998678261 4.76866087,1.08354783 4.71057391,1.11972174 M4.41318261,0.231373913 L4.28622609,0.231373913 L3.26118261,0.231373913 L3.26118261,2.05433043 L3.74396522,2.05433043 L3.74396522,1.46546087 L4.31231304,1.46546087 L4.42396522,1.46406957 C4.77213913,1.46406957 5.00309565,1.42372174 5.11718261,1.34406957 C5.23161739,1.26406957 5.2890087,1.10163478 5.2890087,0.857808696 C5.2890087,0.611547826 5.22883478,0.445982609 5.10918261,0.360069565 C4.98953043,0.274504348 4.75718261,0.231373913 4.41318261,0.231373913" id="Fill-23" fill="#FEFEFE"></path>
                <path d="M3.76118261,1.15676522 L4.29370435,1.15676522 C4.50831304,1.15676522 4.64535652,1.13937391 4.70170435,1.10528696 C4.75457391,1.07189565 4.78170435,0.9912 4.78170435,0.864591304 C4.78170435,0.717113043 4.75944348,0.625286957 4.71492174,0.591547826 C4.66935652,0.557113043 4.54413913,0.539721739 4.34205217,0.539721739 L3.76118261,0.539721739 L3.76118261,1.15676522 Z M4.29370435,1.1912 L3.72674783,1.1912 L3.72674783,0.505286957 L4.34205217,0.505286957 C4.55457391,0.505286957 4.68326957,0.524765217 4.7357913,0.564069565 C4.78970435,0.605113043 4.81613913,0.703547826 4.81613913,0.864591304 C4.81613913,1.00406957 4.78344348,1.09450435 4.71944348,1.13450435 C4.65718261,1.17241739 4.51770435,1.1912 4.29370435,1.1912 L4.29370435,1.1912 Z M3.2784,2.03711304 L3.72674783,2.03711304 L3.72674783,1.44824348 L4.4237913,1.44685217 C4.7664,1.44685217 4.99631304,1.40754783 5.10761739,1.32998261 C5.21648696,1.25346087 5.2717913,1.09485217 5.2717913,0.857982609 C5.2717913,0.619026087 5.21370435,0.456243478 5.09892174,0.374156522 C4.9824,0.290678261 4.7517913,0.248591304 4.4130087,0.248591304 L3.2784,0.248591304 L3.2784,2.03711304 Z M3.76118261,2.07154783 L3.24431304,2.07154783 L3.24431304,0.214156522 L4.4130087,0.214156522 C4.75909565,0.214156522 4.99666087,0.258678261 5.11909565,0.346330435 C5.24326957,0.435373913 5.30587826,0.6072 5.30587826,0.857982609 C5.30587826,1.10667826 5.24605217,1.27502609 5.12709565,1.35815652 C5.00848696,1.44093913 4.77857391,1.48128696 4.42413913,1.48128696 L4.31248696,1.48267826 L3.76118261,1.48267826 L3.76118261,2.07154783 Z" id="Fill-25" fill="#FEFEFE"></path>
                <path d="M6.54838261,1.44886957 L6.98073043,0.499652174 L7.42038261,1.44886957 L6.54838261,1.44886957 Z M6.61203478,0.231478261 L5.76577391,2.05443478 L6.27638261,2.05443478 L6.43464348,1.70417391 L7.53238261,1.70417391 L7.69481739,2.05443478 L8.19568696,2.05443478 L7.33690435,0.231478261 L6.61203478,0.231478261 Z" id="Fill-27" fill="#FEFEFE"></path>
                <path d="M6.57506087,1.43172174 L7.39384348,1.43172174 L6.98097391,0.540591304 L6.57506087,1.43172174 Z M7.4474087,1.46615652 L6.52184348,1.46615652 L6.98062609,0.458504348 L6.99627826,0.492243478 L7.4474087,1.46615652 Z M7.70584348,2.03728696 L8.1688,2.03728696 L7.32601739,0.248417391 L6.62306087,0.248417391 L5.79245217,2.03728696 L6.26549565,2.03728696 L6.42375652,1.68702609 L7.5434087,1.68702609 L7.70584348,2.03728696 Z M8.22271304,2.07137391 L7.68393043,2.07137391 L7.52149565,1.72146087 L6.44566957,1.72146087 L6.2874087,2.07137391 L5.73888696,2.07137391 L5.75001739,2.04702609 L6.6008,0.214330435 L7.34793043,0.214330435 L7.35245217,0.224069565 L8.22271304,2.07137391 Z" id="Fill-29" fill="#FEFEFE"></path>
                <path d="M10.8695652,1.4853913 C10.8695652,1.60643478 10.834087,1.68504348 10.7624348,1.72052174 C10.6914783,1.75634783 10.5353043,1.77408696 10.2956522,1.77408696 C10,1.77408696 9.8253913,1.74173913 9.77078261,1.67773913 C9.71721739,1.6133913 9.68973913,1.40678261 9.68973913,1.05791304 C9.68973913,0.798434783 9.72,0.643304348 9.78017391,0.590434783 C9.84069565,0.537913043 10.0205217,0.511478261 10.32,0.511478261 C10.5436522,0.511478261 10.6866087,0.528173913 10.7492174,0.561913043 C10.8118261,0.594956522 10.8434783,0.671478261 10.8434783,0.790782609 L10.8434783,0.83773913 L11.3283478,0.83773913 L11.3262609,0.796 C11.3262609,0.565043478 11.2650435,0.409913043 11.1436522,0.332347826 C11.0215652,0.254086957 10.7798261,0.215130435 10.4170435,0.215130435 C9.9186087,0.215130435 9.59165217,0.262782609 9.43478261,0.357391304 C9.27826087,0.452347826 9.2,0.65026087 9.2,0.951130435 C9.2,1.46243478 9.25773913,1.77652174 9.37321739,1.89373913 C9.48834783,2.01130435 9.79721739,2.06973913 10.2991304,2.06973913 C10.7415652,2.06973913 11.0274783,2.03321739 11.1565217,1.95843478 C11.2855652,1.88434783 11.3506087,1.72052174 11.3506087,1.4666087 L11.3506087,1.404 L10.8657391,1.404 L10.8695652,1.4853913 Z" id="Fill-31" fill="#FEFEFE"></path>
                <path d="M10.4169391,0.232347826 C9.92476522,0.232347826 9.59746087,0.279304348 9.44372174,0.372173913 C9.29346087,0.463304348 9.21728696,0.658086957 9.21728696,0.951304348 C9.21728696,1.45565217 9.27398261,1.76869565 9.38563478,1.88173913 C9.4965913,1.99513043 9.80372174,2.05252174 10.2993739,2.05252174 C10.737287,2.05252174 11.0228522,2.016 11.1480696,1.94365217 C11.2712,1.87304348 11.3334609,1.71269565 11.3334609,1.46678261 L11.3334609,1.42086957 L10.8837217,1.42086957 L10.8868522,1.48452174 C10.8868522,1.61321739 10.8475478,1.6973913 10.7703304,1.736 C10.6962435,1.77321739 10.5407652,1.79130435 10.2955478,1.79130435 C9.99224348,1.79130435 9.81624348,1.75791304 9.7578087,1.68904348 C9.70041739,1.62017391 9.6725913,1.41356522 9.6725913,1.05808696 C9.6725913,0.791652174 9.70424348,0.634434783 9.76893913,0.577391304 C9.83363478,0.521391304 10.0138087,0.49426087 10.3198957,0.49426087 C10.5484174,0.49426087 10.6917217,0.511304348 10.7574609,0.546782609 C10.8256348,0.582956522 10.8604174,0.665391304 10.8604174,0.790956522 L10.8604174,0.820521739 L11.3101565,0.820521739 L11.309113,0.796869565 C11.309113,0.572173913 11.2503304,0.420869565 11.1341565,0.346782609 C11.0158957,0.270956522 10.7745043,0.232347826 10.4169391,0.232347826 M10.2993739,2.08695652 C9.78702609,2.08695652 9.48024348,2.02782609 9.36093913,1.90573913 C9.24128696,1.78434783 9.18285217,1.472 9.18285217,0.951304348 C9.18285217,0.645217391 9.2645913,0.440695652 9.42563478,0.342608696 C9.58493913,0.246608696 9.91815652,0.197913043 10.4169391,0.197913043 C10.7863304,0.197913043 11.0270261,0.237217391 11.1529391,0.317913043 C11.2792,0.398956522 11.3435478,0.559652174 11.3435478,0.795826087 L11.3463304,0.854956522 L10.8263304,0.854956522 L10.8263304,0.790956522 C10.8263304,0.678956522 10.7974609,0.606956522 10.741113,0.577043478 C10.681287,0.544695652 10.5397217,0.528695652 10.3198957,0.528695652 C9.95433043,0.528695652 9.83085217,0.569391304 9.79154783,0.603130435 C9.73554783,0.652521739 9.70702609,0.805565217 9.70702609,1.05808696 C9.70702609,1.48486957 9.74911304,1.62434783 9.78424348,1.66678261 C9.81902609,1.70782609 9.93624348,1.75686957 10.2955478,1.75686957 C10.5320696,1.75686957 10.6865043,1.73947826 10.7550261,1.70504348 C10.8197217,1.67304348 10.8524174,1.59895652 10.8524174,1.48556522 L10.8475478,1.38678261 L11.3675478,1.38678261 L11.3675478,1.46678261 C11.3675478,1.72591304 11.2997217,1.89634783 11.165113,1.97356522 C11.0329391,2.04973913 10.7498087,2.08695652 10.2993739,2.08695652" id="Fill-33" fill="#FEFEFE"></path>
                <polygon id="Fill-35" fill="#FEFEFE" points="12.9210087 1.24744348 14.1137043 1.24744348 14.1137043 0.992486957 12.9210087 0.992486957 12.9210087 0.522573913 14.1787478 0.522573913 14.1787478 0.231443478 12.4382261 0.231443478 12.4382261 2.0544 14.1902261 2.0544 14.1902261 1.76326957 12.9210087 1.76326957"></polygon>
                <path d="M12.4554783,2.03735652 L14.1730435,2.03735652 L14.1730435,1.78031304 L12.9038261,1.78031304 L12.9038261,1.2304 L14.0965217,1.2304 L14.0965217,1.00953043 L12.9038261,1.00953043 L12.9038261,0.505530435 L14.1615652,0.505530435 L14.1615652,0.248486957 L12.4554783,0.248486957 L12.4554783,2.03735652 Z M14.2074783,2.0717913 L12.4210435,2.0717913 L12.4210435,0.214052174 L14.1956522,0.214052174 L14.1956522,0.539617391 L12.9382609,0.539617391 L12.9382609,0.975095652 L14.1309565,0.975095652 L14.1309565,1.26448696 L12.9382609,1.26448696 L12.9382609,1.74622609 L14.2074783,1.74622609 L14.2074783,2.0717913 Z" id="Fill-37" fill="#FEFEFE"></path>
                <polygon id="Fill-39" fill="#FEFEFE" points="16.9673739 2.05450435 17.4505043 2.05450435 17.4505043 1.30528696 18.5906783 1.30528696 18.5906783 1.0138087 17.4505043 1.0138087 17.4505043 0.522678261 18.6525913 0.522678261 18.6525913 0.2312 16.9673739 0.2312"></polygon>
                <path d="M16.9845217,2.03735652 L17.4332174,2.03735652 L17.4332174,1.28813913 L18.5733913,1.28813913 L18.5733913,1.03109565 L17.4332174,1.03109565 L17.4332174,0.505530435 L18.6353043,0.505530435 L18.6353043,0.248486957 L16.9845217,0.248486957 L16.9845217,2.03735652 Z M17.4676522,2.0717913 L16.950087,2.0717913 L16.950087,0.214052174 L18.6697391,0.214052174 L18.6697391,0.539617391 L17.4676522,0.539617391 L17.4676522,0.99666087 L18.6078261,0.99666087 L18.6078261,1.32222609 L17.4676522,1.32222609 L17.4676522,2.0717913 Z" id="Fill-41" fill="#FEFEFE"></path>
                <path d="M21.0185043,1.68393043 C20.9586783,1.74375652 20.7795478,1.77401739 20.4793739,1.77401739 C20.1666783,1.77401739 19.9781565,1.74723478 19.9145043,1.69366957 C19.8501565,1.64010435 19.8181565,1.48253913 19.8181565,1.22132174 C19.8181565,0.867234783 19.8456348,0.661321739 19.9002435,0.601147826 C19.9545043,0.541321739 20.1437217,0.511408696 20.4682435,0.511408696 C20.7816348,0.511408696 20.9663304,0.539234783 21.0230261,0.595234783 C21.0797217,0.650886957 21.1075478,0.831408696 21.1075478,1.1368 C21.1075478,1.44149565 21.0776348,1.6234087 21.0185043,1.68393043 M20.5058087,0.21506087 C19.9865043,0.21506087 19.6605913,0.27106087 19.5270261,0.382365217 C19.3945043,0.493321739 19.3280696,0.766713043 19.3280696,1.20045217 C19.3280696,1.56636522 19.3958957,1.8021913 19.5312,1.90897391 C19.6668522,2.0168 19.9656348,2.06966957 20.4275478,2.06966957 C20.9405913,2.06966957 21.2640696,2.01575652 21.3976348,1.90758261 C21.5308522,1.79906087 21.5976348,1.5354087 21.5976348,1.11801739 C21.5976348,0.735756522 21.5315478,0.489843478 21.3983304,0.379930435 C21.2654609,0.269669565 20.9677217,0.21506087 20.5058087,0.21506087" id="Fill-43" fill="#FEFEFE"></path>
                <path d="M20.4683826,0.528521739 C20.0725565,0.528521739 19.947687,0.574434783 19.9129043,0.612695652 C19.8774261,0.651652174 19.8353391,0.789043478 19.8353391,1.2213913 C19.8353391,1.476 19.8656,1.63043478 19.9254261,1.68052174 C19.9856,1.73130435 20.1720348,1.75704348 20.479513,1.75704348 C20.8443826,1.75704348 20.967513,1.71043478 21.0064696,1.67182609 C21.0621217,1.61478261 21.0902957,1.4346087 21.0902957,1.13686957 C21.0902957,0.837391304 21.063513,0.659304348 21.0109913,0.607478261 C20.9744696,0.571304348 20.8502957,0.528521739 20.4683826,0.528521739 M20.479513,1.79113043 C20.1591652,1.79113043 19.9706435,1.76365217 19.9031652,1.7066087 C19.8342957,1.64921739 19.8009043,1.4906087 19.8009043,1.2213913 C19.8009043,0.860695652 19.8290783,0.65373913 19.887513,0.58973913 C19.9459478,0.525391304 20.1358609,0.494086957 20.4683826,0.494086957 C20.7887304,0.494086957 20.9741217,0.523304348 21.0349913,0.582782609 C21.0951652,0.64226087 21.1247304,0.823478261 21.1247304,1.13686957 C21.1247304,1.44852174 21.0937739,1.63113043 21.0308174,1.69582609 C20.9664696,1.76017391 20.7862957,1.79113043 20.479513,1.79113043 M20.5059478,0.232173913 C19.9932522,0.232173913 19.667687,0.287478261 19.5382957,0.395652174 C19.4102957,0.502434783 19.3452522,0.773391304 19.3452522,1.20052174 C19.3452522,1.55843478 19.4113391,1.79217391 19.5417739,1.89582609 C19.6732522,1.99982609 19.9713391,2.05269565 20.427687,2.05269565 C20.9344696,2.05269565 21.2572522,1.99947826 21.3866435,1.89408696 C21.5153391,1.7893913 21.5803826,1.52852174 21.5803826,1.11808696 C21.5803826,0.743130435 21.515687,0.499304348 21.387687,0.393217391 C21.2589913,0.286434783 20.9622957,0.232173913 20.5059478,0.232173913 M20.427687,2.08678261 C19.9567304,2.08678261 19.6600348,2.03321739 19.5202087,1.9226087 C19.3814261,1.81234783 19.3108174,1.56956522 19.3108174,1.20052174 C19.3108174,0.756695652 19.3779478,0.484695652 19.5160348,0.369217391 C19.6541217,0.254086957 19.9776,0.198086957 20.5059478,0.198086957 C20.9772522,0.198086957 21.2729043,0.253043478 21.4096,0.366782609 C21.547687,0.481217391 21.6148174,0.726782609 21.6148174,1.11808696 C21.6148174,1.53930435 21.5452522,1.80956522 21.4085565,1.92052174 C21.2704696,2.03252174 20.9497739,2.08678261 20.427687,2.08678261" id="Fill-45" fill="#FEFEFE"></path>
                <path d="M23.9583652,1.08525217 C23.9041043,1.12733913 23.7945391,1.14890435 23.6289739,1.14890435 L22.9357565,1.14890435 L22.9357565,0.522469565 L23.662713,0.522469565 C23.8209739,0.522469565 23.9225391,0.5416 23.9694957,0.579165217 C24.0161043,0.617078261 24.0394087,0.700904348 24.0394087,0.83133913 C24.0394087,0.958295652 24.0119304,1.04281739 23.9583652,1.08525217 M24.4404522,1.14612174 C24.5002783,1.07829565 24.5291478,0.952382609 24.5291478,0.768382609 C24.5291478,0.565252174 24.4700174,0.425078261 24.3528,0.347165217 C24.2338435,0.2696 24.0192348,0.23133913 23.7072348,0.23133913 L22.4533217,0.23133913 L22.4533217,2.05464348 L22.9357565,2.05464348 L22.9357565,1.44038261 L23.6314087,1.44038261 C23.8891478,1.44038261 24.018887,1.53394783 24.018887,1.72142609 L24.018887,2.05464348 L24.5016696,2.05464348 L24.5016696,1.65255652 C24.5016696,1.42925217 24.3604522,1.3109913 24.078713,1.29846957 L24.078713,1.28629565 C24.2609739,1.26055652 24.3823652,1.21394783 24.4404522,1.14612174" id="Fill-47" fill="#FEFEFE"></path>
                <path d="M22.9527652,1.1317913 L23.6289391,1.1317913 C23.789287,1.1317913 23.8964174,1.11161739 23.9478957,1.07161739 C23.9969391,1.03266087 24.0223304,0.951617391 24.0223304,0.831269565 C24.0223304,0.707095652 24.0007652,0.626747826 23.9586783,0.592313043 C23.9152,0.557530435 23.8153739,0.539791304 23.6630261,0.539791304 L22.9527652,0.539791304 L22.9527652,1.1317913 Z M23.6289391,1.16622609 L22.9183304,1.16622609 L22.9183304,0.505356522 L23.6630261,0.505356522 C23.8258087,0.505356522 23.9298087,0.525182609 23.9802435,0.565878261 C24.0317217,0.607617391 24.0564174,0.694573913 24.0564174,0.831269565 C24.0564174,0.962747826 24.0272,1.05283478 23.969113,1.09874783 C23.9103304,1.14431304 23.7993739,1.16622609 23.6289391,1.16622609 L23.6289391,1.16622609 Z M24.0362435,2.03753043 L24.4845913,2.03753043 L24.4845913,1.65248696 C24.4845913,1.43787826 24.3513739,1.32761739 24.0779826,1.31544348 L24.0616348,1.31474783 L24.0616348,1.27126957 L24.0762435,1.26953043 C24.2543304,1.24413913 24.3725913,1.19892174 24.4275478,1.13492174 C24.4835478,1.07126957 24.5120696,0.947791304 24.5120696,0.768313043 C24.5120696,0.572834783 24.4553739,0.435791304 24.3433739,0.361704348 C24.2282435,0.286573913 24.0143304,0.248313043 23.7072,0.248313043 L22.4703304,0.248313043 L22.4703304,2.03753043 L22.9183304,2.03753043 L22.9183304,1.42292174 L23.6313739,1.42292174 C23.8998957,1.42292174 24.0362435,1.52344348 24.0362435,1.72135652 L24.0362435,2.03753043 Z M24.5186783,2.07161739 L24.0018087,2.07161739 L24.0018087,1.72135652 C24.0018087,1.54396522 23.8804174,1.45735652 23.6313739,1.45735652 L22.9527652,1.45735652 L22.9527652,2.07161739 L22.4362435,2.07161739 L22.4362435,0.214226087 L23.7072,0.214226087 C24.0254609,0.214226087 24.2397217,0.253182609 24.3621565,0.332834783 C24.4845913,0.413878261 24.5465043,0.560313043 24.5465043,0.768313043 C24.5465043,0.958921739 24.5158957,1.08622609 24.453287,1.15753043 C24.4025043,1.21666087 24.3061565,1.26083478 24.1659826,1.2890087 C24.4004174,1.32135652 24.5186783,1.44344348 24.5186783,1.65248696 L24.5186783,2.07161739 Z" id="Fill-49" fill="#FEFEFE"></path>
                <path d="M28.704313,1.08455652 L28.704313,1.33986087 L29.3439652,1.33986087 L29.3418783,1.41464348 C29.3418783,1.57012174 29.3060522,1.66890435 29.2344,1.7109913 C29.1634435,1.75307826 28.9954435,1.77394783 28.732487,1.77394783 C28.4618783,1.77394783 28.2890087,1.74925217 28.2142261,1.69916522 C28.1401391,1.65012174 28.1029217,1.53464348 28.1029217,1.35412174 L28.0990957,1.12038261 L28.1008348,0.938121739 C28.1008348,0.753426087 28.1387478,0.636208696 28.2131826,0.586469565 C28.2890087,0.536730435 28.4664,0.51133913 28.7453565,0.51133913 C29.0027478,0.51133913 29.1634435,0.525947826 29.2270957,0.555165217 C29.2914435,0.583686957 29.3276174,0.658121739 29.3359652,0.777773913 L29.8246609,0.777773913 C29.8246609,0.540556522 29.7585739,0.38786087 29.6267478,0.318991304 C29.4956174,0.249426087 29.2037913,0.214991304 28.7512696,0.214991304 C28.4062261,0.214991304 28.1610087,0.2376 28.0170087,0.282121739 C27.8726609,0.326643478 27.7655304,0.412904348 27.6945739,0.540904348 C27.6371826,0.645947826 27.6090087,0.898121739 27.6090087,1.29742609 C27.6090087,1.60907826 27.680313,1.81638261 27.8225739,1.91794783 C27.9658783,2.01951304 28.2573565,2.06994783 28.6970087,2.06994783 C29.176313,2.06994783 29.4855304,2.03203478 29.624313,1.95586087 C29.7624,1.87968696 29.8319652,1.7096 29.8319652,1.44664348 L29.8246609,1.08455652 L28.704313,1.08455652 Z" id="Fill-51" fill="#FEFEFE"></path>
                <path d="M28.7511652,0.232347826 C28.4099478,0.232347826 28.1647304,0.254608696 28.0221217,0.298434783 C27.8812522,0.341913043 27.7789913,0.424 27.7094261,0.549217391 C27.6541217,0.650782609 27.6259478,0.902608696 27.6259478,1.29773913 C27.6259478,1.60208696 27.695513,1.80591304 27.8325565,1.90434783 C27.971687,2.00278261 28.2624696,2.05252174 28.6972522,2.05252174 C29.1713391,2.05252174 29.4805565,2.01495652 29.6158609,1.94086957 C29.7480348,1.86817391 29.8148174,1.70191304 29.8148174,1.4466087 L29.8078609,1.10191304 L28.7216,1.10191304 L28.7216,1.32278261 L29.3616,1.32278261 L29.3591652,1.41495652 C29.3591652,1.576 29.3198609,1.68069565 29.2429913,1.72591304 C29.1692522,1.76973913 29.0019478,1.79130435 28.7323826,1.79130435 C28.455513,1.79130435 28.2829913,1.76591304 28.2047304,1.7133913 C28.1257739,1.66121739 28.0857739,1.54052174 28.0857739,1.35408696 L28.0819478,1.12069565 L28.083687,0.938086957 C28.083687,0.748521739 28.1240348,0.625391304 28.203687,0.572173913 C28.283687,0.519652174 28.4610783,0.49426087 28.7452522,0.49426087 C29.0078609,0.49426087 29.1678609,0.508869565 29.2342957,0.539478261 C29.3010783,0.569391304 29.3407304,0.643826087 29.3518609,0.760695652 L29.807513,0.760695652 C29.8043826,0.541217391 29.7407304,0.397913043 29.6186435,0.33426087 C29.4913391,0.266782609 29.199513,0.232347826 28.7511652,0.232347826 M28.6972522,2.08695652 C28.2492522,2.08695652 27.9598609,2.03652174 27.8127304,1.93217391 C27.6659478,1.82713043 27.5918609,1.61356522 27.5918609,1.29773913 C27.5918609,0.891130435 27.6203826,0.641043478 27.6791652,0.532521739 C27.7525565,0.401043478 27.8642087,0.311652174 28.0120348,0.26573913 C28.1577739,0.220869565 28.4064696,0.197913043 28.7511652,0.197913043 C29.211687,0.197913043 29.5007304,0.232695652 29.6346435,0.304 C29.7723826,0.375304348 29.8419478,0.534956522 29.8419478,0.77773913 L29.8419478,0.795130435 L29.3202087,0.795130435 L29.3188174,0.779130435 C29.3108174,0.666434783 29.2777739,0.596521739 29.2200348,0.570782609 C29.1588174,0.542956522 28.9991652,0.528695652 28.7452522,0.528695652 C28.471513,0.528695652 28.2958609,0.552695652 28.2224696,0.601043478 C28.1532522,0.647304348 28.1177739,0.761043478 28.1177739,0.938086957 L28.1163826,1.12069565 L28.1202087,1.35373913 C28.1202087,1.528 28.1549913,1.63930435 28.2238609,1.68486957 C28.2951652,1.73252174 28.4662957,1.75686957 28.7323826,1.75686957 C28.9918609,1.75686957 29.1577739,1.73669565 29.2256,1.69634783 C29.2913391,1.65773913 29.3247304,1.56278261 29.3247304,1.4146087 L29.3264696,1.35686957 L28.6871652,1.35686957 L28.6871652,1.06747826 L29.8416,1.06747826 L29.8492522,1.44626087 C29.8492522,1.71547826 29.7762087,1.89182609 29.6325565,1.97113043 C29.4902957,2.04904348 29.1842087,2.08695652 28.6972522,2.08695652" id="Fill-53" fill="#FEFEFE"></path>
                <path d="M32.2929739,1.08525217 C32.238713,1.12733913 32.1294957,1.14890435 31.9642783,1.14890435 L31.2710609,1.14890435 L31.2710609,0.522469565 L31.9976696,0.522469565 C32.1552348,0.522469565 32.2578435,0.5416 32.3048,0.579165217 C32.350713,0.617078261 32.3743652,0.700904348 32.3743652,0.83133913 C32.3743652,0.958295652 32.3472348,1.04281739 32.2929739,1.08525217 M32.7757565,1.14612174 C32.834887,1.07829565 32.8648,0.952382609 32.8648,0.768382609 C32.8648,0.565252174 32.8053217,0.425078261 32.6874087,0.347165217 C32.5691478,0.2696 32.3538435,0.23133913 32.0425391,0.23133913 L30.7886261,0.23133913 L30.7886261,2.05464348 L31.2710609,2.05464348 L31.2710609,1.44038261 L31.9663652,1.44038261 C32.2244522,1.44038261 32.3534957,1.53394783 32.3534957,1.72142609 L32.3534957,2.05464348 L32.8359304,2.05464348 L32.8359304,1.65255652 C32.8359304,1.42925217 32.6950609,1.3109913 32.4136696,1.29846957 L32.4136696,1.28629565 C32.5959304,1.26055652 32.7166261,1.21394783 32.7757565,1.14612174" id="Fill-55" fill="#FEFEFE"></path>
                <path d="M31.2882087,1.1317913 L31.9643826,1.1317913 C32.1240348,1.1317913 32.2311652,1.11161739 32.2822957,1.07161739 C32.3320348,1.0330087 32.3574261,0.951965217 32.3574261,0.831269565 C32.3574261,0.709530435 32.335513,0.626747826 32.2937739,0.592313043 C32.2502957,0.557530435 32.1504696,0.539791304 31.9977739,0.539791304 L31.2882087,0.539791304 L31.2882087,1.1317913 Z M31.9643826,1.16622609 L31.2537739,1.16622609 L31.2537739,0.505356522 L31.9977739,0.505356522 C32.1609043,0.505356522 32.2649043,0.525182609 32.315687,0.565878261 C32.3661217,0.607617391 32.391513,0.697008696 32.391513,0.831269565 C32.391513,0.963443478 32.3619478,1.05318261 32.303513,1.09874783 C32.2450783,1.14431304 32.1344696,1.16622609 31.9643826,1.16622609 L31.9643826,1.16622609 Z M32.3706435,2.03753043 L32.8186435,2.03753043 L32.8186435,1.65248696 C32.8186435,1.43787826 32.6861217,1.32761739 32.4127304,1.31544348 L32.3963826,1.31474783 L32.3963826,1.27126957 L32.4113391,1.26953043 C32.5883826,1.24413913 32.7066435,1.19892174 32.7626435,1.13492174 C32.8189913,1.07022609 32.847513,0.947095652 32.847513,0.768313043 C32.847513,0.572486957 32.7904696,0.435791304 32.6777739,0.361704348 C32.563687,0.286573913 32.3497739,0.248313043 32.0422957,0.248313043 L30.8057739,0.248313043 L30.8057739,2.03753043 L31.2537739,2.03753043 L31.2537739,1.42292174 L31.9661217,1.42292174 C32.2346435,1.42292174 32.3706435,1.52344348 32.3706435,1.72135652 L32.3706435,2.03753043 Z M32.8530783,2.07161739 L32.3362087,2.07161739 L32.3362087,1.72135652 C32.3362087,1.54396522 32.2151652,1.45735652 31.9661217,1.45735652 L31.2882087,1.45735652 L31.2882087,2.07161739 L30.7713391,2.07161739 L30.7713391,0.214226087 L32.0422957,0.214226087 C32.3609043,0.214226087 32.5751652,0.253182609 32.6969043,0.332834783 C32.819687,0.413878261 32.8819478,0.560313043 32.8819478,0.768313043 C32.8819478,0.955443478 32.8502957,1.08657391 32.7883826,1.15753043 C32.7362087,1.21770435 32.6416,1.26083478 32.5010783,1.2890087 C32.7348174,1.32135652 32.8530783,1.44344348 32.8530783,1.65248696 L32.8530783,2.07161739 Z" id="Fill-57" fill="#FEFEFE"></path>
                <path d="M35.4485217,1.68393043 C35.3886957,1.74375652 35.2092174,1.77401739 34.910087,1.77401739 C34.5966957,1.77401739 34.4085217,1.74723478 34.3441739,1.69366957 C34.2805217,1.64010435 34.2481739,1.48253913 34.2481739,1.22132174 C34.2481739,0.867234783 34.2756522,0.661321739 34.3302609,0.601147826 C34.3848696,0.541321739 34.5744348,0.511408696 34.8989565,0.511408696 C35.2116522,0.511408696 35.3963478,0.539234783 35.4530435,0.595234783 C35.5090435,0.650886957 35.5375652,0.831408696 35.5375652,1.1368 C35.5375652,1.44149565 35.508,1.6234087 35.4485217,1.68393043 M34.9354783,0.21506087 C34.4161739,0.21506087 34.0902609,0.27106087 33.9573913,0.382365217 C33.8241739,0.493321739 33.758087,0.766713043 33.758087,1.20045217 C33.758087,1.56636522 33.8252174,1.8021913 33.9612174,1.90897391 C34.0965217,2.0168 34.3953043,2.06966957 34.8572174,2.06966957 C35.3702609,2.06966957 35.6937391,2.01575652 35.8273043,1.90758261 C35.9608696,1.79906087 36.0276522,1.5354087 36.0276522,1.11801739 C36.0276522,0.735756522 35.9612174,0.489843478 35.8286957,0.379930435 C35.6947826,0.269669565 35.398087,0.21506087 34.9354783,0.21506087" id="Fill-59" fill="#FEFEFE"></path>
                <path d="M34.8989217,0.528521739 C34.5030957,0.528521739 34.3778783,0.574434783 34.3427478,0.612695652 C34.3076174,0.651652174 34.2651826,0.789043478 34.2651826,1.2213913 C34.2651826,1.53826087 34.3142261,1.64573913 34.3552696,1.68052174 C34.4157913,1.73130435 34.6025739,1.75704348 34.9100522,1.75704348 C35.2745739,1.75704348 35.3977043,1.71043478 35.436313,1.67182609 C35.492313,1.61513043 35.520487,1.43495652 35.520487,1.13686957 C35.520487,0.764695652 35.4773565,0.643304348 35.4408348,0.607478261 C35.404313,0.571304348 35.2808348,0.528521739 34.8989217,0.528521739 M34.9100522,1.79113043 C34.5900522,1.79113043 34.4011826,1.76365217 34.3330087,1.70695652 C34.2641391,1.64886957 34.2310957,1.49026087 34.2310957,1.2213913 C34.2310957,0.860695652 34.2592696,0.65373913 34.3173565,0.58973913 C34.3761391,0.525391304 34.5664,0.494086957 34.8989217,0.494086957 C35.2192696,0.494086957 35.404313,0.523304348 35.4648348,0.582782609 C35.5253565,0.642956522 35.5549217,0.824173913 35.5549217,1.13686957 C35.5549217,1.44886957 35.5239652,1.63147826 35.4606609,1.69582609 C35.3966609,1.76017391 35.216487,1.79113043 34.9100522,1.79113043 M34.9354435,0.232173913 C34.4227478,0.232173913 34.0971826,0.287478261 33.968487,0.395652174 C33.840487,0.502434783 33.7754435,0.773043478 33.7754435,1.20052174 C33.7754435,1.55878261 33.8415304,1.79286957 33.9719652,1.89582609 C34.1027478,1.99982609 34.400487,2.05269565 34.8571826,2.05269565 C35.3639652,2.05269565 35.6867478,1.99947826 35.816487,1.89408696 C35.9451826,1.7893913 36.0105739,1.52852174 36.0105739,1.11808696 C36.0105739,0.743130435 35.9455304,0.499304348 35.8178783,0.393217391 C35.688487,0.286434783 35.3914435,0.232173913 34.9354435,0.232173913 M34.8571826,2.08678261 C34.3862261,2.08678261 34.0895304,2.03321739 33.9504,1.9226087 C33.8095304,1.81130435 33.7410087,1.57513043 33.7410087,1.20052174 C33.7410087,0.756347826 33.8081391,0.484347826 33.9462261,0.369217391 C34.0836174,0.254086957 34.4070957,0.198086957 34.9354435,0.198086957 C35.4060522,0.198086957 35.7020522,0.253043478 35.8397913,0.366782609 C35.9757913,0.479826087 36.0446609,0.732347826 36.0446609,1.11808696 C36.0446609,1.53930435 35.9754435,1.80956522 35.8384,1.92052174 C35.700313,2.03252174 35.3792696,2.08678261 34.8571826,2.08678261" id="Fill-61" fill="#FEFEFE"></path>
                <path d="M39.6759304,1.23029565 C39.6501913,1.3002087 39.6209739,1.3896 39.5889739,1.49742609 L39.5493217,1.6309913 L39.5086261,1.76455652 L39.4943652,1.76455652 L39.4491478,1.6309913 L39.4063652,1.49846957 C39.3750609,1.4069913 39.3437565,1.31829565 39.3110609,1.23273043 L38.9284522,0.23133913 L38.3625391,0.23133913 L37.9712348,1.23273043 C37.9294957,1.34055652 37.8957565,1.42925217 37.8724522,1.49846957 L37.8275826,1.6309913 C37.8174957,1.66125217 37.802887,1.70542609 37.7830609,1.76455652 L37.7663652,1.76455652 L37.7291478,1.6309913 L37.6901913,1.49742609 C37.6557565,1.38438261 37.6286261,1.29603478 37.6060174,1.23168696 L37.238713,0.23133913 L36.7472348,0.23133913 L37.4063652,2.05464348 L38.1128,2.05464348 L38.4762783,1.12038261 C38.5061913,1.04525217 38.5340174,0.969426087 38.5601043,0.8936 L38.5955826,0.781252174 L38.6328,0.668208696 L38.6491478,0.668208696 L38.6846261,0.780208696 C38.7281043,0.921773913 38.7660174,1.03481739 38.798713,1.11933913 L39.1524522,2.05464348 L39.8658435,2.05464348 L40.5465391,0.23133913 L40.0526261,0.23133913 L39.6759304,1.23029565 Z" id="Fill-63" fill="#FEFEFE"></path>
                <path d="M39.1642087,2.03735652 L39.8539478,2.03735652 L40.5217739,0.248486957 L40.0643826,0.248486957 L39.6922087,1.23631304 C39.6654261,1.30796522 39.6365565,1.39770435 39.6052522,1.50205217 L39.5210783,1.78170435 L39.4817739,1.78170435 L39.3899478,1.5037913 C39.3565565,1.40605217 39.3256,1.31944348 39.2949913,1.23909565 L38.9165565,0.248486957 L38.3742957,0.248486957 L37.9871652,1.23909565 C37.9443826,1.34935652 37.9113391,1.43666087 37.8887304,1.50413913 L37.8410783,1.64535652 C37.8309913,1.67492174 37.8174261,1.71631304 37.7993391,1.76987826 L37.795513,1.78170435 L37.7530783,1.78170435 L37.7127304,1.63561739 L37.6734261,1.50205217 C37.6414261,1.39631304 37.6129043,1.30344348 37.5899478,1.23735652 L37.2268174,0.248486957 L36.771513,0.248486957 L37.4184696,2.03735652 L38.1012522,2.03735652 L38.4605565,1.11422609 C38.4887304,1.04292174 38.5165565,0.966747826 38.543687,0.88813913 L38.6205565,0.651269565 L38.6619478,0.651269565 L38.7009043,0.774747826 C38.7454261,0.919095652 38.7826435,1.02970435 38.8146435,1.11318261 L39.1642087,2.03735652 Z M39.8779478,2.0717913 L39.1405565,2.0717913 L39.1360348,2.06066087 L38.7826435,1.12535652 C38.7502957,1.04118261 38.7127304,0.929878261 38.6682087,0.785182609 L38.6410783,0.698573913 L38.5763826,0.898921739 C38.5489043,0.978573913 38.5207304,1.05509565 38.4922087,1.12674783 L38.1245565,2.0717913 L37.3944696,2.0717913 L37.3902957,2.06031304 L36.7224696,0.214052174 L37.2508174,0.214052174 L37.2549913,0.225530435 L37.6219478,1.22587826 C37.6456,1.29266087 37.6741217,1.38587826 37.7064696,1.49231304 L37.7753391,1.73335652 C37.7892522,1.69196522 37.8000348,1.65926957 37.8083826,1.63457391 L37.8563826,1.4930087 C37.8789913,1.42518261 37.9123826,1.33718261 37.9551652,1.22657391 L38.3509913,0.214052174 L38.9402087,0.214052174 L38.9443826,0.225182609 L39.3269913,1.22657391 C39.3579478,1.30726957 39.3889043,1.39457391 39.4226435,1.49335652 L39.5009043,1.73092174 L39.5722087,1.49231304 C39.6038609,1.38692174 39.6330783,1.29683478 39.6598609,1.22448696 L40.0407304,0.214052174 L40.571513,0.214052174 L40.5628174,0.237356522 L39.8779478,2.0717913 Z" id="Fill-65" fill="#FEFEFE"></path>
                <polygon id="Fill-67" fill="#FEFEFE" points="41.4546435 0.540765217 42.1889043 0.540765217 42.1889043 2.05450435 42.6713391 2.05450435 42.6713391 0.540765217 43.4320348 0.540765217 43.4320348 0.2312 41.4546435 0.2312"></polygon>
                <path d="M42.2061565,2.03735652 L42.6541565,2.03735652 L42.6541565,0.523617391 L43.4148522,0.523617391 L43.4148522,0.248486957 L41.4718957,0.248486957 L41.4718957,0.523617391 L42.2061565,0.523617391 L42.2061565,2.03735652 Z M42.6885913,2.0717913 L42.1717217,2.0717913 L42.1717217,0.558052174 L41.4374609,0.558052174 L41.4374609,0.214052174 L43.4489391,0.214052174 L43.4489391,0.558052174 L42.6885913,0.558052174 L42.6885913,2.0717913 Z" id="Fill-69" fill="#FEFEFE"></path>
                <polygon id="Fill-71" fill="#FEFEFE" points="45.9819826 0.231304348 45.9819826 0.974956522 44.789287 0.974956522 44.789287 0.231304348 44.3072 0.231304348 44.3072 2.0546087 44.789287 2.0546087 44.789287 1.26608696 45.9819826 1.26608696 45.9819826 2.0546087 46.4644174 2.0546087 46.4644174 0.231304348"></polygon>
                <path d="M45.9991304,2.03735652 L46.4474783,2.03735652 L46.4474783,0.248486957 L45.9991304,0.248486957 L45.9991304,0.99213913 L44.7723478,0.99213913 L44.7723478,0.248486957 L44.3243478,0.248486957 L44.3243478,2.03735652 L44.7723478,2.03735652 L44.7723478,1.24883478 L45.9991304,1.24883478 L45.9991304,2.03735652 Z M46.4815652,2.0717913 L45.9646957,2.0717913 L45.9646957,1.28326957 L44.8064348,1.28326957 L44.8064348,2.0717913 L44.289913,2.0717913 L44.289913,0.214052174 L44.8064348,0.214052174 L44.8064348,0.957704348 L45.9646957,0.957704348 L45.9646957,0.214052174 L46.4815652,0.214052174 L46.4815652,2.0717913 Z" id="Fill-73" fill="#FEFEFE"></path>
            </g>
        </g>
    </g>
</svg>