<?xml version="1.0" encoding="UTF-8"?>
<svg width="100px" height="50px" viewBox="0 0 100 50" version="1.1" xmlns="http://www.w3.org/2000/svg" xmlns:xlink="http://www.w3.org/1999/xlink">
    <!-- Generator: Sketch 57.1 (83088) - https://sketch.com -->
    <title>partners logos</title>
    <desc>Created with Sketch.</desc>
    <defs>
        <polygon id="path-1" points="0 17.9518756 67.1502591 17.9518756 67.1502591 0 0 0"></polygon>
    </defs>
    <g id="partners-logos" stroke="none" stroke-width="1" fill="none" fill-rule="evenodd">
        <g id="nallian" transform="translate(16.000000, 16.000000)">
            <path d="M23.0333969,5.05613472 C23.520143,5.05613472 23.8754798,5.19304663 24.0997803,5.46687047 C24.323428,5.74078756 24.4353451,6.15609326 24.4353451,6.71278756 L24.4353451,11.1474093 L25.9745782,11.1474093 L25.9745782,6.4453057 C25.9745782,4.68429016 25.1093658,3.80396891 23.3789409,3.80396891 C22.8918218,3.80396891 22.4485368,3.89741969 22.0486197,4.08422798 C21.6485161,4.27150259 21.3398114,4.53637306 21.1223192,4.88023834 L21.0438839,4.88023834 L20.8290964,3.9341658 L19.6287855,3.9341658 L19.6287855,11.1474093 L21.1617699,11.1474093 L21.1617699,7.55393782 C21.1617699,6.6537513 21.3115523,6.01255959 21.6114902,5.63017617 C21.9117078,5.24760622 22.3855834,5.05613472 23.0333969,5.05613472" id="Fill-1" fill="#FFFFFF"></path>
            <path d="M32.6471782,11.1474093 L32.6471782,6.28899482 C32.6471782,5.43226943 32.4135513,4.80394819 31.9462041,4.40393782 C31.478857,4.00374093 30.7864632,3.80396891 29.8693026,3.80396891 C29.4558622,3.80396891 29.0167741,3.85703627 28.5517585,3.96354404 C28.0864632,4.07023834 27.658287,4.22552332 27.2667637,4.42986528 L27.7623699,5.52562694 C28.0756446,5.37798964 28.4017896,5.24956477 28.7408984,5.14091192 C29.079914,5.03197927 29.4343181,4.97779275 29.8040176,4.97779275 C30.2559762,4.97779275 30.5898622,5.09194819 30.8049295,5.3201658 C31.0199969,5.54829016 31.1279036,5.89327461 31.1279036,6.35372021 L31.1279036,6.7385285 L29.8823596,6.7781658 C28.7518104,6.81276684 27.9101005,7.01906736 27.3580694,7.39734715 C26.8059451,7.77572021 26.5296964,8.33670466 26.5296964,9.08011399 C26.5296964,9.78034197 26.7287223,10.3213679 27.1268674,10.7040311 C27.5246394,11.0864145 28.0779762,11.2776995 28.7866912,11.2776995 C29.3385358,11.2776995 29.7909606,11.1982383 30.1430332,11.0401554 C30.4951057,10.8812332 30.8454062,10.582228 31.1930953,10.1428601 L31.2449503,10.1428601 L31.5517896,11.1474093 L32.6471782,11.1474093 Z M31.1150332,8.32998964 C31.1150332,8.89078756 30.9462249,9.32679793 30.6092611,9.6378342 C30.2725772,9.94859067 29.8255617,10.1039689 29.2693337,10.1039689 C28.8865772,10.1039689 28.5994166,10.0157409 28.4082249,9.8397513 C28.2169399,9.66376166 28.120971,9.41474611 28.120971,9.09326425 C28.120971,8.64951295 28.2852093,8.32038342 28.613686,8.10484974 C28.9416964,7.88978238 29.4668674,7.7694715 30.1886394,7.74289119 L31.1150332,7.704 L31.1150332,8.32998964 Z" id="Fill-3" fill="#FFFFFF"></path>
            <mask id="mask-2" fill="white">
                <use xlink:href="#path-1"></use>
            </mask>
            <g id="Clip-6"></g>
            <polygon id="Fill-5" fill="#FFFFFF" mask="url(#mask-2)" points="33.4508083 11.1474093 34.9836062 11.1474093 34.9836062 0.999606218 33.4508083 0.999606218"></polygon>
            <polygon id="Fill-7" fill="#FFFFFF" mask="url(#mask-2)" points="35.8391192 11.1474093 37.3720104 11.1474093 37.3720104 0.999606218 35.8391192 0.999606218"></polygon>
            <polygon id="Fill-8" fill="#FFFFFF" mask="url(#mask-2)" points="38.2276166 11.1474093 39.7601347 11.1474093 39.7601347 3.9341658 38.2276166 3.9341658"></polygon>
            <path d="M39.0034912,2.86451813 C39.2733979,2.86451813 39.4828694,2.78981347 39.6329316,2.6397513 C39.7829938,2.48959585 39.857885,2.28394819 39.857885,2.02318135 C39.857885,1.74982383 39.7829938,1.53904663 39.6329316,1.39066321 C39.4828694,1.24311917 39.2733979,1.16934715 39.0034912,1.16934715 C38.7253772,1.16934715 38.511429,1.24311917 38.3609938,1.39066321 C38.2113047,1.53904663 38.1360404,1.74982383 38.1360404,2.02318135 C38.1360404,2.28394819 38.2113047,2.48959585 38.3609938,2.6397513 C38.511429,2.78981347 38.7253772,2.86451813 39.0034912,2.86451813" id="Fill-9" fill="#FFFFFF" mask="url(#mask-2)"></path>
            <path d="M45.7905637,4.40391917 C45.3232166,4.00372228 44.6308228,3.80395026 43.7135689,3.80395026 C43.3002218,3.80395026 42.8611337,3.85701762 42.3961181,3.96352539 C41.9308228,4.07021969 41.5023668,4.22550466 41.1111233,4.42984663 L41.6068228,5.52560829 C41.9198176,5.37797098 42.2462425,5.24954611 42.585258,5.14089326 C42.9242736,5.03196062 43.278771,4.97777409 43.6482839,4.97777409 C44.1003358,4.97777409 44.4342218,5.09192953 44.6493824,5.32014715 C44.8644497,5.5482715 44.9721699,5.89325596 44.9721699,6.35370155 L44.9721699,6.73850984 L43.7267192,6.77814715 C42.5960767,6.81274819 41.7545534,7.0190487 41.2025223,7.3973285 C40.6500249,7.77570155 40.3741492,8.33668601 40.3741492,9.08009534 C40.3741492,9.78032332 40.5730819,10.3213492 40.9707606,10.7040124 C41.368999,11.0863959 41.9223358,11.2777741 42.631144,11.2777741 C43.1828953,11.2777741 43.6353202,11.1982197 43.9873927,11.0401368 C44.339372,10.8812145 44.6896725,10.5823026 45.0374549,10.1429347 L45.0893098,10.1429347 L45.3958694,11.1473907 L46.4915378,11.1473907 L46.4915378,6.28897617 C46.4915378,5.43225078 46.2580041,4.80392953 45.7905637,4.40391917 L45.7905637,4.40391917 Z M44.9592062,8.32997098 C44.9592062,8.89076891 44.7903979,9.32687254 44.4536207,9.63790881 C44.1170301,9.94866528 43.6699212,10.1039503 43.1135067,10.1039503 C42.7308435,10.1039503 42.4436829,10.0157223 42.2524912,9.83973264 C42.0612995,9.66374301 41.9653306,9.41472746 41.9653306,9.0932456 C41.9653306,8.6494943 42.1295689,8.32036477 42.4580456,8.10483109 C42.7861492,7.88976373 43.3112269,7.76945285 44.032999,7.74287254 L44.9592062,7.70398135 L44.9592062,8.32997098 Z" id="Fill-10" fill="#FFFFFF" mask="url(#mask-2)"></path>
            <path d="M52.1015596,6.71275959 L52.1015596,11.1473813 L53.6409793,11.1473813 L53.6409793,6.44527772 C53.6409793,4.68426218 52.7756736,3.80394093 51.0447824,3.80394093 C50.557943,3.80394093 50.1148446,3.89739171 49.7142746,4.0842 C49.3148238,4.27147461 49.0057461,4.53643834 48.7885337,4.88021036 L48.7100984,4.88021036 L48.4950311,3.93413782 L47.2948135,3.93413782 L47.2948135,11.1473813 L48.8276114,11.1473813 L48.8276114,7.55390984 C48.8276114,6.65372332 48.9776736,6.01253161 49.2777979,5.63014819 C49.5775492,5.2476715 50.0512383,5.05610674 50.6994249,5.05610674 C51.186171,5.05610674 51.541601,5.19301865 51.7655285,5.46684249 C51.9896425,5.74075959 52.1015596,6.15606528 52.1015596,6.71275959" id="Fill-11" fill="#FFFFFF" mask="url(#mask-2)"></path>
            <path d="M20.6196435,13.2800083 C20.6196435,13.3423088 20.6272912,13.427086 20.6424933,13.5341534 L20.6263585,13.5341534 C20.5235813,13.3891275 20.3740788,13.3162881 20.1774777,13.3162881 C19.9902964,13.3162881 19.843685,13.3844642 19.7378301,13.5212829 C19.6317886,13.657915 19.5791876,13.8485472 19.5791876,14.0935523 C19.5791876,14.3377181 19.6311358,14.5273244 19.7359648,14.6622777 C19.8402342,14.7975109 19.9854466,14.8650342 20.1721617,14.8650342 C20.368856,14.8650342 20.517799,14.7909824 20.6196435,14.6419461 L20.634286,14.6419461 L20.6894984,14.8379876 L20.938514,14.8379876 L20.938514,12.7354383 L20.6196435,12.7354383 L20.6196435,13.2800083 Z M20.634286,14.140744 C20.632514,14.3057285 20.6019233,14.4247337 20.5424207,14.4983192 C20.4831047,14.5716249 20.3881617,14.6084642 20.2574984,14.6084642 C20.1402653,14.6084642 20.0524104,14.5650031 19.9939337,14.477801 C19.9355503,14.3910653 19.906172,14.2647855 19.906172,14.0986819 C19.906172,13.9317389 19.9361098,13.8023813 19.9967316,13.711915 C20.0567005,13.6213554 20.1431565,13.5759358 20.2546073,13.5759358 C20.3853637,13.5759358 20.4812394,13.6153865 20.5424207,13.6948477 C20.6036953,13.7743088 20.634286,13.9077699 20.634286,14.0964435 L20.634286,14.140744 Z" id="Fill-12" fill="#FFFFFF" mask="url(#mask-2)"></path>
            <path d="M21.868144,13.3162601 C21.782714,13.3162601 21.6914083,13.3275451 21.5951596,13.3495554 C21.4990041,13.3717523 21.4101233,13.404115 21.3287969,13.4462705 L21.4318539,13.6731824 C21.4966725,13.6424984 21.5645689,13.6161047 21.6343306,13.5937212 C21.7046518,13.5708715 21.7780508,13.5598663 21.8546207,13.5598663 C21.948258,13.5598663 22.0176466,13.5833689 22.0621337,13.6307472 C22.1064342,13.6776591 22.1288176,13.7494725 22.1288176,13.8451617 L22.1288176,13.9245295 L21.8711285,13.9327368 C21.6368487,13.9398249 21.4625378,13.9827264 21.3480093,14.0610684 C21.2334808,14.1393171 21.1764964,14.2556176 21.1764964,14.4095036 C21.1764964,14.5549959 21.2176259,14.666913 21.2999782,14.7461876 C21.3824238,14.8252756 21.4973254,14.8650062 21.6438435,14.8650062 C21.7582788,14.8650062 21.8519161,14.8484984 21.924942,14.8156694 C21.9978746,14.7829337 22.0706207,14.7210062 22.1424342,14.6300736 L22.1533461,14.6300736 L22.2168591,14.8379596 L22.4438642,14.8379596 L22.4438642,13.8313585 C22.4438642,13.6536902 22.3955534,13.5236798 22.2984653,13.4409544 C22.2019368,13.3577627 22.0583098,13.3162601 21.868144,13.3162601 L21.868144,13.3162601 Z M22.1262995,14.2541254 C22.1262995,14.370799 22.0913254,14.4607057 22.021657,14.5252446 C21.9517088,14.5895969 21.8592839,14.6221461 21.7438228,14.6221461 C21.6644549,14.6221461 21.6049523,14.6039596 21.5655948,14.5672135 C21.5258642,14.5307472 21.505999,14.4789855 21.505999,14.4123948 C21.505999,14.3206228 21.5402269,14.2524466 21.6079368,14.2077731 C21.6762062,14.1631927 21.7848591,14.1381047 21.9346415,14.1327886 L22.1262995,14.1245813 L22.1262995,14.2541254 Z" id="Fill-13" fill="#FFFFFF" mask="url(#mask-2)"></path>
            <path d="M23.182629,14.5538301 C23.1442974,14.5172705 23.1249917,14.4606591 23.1249917,14.3841824 L23.1249917,13.5840684 L23.5505565,13.5840684 L23.5505565,13.3433534 L23.1249917,13.3433534 L23.1249917,13.0111461 L22.928857,13.0111461 L22.8212301,13.3273119 L22.6021523,13.4435192 L22.6021523,13.5840684 L22.8061212,13.5840684 L22.8061212,14.3894052 C22.8061212,14.7065969 22.9566497,14.8650528 23.2573337,14.8650528 C23.3168363,14.8650528 23.3745668,14.8597368 23.4298725,14.8494777 C23.485085,14.8393119 23.5306912,14.8261617 23.5654788,14.8109596 L23.5654788,14.5721098 C23.4881627,14.596172 23.4104736,14.6084829 23.333344,14.6084829 C23.2709503,14.6084829 23.2208674,14.5903896 23.182629,14.5538301" id="Fill-14" fill="#FFFFFF" mask="url(#mask-2)"></path>
            <path d="M24.3398705,13.3162601 C24.2545337,13.3162601 24.1634145,13.3275451 24.0672591,13.3495554 C23.9707306,13.3717523 23.8821295,13.404115 23.8007098,13.4462705 L23.9038601,13.6731824 C23.9685855,13.6424984 24.0362021,13.6161047 24.1063368,13.5937212 C24.1767513,13.5708715 24.2498705,13.5598663 24.3263472,13.5598663 C24.4200777,13.5598663 24.4894663,13.5833689 24.5339534,13.6307472 C24.5784404,13.6776591 24.6008238,13.7494725 24.6008238,13.8451617 L24.6008238,13.9245295 L24.3429482,13.9327368 C24.1086684,13.9398249 23.9344508,13.9827264 23.819829,14.0610684 C23.7053005,14.1393171 23.6483161,14.2556176 23.6483161,14.4095036 C23.6483161,14.5549959 23.6894456,14.666913 23.7719845,14.7461876 C23.8542435,14.8252756 23.9690518,14.8650062 24.1156632,14.8650062 C24.230285,14.8650062 24.323829,14.8484984 24.3966684,14.8156694 C24.469601,14.7829337 24.5423472,14.7210062 24.6141606,14.6300736 L24.6251658,14.6300736 L24.688772,14.8379596 L24.9155907,14.8379596 L24.9155907,13.8313585 C24.9155907,13.6536902 24.8673731,13.5236798 24.770285,13.4409544 C24.6737565,13.3577627 24.5302228,13.3162601 24.3398705,13.3162601 L24.3398705,13.3162601 Z M24.5980259,14.2541254 C24.5980259,14.370799 24.5631451,14.4607057 24.4935699,14.5252446 C24.4236218,14.5895969 24.3310104,14.6221461 24.2157358,14.6221461 C24.1362746,14.6221461 24.0768653,14.6039596 24.0373212,14.5672135 C23.9975907,14.5307472 23.9779119,14.4789855 23.9779119,14.4123948 C23.9779119,14.3206228 24.0120466,14.2524466 24.0796632,14.2077731 C24.1479326,14.1631927 24.2566788,14.1381047 24.4065544,14.1327886 L24.5980259,14.1245813 L24.5980259,14.2541254 Z" id="Fill-15" fill="#FFFFFF" mask="url(#mask-2)"></path>
            <path d="M26.6957067,14.0894207 C26.6398415,14.0497834 26.550028,14.006229 26.4266394,13.9583845 C26.2798415,13.9015865 26.1846187,13.8570062 26.1406912,13.8242705 C26.0972301,13.7920943 26.0752197,13.7525503 26.0752197,13.7056383 C26.0752197,13.6101358 26.1588777,13.5624777 26.3267534,13.5624777 C26.4367119,13.5624777 26.5720383,13.5959596 26.7333855,13.662457 L26.836256,13.4231409 C26.679199,13.3523534 26.5131886,13.3162601 26.3372922,13.3162601 C26.1600902,13.3162601 26.0198207,13.3517005 25.9164839,13.4227679 C25.8133337,13.4932756 25.7619451,13.5926021 25.7619451,13.7203741 C25.7619451,13.8267886 25.7923492,13.9132446 25.8530642,13.9798352 C25.9138725,14.0466124 26.0303596,14.1132964 26.2023389,14.1801668 C26.2908466,14.2140218 26.3597689,14.2446124 26.4091057,14.2717523 C26.4587223,14.298799 26.4944425,14.3250062 26.5158933,14.3501876 C26.5375306,14.3753689 26.5481627,14.4072653 26.5481627,14.4450373 C26.5481627,14.5630166 26.4504218,14.6221461 26.2550332,14.6221461 C26.1037585,14.6221461 25.9402663,14.5814829 25.7644632,14.5000632 L25.7644632,14.7746332 C25.8851472,14.8351617 26.0452819,14.8650062 26.2442145,14.8650062 C26.4427741,14.8650062 26.594515,14.826115 26.7011161,14.7480528 C26.8072508,14.6702705 26.8605979,14.5583534 26.8605979,14.4123948 C26.8605979,14.3403016 26.8470746,14.2782808 26.8198415,14.2264259 C26.7929813,14.1744777 26.7513855,14.1294311 26.6957067,14.0894207" id="Fill-16" fill="#FFFFFF" mask="url(#mask-2)"></path>
            <path d="M27.864513,13.3162601 C27.7617358,13.3162601 27.6719223,13.3364052 27.5949793,13.3759492 C27.5178497,13.4154933 27.4579741,13.4715451 27.414513,13.5437316 L27.3941813,13.5437316 C27.4050933,13.4462705 27.4103161,13.3545917 27.4103161,13.2692549 L27.4103161,12.7354104 L27.0932176,12.7354104 L27.0932176,14.8379596 L27.4103161,14.8379596 L27.4103161,14.0964155 C27.4103161,13.9087679 27.4416528,13.7752135 27.5046995,13.6954725 C27.5669067,13.6161047 27.6649275,13.5759078 27.7983886,13.5759078 C27.8989275,13.5759078 27.9730725,13.6042601 28.0191451,13.6609648 C28.0656839,13.717856 28.089,13.8038456 28.089,13.9190269 L28.089,14.8379596 L28.4076839,14.8379596 L28.4076839,13.8638145 C28.4076839,13.4989648 28.2267513,13.3162601 27.864513,13.3162601" id="Fill-17" fill="#FFFFFF" mask="url(#mask-2)"></path>
            <path d="M29.3253668,13.3162601 C29.2400301,13.3162601 29.1489109,13.3275451 29.0525689,13.3495554 C28.9564135,13.3717523 28.8673461,13.404115 28.7860197,13.4462705 L28.8893565,13.6731824 C28.9538953,13.6424984 29.0216052,13.6161047 29.0915534,13.5937212 C29.1622477,13.5708715 29.2353668,13.5598663 29.3117503,13.5598663 C29.4055741,13.5598663 29.4748694,13.5833689 29.519543,13.6307472 C29.563657,13.6776591 29.5860404,13.7494725 29.5860404,13.8451617 L29.5860404,13.9245295 L29.3284446,13.9327368 C29.0941648,13.9398249 28.9196674,13.9827264 28.8051389,14.0610684 C28.6908902,14.1393171 28.6338124,14.2556176 28.6338124,14.4095036 C28.6338124,14.5549959 28.674942,14.666913 28.7572943,14.7461876 C28.8397399,14.8252756 28.9545482,14.8650062 29.1011596,14.8650062 C29.2155016,14.8650062 29.3090456,14.8484984 29.3821648,14.8156694 C29.4551907,14.7829337 29.5278435,14.7210062 29.599657,14.6300736 L29.6107554,14.6300736 L29.6741751,14.8379596 L29.9009938,14.8379596 L29.9009938,13.8313585 C29.9009938,13.6536902 29.8528694,13.5236798 29.7558746,13.4409544 C29.6593461,13.3577627 29.5154394,13.3162601 29.3253668,13.3162601 L29.3253668,13.3162601 Z M29.5832425,14.2541254 C29.5832425,14.370799 29.5485482,14.4607057 29.4789731,14.5252446 C29.4089316,14.5895969 29.3165067,14.6221461 29.2012321,14.6221461 C29.121771,14.6221461 29.0623617,14.6039596 29.0228176,14.5672135 C28.983087,14.5307472 28.9632218,14.4789855 28.9632218,14.4123948 C28.9632218,14.3206228 28.9973565,14.2524466 29.0651596,14.2077731 C29.1336155,14.1631927 29.2419886,14.1381047 29.391771,14.1327886 L29.5832425,14.1245813 L29.5832425,14.2541254 Z" id="Fill-18" fill="#FFFFFF" mask="url(#mask-2)"></path>
            <path d="M30.7343005,13.3946767 C30.6544663,13.4470912 30.5898342,13.5176922 30.5402176,13.6071326 L30.5241762,13.6071326 L30.4820207,13.3433813 L30.2337513,13.3433813 L30.2337513,14.8380342 L30.5510363,14.8380342 L30.5510363,14.0570394 C30.5510363,13.9246041 30.5903938,13.8166974 30.6692953,13.7341585 C30.7481969,13.6511534 30.8511606,13.6094642 30.9781865,13.6094642 C31.0268705,13.6094642 31.0735959,13.6150601 31.118829,13.625972 L31.149886,13.3300446 C31.1083834,13.3210912 31.0553161,13.3162415 30.9920829,13.3162415 C30.899658,13.3162415 30.8140415,13.342542 30.7343005,13.3946767" id="Fill-19" fill="#FFFFFF" mask="url(#mask-2)"></path>
            <polygon id="Fill-20" fill="#FFFFFF" mask="url(#mask-2)" points="31.3160829 14.8379689 31.6336477 14.8379689 31.6336477 13.3434093 31.3160829 13.3434093"></polygon>
            <path d="M31.477001,12.7707016 C31.4191772,12.7707016 31.3750632,12.7859036 31.343913,12.8166808 C31.3127627,12.8472715 31.2973741,12.8906394 31.2973741,12.9475306 C31.2973741,13.0014373 31.3127627,13.0443389 31.343913,13.0754891 C31.3750632,13.1062663 31.4191772,13.1222145 31.477001,13.1222145 C31.5328663,13.1222145 31.576514,13.1062663 31.6073845,13.0754891 C31.6384415,13.0443389 31.6542031,13.0014373 31.6542031,12.9475306 C31.6542031,12.8906394 31.6384415,12.8472715 31.6073845,12.8166808 C31.576514,12.7859036 31.5328663,12.7707016 31.477001,12.7707016" id="Fill-21" fill="#FFFFFF" mask="url(#mask-2)"></path>
            <path d="M32.7537886,13.3162601 C32.6529699,13.3162601 32.5612912,13.3356591 32.4780995,13.3747368 C32.3953741,13.413628 32.3313016,13.4683741 32.2864415,13.539628 L32.2702135,13.539628 L32.2256332,13.3434 L31.9770839,13.3434 L31.9770839,14.8379596 L32.2945554,14.8379596 L32.2945554,14.0935244 C32.2945554,13.9067161 32.3258922,13.7742808 32.3876332,13.694913 C32.4500269,13.6153585 32.5482342,13.5759078 32.6824415,13.5759078 C32.7831668,13.5759078 32.8566591,13.6042601 32.9034777,13.6609648 C32.9499233,13.717856 32.9725865,13.8038456 32.9725865,13.9190269 L32.9725865,14.8379596 L33.2920166,14.8379596 L33.2920166,13.8638145 C33.2920166,13.4989648 33.1123896,13.3162601 32.7537886,13.3162601" id="Fill-22" fill="#FFFFFF" mask="url(#mask-2)"></path>
            <path d="M34.2627668,13.3251855 C34.2166943,13.3192166 34.1720207,13.3162321 34.1299585,13.3162321 C33.9405389,13.3162321 33.7948601,13.360999 33.6927358,13.4503461 C33.5904249,13.5396 33.5388497,13.6652269 33.5388497,13.8273202 C33.5388497,13.9279523 33.563285,14.0163668 33.6114093,14.0917244 C33.6597202,14.1667088 33.7226736,14.2209886 33.7998031,14.2540974 C33.7381554,14.2921492 33.691057,14.3307606 33.6597202,14.3691855 C33.6279171,14.4077036 33.6120622,14.4551751 33.6120622,14.5112269 C33.6120622,14.5551544 33.6259585,14.5974031 33.6531917,14.6373202 C33.6810777,14.6773306 33.715772,14.7066155 33.7579275,14.724429 C33.6540311,14.7488642 33.5724249,14.7921389 33.5143212,14.8551855 C33.4561244,14.9175793 33.4272124,14.9946155 33.4272124,15.0867606 C33.4272124,15.2200352 33.4806528,15.3226259 33.5878135,15.3949057 C33.6950674,15.4667192 33.8502591,15.5030922 34.0540415,15.5030922 C34.3177927,15.5030922 34.5199896,15.4567399 34.6593264,15.3648746 C34.7991295,15.2731026 34.8687979,15.1424394 34.8687979,14.973258 C34.8687979,14.8408228 34.8259896,14.7394446 34.7403731,14.6692166 C34.6551295,14.5989886 34.5297824,14.5636415 34.3652642,14.5636415 L34.1041244,14.5636415 C34.0184145,14.5636415 33.9594715,14.5551544 33.9274819,14.5379938 C33.8958653,14.5207399 33.8799171,14.4954653 33.8799171,14.461144 C33.8799171,14.4042528 33.9142383,14.3547295 33.9824145,14.3125741 C34.0212124,14.3195689 34.0642073,14.3232062 34.1121451,14.3232062 C34.2985803,14.3232062 34.4449119,14.2791855 34.5516062,14.190771 C34.6574611,14.1026363 34.7108083,13.9812062 34.7108083,13.8273202 C34.7108083,13.7762114 34.7033472,13.7273409 34.6879585,13.6812684 C34.6726632,13.6354756 34.6532642,13.5966777 34.6299482,13.5651544 L34.885399,13.5176829 L34.885399,13.343372 L34.3675026,13.343372 C34.3443731,13.3373098 34.3093057,13.3310611 34.2627668,13.3251855 M34.0081554,14.8328953 L34.2485907,14.8328953 C34.3749637,14.8328953 34.4610466,14.8464187 34.5073057,14.8739316 C34.5538446,14.901258 34.5769741,14.9475171 34.5769741,15.0123358 C34.5769741,15.0941285 34.5344456,15.1600663 34.4501347,15.2095896 C34.3654508,15.2592995 34.2366528,15.2840145 34.0632746,15.2840145 C33.9518238,15.2840145 33.8652746,15.2655482 33.8032539,15.228429 C33.7416062,15.1917762 33.7110155,15.1388021 33.7110155,15.0706259 C33.7110155,14.9977865 33.7375959,14.9397762 33.7912228,14.8970611 C33.8450363,14.8542528 33.9171295,14.8328953 34.0081554,14.8328953 M34.1271606,14.1194238 C34.0368808,14.1194238 33.9674922,14.0939627 33.9194611,14.0432269 C33.8717098,13.9930508 33.8475544,13.9209575 33.8475544,13.8273202 C33.8475544,13.7273409 33.8709637,13.651144 33.9182487,13.5990093 C33.9655337,13.5467813 34.0353886,13.5206674 34.1271606,13.5206674 C34.219772,13.5206674 34.2888808,13.5469679 34.3343938,13.5995689 C34.38,13.6526363 34.4025699,13.7273409 34.4025699,13.8243358 C34.4025699,14.0212166 34.3107979,14.1194238 34.1271606,14.1194238" id="Fill-23" fill="#FFFFFF" mask="url(#mask-2)"></path>
            <path d="M36.0450839,13.2464052 C36.0450839,13.1569648 36.0610321,13.0901876 36.0942342,13.0457005 C36.1269699,13.0010269 36.179571,12.9786435 36.251571,12.9786435 C36.3229181,12.9786435 36.3977161,12.991514 36.4759648,13.0164155 L36.5594363,12.7760736 C36.4515295,12.7388611 36.3418508,12.7206746 36.2297472,12.7206746 C36.059913,12.7206746 35.9333534,12.7629233 35.8500684,12.8483534 C35.767343,12.9334104 35.7260269,13.0645399 35.7260269,13.2408093 L35.7260269,13.3381772 L35.4797161,13.4350788 L35.4797161,13.5840218 L35.7260269,13.5840218 L35.7260269,14.8379596 L36.0450839,14.8379596 L36.0450839,13.5840218 L36.4098404,13.5840218 L36.4098404,13.3434 L36.0450839,13.3434 L36.0450839,13.2464052 Z" id="Fill-24" fill="#FFFFFF" mask="url(#mask-2)"></path>
            <path d="M37.1758197,13.3162601 C36.9497472,13.3162601 36.7743171,13.3844363 36.6501824,13.5206021 C36.5260477,13.6567679 36.4639337,13.8455347 36.4639337,14.0880218 C36.4639337,14.2441461 36.4923793,14.380685 36.5501098,14.4991306 C36.6076539,14.6168301 36.6901927,14.7073896 36.7977264,14.770343 C36.9047938,14.8332964 37.0280891,14.8650062 37.1676124,14.8650062 C37.3913534,14.8650062 37.565571,14.7967368 37.6908249,14.6597316 C37.8159855,14.5228197 37.8786591,14.3323741 37.8786591,14.0880218 C37.8786591,13.8521565 37.8157057,13.664229 37.6895192,13.5254518 C37.5630528,13.3862083 37.392286,13.3162601 37.1758197,13.3162601 M37.1730218,14.6056383 C36.9181306,14.6056383 36.7909181,14.4330995 36.7909181,14.0880218 C36.7909181,13.9234104 36.8209492,13.7966642 36.8805451,13.708343 C36.9403275,13.620115 37.037229,13.5759078 37.1706902,13.5759078 C37.4243689,13.5759078 37.5512083,13.7466746 37.5512083,14.0880218 C37.5512083,14.4330995 37.4253016,14.6056383 37.1730218,14.6056383" id="Fill-25" fill="#FFFFFF" mask="url(#mask-2)"></path>
            <path d="M38.6333534,13.3946767 C38.5540788,13.4470912 38.4891668,13.5176922 38.4395503,13.6071326 L38.4231358,13.6071326 L38.3813534,13.3433813 L38.1329907,13.3433813 L38.1329907,14.8380342 L38.4503689,14.8380342 L38.4503689,14.0570394 C38.4503689,13.9246041 38.4895399,13.8166974 38.568628,13.7341585 C38.6474363,13.6511534 38.7504933,13.6094642 38.8772394,13.6094642 C38.9259233,13.6094642 38.973115,13.6150601 39.0177886,13.625972 L39.0490321,13.3300446 C39.0074363,13.3210912 38.9546487,13.3162415 38.8910425,13.3162415 C38.7986176,13.3162415 38.7130943,13.342542 38.6333534,13.3946767" id="Fill-26" fill="#FFFFFF" mask="url(#mask-2)"></path>
            <path d="M40.5871648,13.3162601 C40.3904705,13.3162601 40.241714,13.391058 40.1409886,13.539628 L40.1274653,13.539628 C40.1293306,13.5194829 40.132315,13.4731306 40.1356725,13.4002912 C40.1391233,13.3272653 40.1409886,13.2721461 40.1409886,13.2354933 L40.1409886,12.7354104 L39.8237036,12.7354104 L39.8237036,14.8379596 L40.0614342,14.8379596 L40.1193513,14.6608508 L40.1409886,14.6608508 C40.2455378,14.7972964 40.3923358,14.8650062 40.5813824,14.8650062 C40.7690301,14.8650062 40.9153617,14.7967368 41.0204705,14.6601979 C41.1263254,14.5236591 41.1786466,14.3331202 41.1786466,14.0880218 C41.1786466,13.8436694 41.1270715,13.6542497 41.0227088,13.5193896 C40.9187192,13.3841565 40.7735067,13.3162601 40.5871648,13.3162601 M40.7660456,14.4718041 C40.7077554,14.5611513 40.6224187,14.6056383 40.5101285,14.6056383 C40.3792788,14.6056383 40.2853617,14.5650684 40.2275378,14.4834622 C40.1699005,14.4020425 40.1409886,14.2700736 40.1409886,14.0880218 L40.1409886,14.0662912 C40.1426674,13.889742 40.1719523,13.764115 40.2281907,13.688944 C40.2845223,13.6135865 40.3762943,13.5759078 40.5042528,13.5759078 C40.7369472,13.5759078 40.8533409,13.745742 40.8533409,14.0855969 C40.8533409,14.2538456 40.8242425,14.3828301 40.7660456,14.4718041" id="Fill-27" fill="#FFFFFF" mask="url(#mask-2)"></path>
            <path d="M42.4220269,14.0880591 C42.4220269,14.2753337 42.3909699,14.4088881 42.3281098,14.4889088 C42.2656228,14.5684632 42.1677886,14.6084736 42.0341409,14.6084736 C41.9343482,14.6084736 41.8611358,14.5795617 41.8138508,14.5224839 C41.7672187,14.4655927 41.7437161,14.3796964 41.7437161,14.2651679 L41.7437161,13.3434373 L41.4236332,13.3434373 L41.4236332,14.3205668 C41.4236332,14.5033648 41.4680269,14.6397171 41.5571876,14.7298104 C41.6464415,14.8200902 41.7816746,14.8650435 41.9626073,14.8650435 C42.0671565,14.8650435 42.1598611,14.8451782 42.2420269,14.8056342 C42.3231668,14.7659036 42.3861202,14.7116238 42.430514,14.6418622 L42.4465554,14.6418622 L42.4907627,14.8379969 L42.7411772,14.8379969 L42.7411772,13.3434373 L42.4220269,13.3434373 L42.4220269,14.0880591 Z" id="Fill-28" fill="#FFFFFF" mask="url(#mask-2)"></path>
            <path d="M43.9221824,14.0894207 C43.8663171,14.0497834 43.7765036,14.006229 43.6533016,13.9583845 C43.5062238,13.9015865 43.411001,13.8570062 43.3673534,13.8242705 C43.3238922,13.7920943 43.3021617,13.7525503 43.3021617,13.7056383 C43.3021617,13.6101358 43.3858197,13.5624777 43.5535088,13.5624777 C43.6630943,13.5624777 43.7989803,13.5959596 43.9602342,13.662457 L44.0627316,13.4231409 C43.9060477,13.3523534 43.7398508,13.3162601 43.5640477,13.3162601 C43.3865658,13.3162601 43.2462031,13.3517005 43.1430528,13.4227679 C43.0401824,13.4932756 42.9883275,13.5926021 42.9883275,13.7203741 C42.9883275,13.8267886 43.0188249,13.9132446 43.0795399,13.9798352 C43.1405347,14.0466124 43.256742,14.1132964 43.4289078,14.1801668 C43.517229,14.2140218 43.5862446,14.2446124 43.6359544,14.2717523 C43.6853845,14.298799 43.7209181,14.3250062 43.7423689,14.3501876 C43.7644725,14.3753689 43.7749181,14.4072653 43.7749181,14.4450373 C43.7749181,14.5630166 43.6771772,14.6221461 43.4816953,14.6221461 C43.3304207,14.6221461 43.166742,14.5814829 42.9913119,14.5000632 L42.9913119,14.7746332 C43.1119959,14.8351617 43.2717575,14.8650062 43.4711565,14.8650062 C43.6689699,14.8650062 43.821457,14.826115 43.9274984,14.7480528 C44.0337264,14.6702705 44.0872601,14.5583534 44.0872601,14.4123948 C44.0872601,14.3403016 44.0736435,14.2782808 44.0467834,14.2264259 C44.0196435,14.1744777 43.9780477,14.1294311 43.9221824,14.0894207" id="Fill-29" fill="#FFFFFF" mask="url(#mask-2)"></path>
            <path d="M44.4803036,12.7707016 C44.4225731,12.7707016 44.3782725,12.7859036 44.3472155,12.8166808 C44.3164383,12.8472715 44.3003969,12.8906394 44.3003969,12.9475306 C44.3003969,13.0014373 44.3164383,13.0443389 44.3472155,13.0754891 C44.3782725,13.1062663 44.4225731,13.1222145 44.4803036,13.1222145 C44.5361689,13.1222145 44.5793503,13.1062663 44.610687,13.0754891 C44.6420238,13.0443389 44.6572259,13.0014373 44.6572259,12.9475306 C44.6572259,12.8906394 44.6420238,12.8472715 44.610687,12.8166808 C44.5793503,12.7859036 44.5361689,12.7707016 44.4803036,12.7707016" id="Fill-30" fill="#FFFFFF" mask="url(#mask-2)"></path>
            <polygon id="Fill-31" fill="#FFFFFF" mask="url(#mask-2)" points="44.3196373 14.8379689 44.6372953 14.8379689 44.6372953 13.3434093 44.3196373 13.3434093"></polygon>
            <path d="M45.757315,13.3162601 C45.6564964,13.3162601 45.5648176,13.3356591 45.4819057,13.3747368 C45.3989005,13.413628 45.3349212,13.4683741 45.2899679,13.539628 L45.2735534,13.539628 L45.2289731,13.3434 L44.9804238,13.3434 L44.9804238,14.8379596 L45.2978953,14.8379596 L45.2978953,14.0935244 C45.2978953,13.9067161 45.3292321,13.7742808 45.3914394,13.694913 C45.4533668,13.6153585 45.5515741,13.5759078 45.6857813,13.5759078 C45.7867865,13.5759078 45.860372,13.6042601 45.9069109,13.6609648 C45.9533565,13.717856 45.976486,13.8038456 45.976486,13.9190269 L45.976486,14.8379596 L46.295543,14.8379596 L46.295543,13.8638145 C46.295543,13.4989648 46.1159161,13.3162601 45.757315,13.3162601" id="Fill-32" fill="#FFFFFF" mask="url(#mask-2)"></path>
            <path d="M47.2212187,13.3162601 C47.0084829,13.3162601 46.8415399,13.3863016 46.7200166,13.5259181 C46.5981202,13.6654415 46.5373119,13.8574725 46.5373119,14.1017316 C46.5373119,14.3393689 46.6025969,14.5261772 46.7340062,14.6617834 C46.8649492,14.7974829 47.046628,14.8650062 47.279229,14.8650062 C47.3809803,14.8650062 47.4716332,14.8574518 47.5509078,14.8422497 C47.6299959,14.8269544 47.7082446,14.8007472 47.7861202,14.7639078 L47.7861202,14.5054725 C47.6986383,14.5442705 47.6171254,14.5721565 47.5404622,14.5887575 C47.4645451,14.6056383 47.3820995,14.6138456 47.2939648,14.6138456 C47.159571,14.6138456 47.0556746,14.5750477 46.9818093,14.4967057 C46.9081306,14.4188301 46.8688663,14.3077523 46.8644829,14.1622601 L47.8599855,14.1622601 L47.8599855,13.9910269 C47.8599855,13.7808093 47.8029078,13.6161047 47.6888456,13.4962601 C47.5741306,13.3764155 47.4183793,13.3162601 47.2212187,13.3162601 L47.2212187,13.3162601 Z M46.8697057,13.9327368 C46.8815503,13.8100943 46.9177368,13.7170166 46.9787316,13.6531306 C47.0395399,13.5888715 47.1202135,13.5570684 47.2212187,13.5570684 C47.3222238,13.5570684 47.4013119,13.5888715 47.4587627,13.652571 C47.5167731,13.7158041 47.5461513,13.8089751 47.5481098,13.9327368 L46.8697057,13.9327368 Z" id="Fill-33" fill="#FFFFFF" mask="url(#mask-2)"></path>
            <path d="M48.9497969,14.0894207 C48.8939316,14.0497834 48.8039316,14.006229 48.6807295,13.9583845 C48.5339316,13.9015865 48.438429,13.8570062 48.3945016,13.8242705 C48.3512269,13.7920943 48.3293098,13.7525503 48.3293098,13.7056383 C48.3293098,13.6101358 48.4129679,13.5624777 48.580657,13.5624777 C48.6908021,13.5624777 48.8261285,13.5959596 48.9873824,13.662457 L49.0901596,13.4231409 C48.9331959,13.3523534 48.7671855,13.3162601 48.5910093,13.3162601 C48.4139005,13.3162601 48.2736311,13.3517005 48.1702943,13.4227679 C48.0674238,13.4932756 48.0156622,13.5926021 48.0156622,13.7203741 C48.0156622,13.8267886 48.0461596,13.9132446 48.1071544,13.9798352 C48.1682425,14.0466124 48.2843565,14.1132964 48.456429,14.1801668 C48.5448435,14.2140218 48.6135793,14.2446124 48.6631959,14.2717523 C48.7124394,14.298799 48.7485326,14.3250062 48.7698902,14.3501876 C48.7915275,14.3753689 48.8024394,14.4072653 48.8024394,14.4450373 C48.8024394,14.5630166 48.7047917,14.6221461 48.5087503,14.6221461 C48.3574756,14.6221461 48.1940767,14.5814829 48.0185534,14.5000632 L48.0185534,14.7746332 C48.139144,14.8351617 48.2992788,14.8650062 48.4983047,14.8650062 C48.6965845,14.8650062 48.8485119,14.826115 48.9552062,14.7480528 C49.0613409,14.6702705 49.1145948,14.5583534 49.1145948,14.4123948 C49.1145948,14.3403016 49.1010715,14.2782808 49.0742114,14.2264259 C49.046885,14.1744777 49.0054756,14.1294311 48.9497969,14.0894207" id="Fill-34" fill="#FFFFFF" mask="url(#mask-2)"></path>
            <path d="M50.1861824,14.0894207 C50.1300373,14.0497834 50.0405036,14.006229 49.9168352,13.9583845 C49.7702238,13.9015865 49.6750943,13.8570062 49.6313534,13.8242705 C49.5876124,13.7920943 49.5658819,13.7525503 49.5658819,13.7056383 C49.5658819,13.6101358 49.6498197,13.5624777 49.8170425,13.5624777 C49.9269078,13.5624777 50.0627005,13.5959596 50.2240477,13.662457 L50.3267316,13.4231409 C50.1700477,13.3523534 50.0032912,13.3162601 49.8279544,13.3162601 C49.6505658,13.3162601 49.5102031,13.3517005 49.4070528,13.4227679 C49.3038093,13.4932756 49.2523275,13.5926021 49.2523275,13.7203741 C49.2523275,13.8267886 49.2824518,13.9132446 49.3435399,13.9798352 C49.4043482,14.0466124 49.5208352,14.1132964 49.692628,14.1801668 C49.7809492,14.2140218 49.850058,14.2446124 49.8994881,14.2717523 C49.9492912,14.298799 49.9846383,14.3250062 50.0063689,14.3501876 C50.027913,14.3753689 50.0389181,14.4072653 50.0389181,14.4450373 C50.0389181,14.5630166 49.9411772,14.6221461 49.7456953,14.6221461 C49.5944207,14.6221461 49.4306487,14.5814829 49.2549389,14.5000632 L49.2549389,14.7746332 C49.3758093,14.8351617 49.5354777,14.8650062 49.7349699,14.8650062 C49.9329699,14.8650062 50.0853637,14.826115 50.1913119,14.7480528 C50.2977264,14.6702705 50.3510736,14.5583534 50.3510736,14.4123948 C50.3510736,14.3403016 50.3371772,14.2782808 50.3105969,14.2264259 C50.283457,14.1744777 50.2420477,14.1294311 50.1861824,14.0894207" id="Fill-35" fill="#FFFFFF" mask="url(#mask-2)"></path>
            <path d="M51.8173088,13.5812984 C51.9048839,13.5812984 52.0154953,13.6073192 52.1496093,13.6593606 L52.245858,13.4044694 C52.119858,13.345713 51.9777233,13.3162415 51.8202933,13.3162415 C51.587599,13.3162415 51.4099306,13.3841378 51.286915,13.519371 C51.1638062,13.6542311 51.1025316,13.8473813 51.1025316,14.0987285 C51.1025316,14.3460653 51.1613813,14.5352984 51.278801,14.6670808 C51.3960342,14.7992363 51.5682933,14.8650808 51.794086,14.8650808 C51.8860446,14.8650808 51.9643865,14.8581793 52.0286456,14.8433503 C52.0934642,14.8291741 52.1538995,14.8052052 52.2105109,14.7719098 L52.2105109,14.494915 C52.0844176,14.5650497 51.9507699,14.6001171 51.8091948,14.6001171 C51.6849668,14.6001171 51.5903969,14.5581482 51.5262311,14.4736508 C51.4616922,14.3894332 51.4296093,14.2638062 51.4296093,14.0963969 C51.4296093,13.7530912 51.5588736,13.5812984 51.8173088,13.5812984" id="Fill-36" fill="#FFFFFF" mask="url(#mask-2)"></path>
            <path d="M53.0741845,13.3162601 C52.8478321,13.3162601 52.6727751,13.3844363 52.5486404,13.5206021 C52.4242259,13.6567679 52.3622052,13.8455347 52.3622052,14.0880218 C52.3622052,14.2441461 52.390744,14.380685 52.4485679,14.4991306 C52.5060187,14.6168301 52.5885575,14.7073896 52.6960912,14.770343 C52.8031585,14.8332964 52.9263606,14.8650062 53.0659772,14.8650062 C53.2895316,14.8650062 53.4637492,14.7967368 53.5890964,14.6597316 C53.7143503,14.5228197 53.7768373,14.3323741 53.7768373,14.0880218 C53.7768373,13.8521565 53.7136041,13.664229 53.5878839,13.5254518 C53.4616041,13.3862083 53.290744,13.3162601 53.0741845,13.3162601 M53.0715731,14.6056383 C52.8167751,14.6056383 52.6890964,14.4330995 52.6890964,14.0880218 C52.6890964,13.9234104 52.7190342,13.7966642 52.7789098,13.708343 C52.8387855,13.620115 52.9355938,13.5759078 53.0688684,13.5759078 C53.3232,13.5759078 53.4499461,13.7466746 53.4499461,14.0880218 C53.4499461,14.4330995 53.3234798,14.6056383 53.0715731,14.6056383" id="Fill-37" fill="#FFFFFF" mask="url(#mask-2)"></path>
            <polygon id="Fill-38" fill="#FFFFFF" mask="url(#mask-2)" points="54.0311503 14.8379689 54.3484352 14.8379689 54.3484352 12.7354197 54.0311503 12.7354197"></polygon>
            <polygon id="Fill-39" fill="#FFFFFF" mask="url(#mask-2)" points="54.6919275 14.8379689 55.009399 14.8379689 55.009399 12.7354197 54.6919275 12.7354197"></polygon>
            <path d="M55.9392435,13.3162601 C55.8537202,13.3162601 55.7627876,13.3275451 55.6663523,13.3495554 C55.5698238,13.3717523 55.4811295,13.404115 55.4001762,13.4462705 L55.5027668,13.6731824 C55.5675855,13.6424984 55.6352953,13.6161047 55.7052435,13.5937212 C55.7761244,13.5708715 55.8487772,13.5598663 55.9257202,13.5598663 C56.0194508,13.5598663 56.0888394,13.5833689 56.1333264,13.6307472 C56.1779067,13.6776591 56.2001036,13.7494725 56.2001036,13.8451617 L56.2001036,13.9245295 L55.9421347,13.9327368 C55.7079482,13.9398249 55.5333575,13.9827264 55.4192021,14.0610684 C55.304487,14.1393171 55.2472228,14.2556176 55.2472228,14.4095036 C55.2472228,14.5549959 55.2886321,14.666913 55.3708912,14.7461876 C55.4534301,14.8252756 55.5682383,14.8650062 55.714943,14.8650062 C55.8293782,14.8650062 55.9232021,14.8484984 55.9961347,14.8156694 C56.0693472,14.7829337 56.1416269,14.7210062 56.2135337,14.6300736 L56.2245389,14.6300736 L56.2881451,14.8379596 L56.5146839,14.8379596 L56.5146839,13.8313585 C56.5146839,13.6536902 56.4665596,13.5236798 56.3697513,13.4409544 C56.272943,13.3577627 56.1291295,13.3162601 55.9392435,13.3162601 L55.9392435,13.3162601 Z M56.1974922,14.2541254 C56.1974922,14.370799 56.1624249,14.4607057 56.0927565,14.5252446 C56.0226218,14.5895969 55.9301969,14.6221461 55.8149223,14.6221461 C55.7356477,14.6221461 55.6763316,14.6039596 55.636601,14.5672135 C55.5969637,14.5307472 55.5768187,14.4789855 55.5768187,14.4123948 C55.5768187,14.3206228 55.6112332,14.2524466 55.6792228,14.2077731 C55.7471192,14.1631927 55.8559585,14.1381047 56.0055544,14.1327886 L56.1974922,14.1245813 L56.1974922,14.2541254 Z" id="Fill-40" fill="#FFFFFF" mask="url(#mask-2)"></path>
            <path d="M57.6108,13.3162601 C57.4146653,13.3162601 57.2660021,13.391058 57.1649969,13.539628 L57.1518466,13.539628 C57.1533389,13.5194829 57.1557637,13.4731306 57.1598674,13.4002912 C57.1630383,13.3272653 57.1649969,13.2721461 57.1649969,13.2354933 L57.1649969,12.7354104 L56.8473389,12.7354104 L56.8473389,14.8379596 L57.0848829,14.8379596 L57.1433596,14.6608508 L57.1649969,14.6608508 C57.2692663,14.7972964 57.4162508,14.8650062 57.6053907,14.8650062 C57.7926653,14.8650062 57.9392767,14.7967368 58.0447585,14.6601979 C58.1499606,14.5236591 58.2028415,14.3331202 58.2028415,14.0880218 C58.2028415,13.8436694 58.1506135,13.6542497 58.0469036,13.5193896 C57.942914,13.3841565 57.7974218,13.3162601 57.6108,13.3162601 M57.7899606,14.4718041 C57.7319503,14.5611513 57.6466135,14.6056383 57.5336705,14.6056383 C57.4031938,14.6056383 57.3089969,14.5650684 57.2513596,14.4834622 C57.193629,14.4020425 57.1649969,14.2700736 57.1649969,14.0880218 L57.1649969,14.0662912 C57.1670487,13.889742 57.1958674,13.764115 57.2522922,13.688944 C57.308344,13.6135865 57.4006756,13.5759078 57.5284477,13.5759078 C57.7608622,13.5759078 57.8769762,13.745742 57.8769762,14.0855969 C57.8769762,14.2538456 57.8481575,14.3828301 57.7899606,14.4718041" id="Fill-41" fill="#FFFFFF" mask="url(#mask-2)"></path>
            <path d="M59.084086,13.3162601 C58.8574539,13.3162601 58.6823036,13.3844363 58.5581689,13.5206021 C58.4337544,13.6567679 58.3718269,13.8455347 58.3718269,14.0880218 C58.3718269,14.2441461 58.4004591,14.380685 58.4580964,14.4991306 C58.5158269,14.6168301 58.5984591,14.7073896 58.705713,14.770343 C58.8128736,14.8332964 58.9360756,14.8650062 59.0756922,14.8650062 C59.2992466,14.8650062 59.473371,14.7967368 59.5987181,14.6597316 C59.723972,14.5228197 59.7865523,14.3323741 59.7865523,14.0880218 C59.7865523,13.8521565 59.7236922,13.664229 59.5975057,13.5254518 C59.4712259,13.3862083 59.3002725,13.3162601 59.084086,13.3162601 M59.0812881,14.6056383 C58.8265834,14.6056383 58.6986249,14.4330995 58.6986249,14.0880218 C58.6986249,13.9234104 58.7288425,13.7966642 58.7888114,13.708343 C58.8484073,13.620115 58.9452155,13.5759078 59.0783969,13.5759078 C59.332915,13.5759078 59.4595679,13.7466746 59.4595679,14.0880218 C59.4595679,14.4330995 59.3333813,14.6056383 59.0812881,14.6056383" id="Fill-42" fill="#FFFFFF" mask="url(#mask-2)"></path>
            <path d="M60.5416104,13.3946767 C60.4618694,13.4470912 60.396771,13.5176922 60.3476207,13.6071326 L60.331486,13.6071326 L60.289144,13.3433813 L60.0408746,13.3433813 L60.0408746,14.8380342 L60.3581596,14.8380342 L60.3581596,14.0570394 C60.3581596,13.9246041 60.3976104,13.8166974 60.4764187,13.7341585 C60.5553202,13.6511534 60.6585637,13.6094642 60.7857762,13.6094642 C60.834087,13.6094642 60.8809057,13.6150601 60.9257658,13.625972 L60.9568228,13.3300446 C60.9155067,13.3210912 60.8626259,13.3162415 60.7990197,13.3162415 C60.7068746,13.3162415 60.6211648,13.342542 60.5416104,13.3946767" id="Fill-43" fill="#FFFFFF" mask="url(#mask-2)"></path>
            <path d="M61.7096891,13.3162601 C61.6243523,13.3162601 61.5331399,13.3275451 61.4367979,13.3495554 C61.3407358,13.3717523 61.2519482,13.404115 61.1706218,13.4462705 L61.273399,13.6731824 C61.3383109,13.6424984 61.4059275,13.6161047 61.4761554,13.5937212 C61.5462902,13.5708715 61.6196891,13.5598663 61.6961658,13.5598663 C61.7896166,13.5598663 61.8591917,13.5833689 61.903772,13.6307472 C61.9482591,13.6776591 61.970456,13.7494725 61.970456,13.8451617 L61.970456,13.9245295 L61.712487,13.9327368 C61.4783005,13.9398249 61.3040829,13.9827264 61.1897409,14.0610684 C61.0752124,14.1393171 61.0181347,14.2556176 61.0181347,14.4095036 C61.0181347,14.5549959 61.0589845,14.666913 61.1415233,14.7461876 C61.2240622,14.8252756 61.3388705,14.8650062 61.4855751,14.8650062 C61.5998238,14.8650062 61.6933679,14.8484984 61.766487,14.8156694 C61.8396062,14.7829337 61.9121658,14.7210062 61.9839793,14.6300736 L61.9947979,14.6300736 L62.0584974,14.8379596 L62.2856891,14.8379596 L62.2856891,13.8313585 C62.2856891,13.6536902 62.2371917,13.5236798 62.1399171,13.4409544 C62.0432953,13.3577627 61.8997617,13.3162601 61.7096891,13.3162601 L61.7096891,13.3162601 Z M61.9679378,14.2541254 C61.9679378,14.370799 61.9328705,14.4607057 61.8633886,14.5252446 C61.7932539,14.5895969 61.7010155,14.6221461 61.5853679,14.6221461 C61.5060933,14.6221461 61.4467772,14.6039596 61.4071399,14.5672135 C61.3674093,14.5307472 61.3478238,14.4789855 61.3478238,14.4123948 C61.3478238,14.3206228 61.3816788,14.2524466 61.4494819,14.2077731 C61.5177513,14.1631927 61.6263109,14.1381047 61.7764663,14.1327886 L61.9679378,14.1245813 L61.9679378,14.2541254 Z" id="Fill-44" fill="#FFFFFF" mask="url(#mask-2)"></path>
            <path d="M63.0242301,14.5538301 C62.9861782,14.5172705 62.966686,14.4606591 62.966686,14.3841824 L62.966686,13.5840684 L63.3921575,13.5840684 L63.3921575,13.3433534 L62.966686,13.3433534 L62.966686,13.0111461 L62.770458,13.0111461 L62.6626446,13.3273119 L62.4436601,13.4435192 L62.4436601,13.5840684 L62.6478155,13.5840684 L62.6478155,14.3894052 C62.6478155,14.7065969 62.7981575,14.8650528 63.0991212,14.8650528 C63.158344,14.8650528 63.2161679,14.8597368 63.271287,14.8494777 C63.3270591,14.8393119 63.3720124,14.8261617 63.4069865,14.8109596 L63.4069865,14.5721098 C63.3294839,14.596172 63.2518881,14.6084829 63.1747585,14.6084829 C63.1125513,14.6084829 63.0626549,14.5903896 63.0242301,14.5538301" id="Fill-45" fill="#FFFFFF" mask="url(#mask-2)"></path>
            <path d="M63.7560373,12.7707016 C63.6983067,12.7707016 63.6538197,12.7859036 63.6227627,12.8166808 C63.5917057,12.8472715 63.5760373,12.8906394 63.5760373,12.9475306 C63.5760373,13.0014373 63.5917057,13.0443389 63.6227627,13.0754891 C63.6538197,13.1062663 63.6983067,13.1222145 63.7560373,13.1222145 C63.8119026,13.1222145 63.8548974,13.1062663 63.8860477,13.0754891 C63.9171047,13.0443389 63.9328663,13.0014373 63.9328663,12.9475306 C63.9328663,12.8906394 63.9171047,12.8472715 63.8860477,12.8166808 C63.8548974,12.7859036 63.8119026,12.7707016 63.7560373,12.7707016" id="Fill-46" fill="#FFFFFF" mask="url(#mask-2)"></path>
            <polygon id="Fill-47" fill="#FFFFFF" mask="url(#mask-2)" points="63.5953057 14.8379689 63.9126839 14.8379689 63.9126839 13.3434093 63.5953057 13.3434093"></polygon>
            <path d="M64.8790415,13.3162601 C64.6529689,13.3162601 64.4778187,13.3844363 64.3534974,13.5206021 C64.2288031,13.6567679 64.1665959,13.8455347 64.1665959,14.0880218 C64.1665959,14.2441461 64.195601,14.380685 64.2536114,14.4991306 C64.3111554,14.6168301 64.3934145,14.7073896 64.5003886,14.770343 C64.607829,14.8332964 64.7312176,14.8650062 64.8708342,14.8650062 C65.0942021,14.8650062 65.268513,14.7967368 65.3936736,14.6597316 C65.5189275,14.5228197 65.5814145,14.3323741 65.5814145,14.0880218 C65.5814145,13.8521565 65.5183679,13.664229 65.3924611,13.5254518 C65.2664611,13.3862083 65.0950415,13.3162601 64.8790415,13.3162601 M64.8762435,14.6056383 C64.6213523,14.6056383 64.4939534,14.4330995 64.4939534,14.0880218 C64.4939534,13.9234104 64.5237047,13.7966642 64.5837668,13.708343 C64.6435492,13.620115 64.7403575,13.5759078 64.8736321,13.5759078 C65.1275907,13.5759078 65.2548031,13.7466746 65.2548031,14.0880218 C65.2548031,14.4330995 65.1285233,14.6056383 64.8762435,14.6056383" id="Fill-48" fill="#FFFFFF" mask="url(#mask-2)"></path>
            <path d="M66.6127119,13.3162601 C66.5121731,13.3162601 66.4198415,13.3356591 66.3373026,13.3747368 C66.2542974,13.413628 66.1903181,13.4683741 66.1453648,13.539628 L66.128857,13.539628 L66.0845565,13.3434 L65.8358207,13.3434 L65.8358207,14.8379596 L66.1532922,14.8379596 L66.1532922,14.0935244 C66.1532922,13.9067161 66.1844425,13.7742808 66.2465565,13.694913 C66.3087637,13.6153585 66.406971,13.5759078 66.5411782,13.5759078 C66.6421834,13.5759078 66.7158622,13.6042601 66.7623078,13.6609648 C66.8083803,13.717856 66.8317896,13.8038456 66.8317896,13.9190269 L66.8317896,14.8379596 L67.150287,14.8379596 L67.150287,13.8328508 C67.1403078,13.4886124 66.9611472,13.3162601 66.6127119,13.3162601" id="Fill-49" fill="#FFFFFF" mask="url(#mask-2)"></path>
            <path d="M6.85501554,9.61456477 C6.58995855,10.1565233 6.44092228,10.7639534 6.44092228,11.404772 C6.44092228,11.8595285 6.55274611,12.414544 6.74468394,12.9236736 C6.89950259,12.8968135 7.05264249,12.8619326 7.20326425,12.8173523 C7.45321244,12.7447927 7.6977513,12.6468653 7.93025907,12.5269275 C8.16565803,12.4059637 8.38706736,12.2624301 8.59308808,12.0999637 C8.80255959,11.9330207 8.99626943,11.7464922 9.16964767,11.5421503 C9.27289119,11.4196943 9.36951295,11.2908031 9.45848705,11.1562228 C8.43593782,10.9280052 7.53388601,10.3902435 6.85501554,9.61456477" id="Fill-50" fill="#FFFFFF" mask="url(#mask-2)"></path>
            <path d="M6.72063109,7.8633513 C6.76204041,7.96799378 6.80764663,8.07319585 6.85763627,8.17382798 C7.52708705,7.41549637 8.4287658,6.86458446 9.45047565,6.63571399 C9.09700415,6.10382798 8.61314922,5.64664663 8.01495233,5.3201285 C7.61167772,5.09974508 7.18256891,4.95024249 6.73527358,4.87516477 C6.65208187,5.08491606 6.58465181,5.30390052 6.53634093,5.5269886 C6.48280725,5.78113368 6.45184352,6.04329948 6.44503523,6.30537202 C6.44083834,6.5673513 6.45967772,6.83324767 6.50528394,7.09177617 C6.55135648,7.3551544 6.62400933,7.61461554 6.72063109,7.8633513" id="Fill-51" fill="#FFFFFF" mask="url(#mask-2)"></path>
            <path d="M7.30658238,8.89554404 C7.89414715,9.65070466 8.71934922,10.1723316 9.66682073,10.376487 C9.72744249,10.3902902 9.78778446,10.4009223 9.84803316,10.4119275 C10.246085,9.41418653 10.2218363,8.32989637 9.8414114,7.38093264 C8.81727668,7.55272539 7.92082073,8.10895337 7.30658238,8.89554404" id="Fill-52" fill="#FFFFFF" mask="url(#mask-2)"></path>
            <path d="M8.97568601,9.32642487e-06 C4.01850466,9.32642487e-06 2.79792746e-05,4.01867254 2.79792746e-05,8.97594715 C2.79792746e-05,13.9332218 4.01850466,17.951885 8.97568601,17.951885 C13.9331472,17.951885 17.9518104,13.9332218 17.9518104,8.97594715 C17.9518104,4.01867254 13.9331472,9.32642487e-06 8.97568601,9.32642487e-06 M15.0260176,13.3080715 C14.9401212,13.5124135 14.7017378,13.6092218 14.4973959,13.5218332 C14.2931472,13.4359368 14.1966187,13.1991389 14.2838207,12.9933979 C14.4962767,12.4910767 14.6036238,11.9559264 14.6036238,11.404828 C14.6036238,11.1295119 14.5756446,10.8510249 14.5218311,10.5808383 C14.4502974,10.2503098 14.3390332,9.92612332 14.192515,9.62273472 C13.8965876,9.95755337 13.5583181,10.2476984 13.1776135,10.4936363 C12.318743,11.0473461 11.3279969,11.3150145 10.3308155,11.2715534 C10.1751575,11.5526518 9.99068083,11.818828 9.78512642,12.0636466 C9.57677409,12.3080922 9.34547876,12.5326725 9.09431813,12.7316984 C8.8486601,12.926714 8.58071192,13.0997192 8.29989326,13.2434394 C8.02149948,13.3875326 7.72864974,13.504113 7.42880518,13.5916881 C7.13203834,13.6790767 6.8211886,13.738486 6.50940622,13.767771 C6.3672715,13.7811078 6.22308497,13.7876363 6.07805907,13.7876363 C5.59149948,13.7876363 5.09701244,13.7153565 4.6251886,13.5759264 C4.30762383,13.4774394 4.00153057,13.3486415 3.70952021,13.1886933 C3.13202798,12.872714 2.63194508,12.4518124 2.22577927,11.9382995 C2.08746839,11.7638953 2.11712642,11.5097503 2.29162383,11.3713461 C2.46630777,11.2328487 2.71868083,11.2623202 2.85773782,11.4373772 C3.19610052,11.8659264 3.61308497,12.2166933 4.09675337,12.4812839 C4.33998653,12.614372 4.59720933,12.7221855 4.85890881,12.8026725 C5.19895026,12.9048902 5.5549399,12.9642995 5.90878446,12.9777295 C5.73400725,12.4450974 5.63430777,11.8821544 5.63430777,11.404828 C5.63430777,10.4870145 5.88845285,9.62786425 6.33080518,8.89256891 C6.18960311,8.65763627 6.06863938,8.41011295 5.96912642,8.15606114 C5.85366528,7.85752228 5.76627668,7.54760518 5.71106425,7.23022694 C5.65743731,6.91956373 5.63328187,6.60377098 5.6397171,6.28919067 C5.64652539,5.9745171 5.68271192,5.66133575 5.74855648,5.35645492 C5.81458756,5.04980207 5.90990363,4.74883834 6.03357202,4.4625171 C6.27960311,3.89127358 6.64939585,3.35090052 7.09958238,2.89940829 C7.33861865,2.66559482 7.59938549,2.45845492 7.87647358,2.27966736 C8.15337513,2.10115959 8.44361347,1.95156373 8.74606943,1.83349119 C9.04749948,1.71485907 9.36012124,1.62784352 9.68309534,1.57123212 C9.90347876,1.53224767 10.1118311,1.67895233 10.1496031,1.89896269 C10.1883078,2.11794715 10.0416964,2.32657927 9.82317824,2.36584352 C9.2835513,2.45976062 8.77684663,2.65850674 8.31350984,2.95695233 L8.31350984,2.95853782 C8.08212124,3.10766736 7.86425596,3.28113886 7.66681554,3.47326321 C7.46648394,3.67340829 7.28517824,3.8953772 7.12905389,4.13077617 C7.57112642,4.2298228 7.99753057,4.39126321 8.40173782,4.61164663 C9.24064974,5.07143938 9.8913544,5.74172953 10.324287,6.52188497 C10.7178622,6.50528394 11.1184321,6.53671399 11.506971,6.6159886 C11.8202456,6.68024767 12.1293233,6.77584352 12.4247845,6.90091088 C12.7139969,7.02271399 12.9934166,7.17510777 13.2555824,7.35258964 C13.5149503,7.52718031 13.7583699,7.72881762 13.9788466,7.94920104 C14.1993233,8.16818549 14.3995617,8.41281762 14.5756446,8.67227876 C14.922401,9.18989534 15.1764528,9.79210259 15.3109399,10.4171596 C15.3765979,10.743771 15.4100798,11.0756052 15.4100798,11.404828 C15.4100798,12.0648591 15.2811886,12.7047451 15.0260176,13.3080715" id="Fill-53" fill="#FFFFFF" mask="url(#mask-2)"></path>
            <path d="M12.803801,8.02032435 C12.5849098,7.87240725 12.3523088,7.74640725 12.1104746,7.64381658 C11.864257,7.53926736 11.6064746,7.46008601 11.3457078,7.40617927 C11.1279358,7.36169223 10.9048477,7.33492539 10.6816663,7.32662487 C11.0202155,8.32417927 11.0389617,9.4275886 10.6868891,10.4666456 C11.4098736,10.4397855 12.1157907,10.2182829 12.7408477,9.81612746 C13.1278943,9.56599275 13.4655109,9.25840725 13.744744,8.89971295 C13.6397285,8.76653161 13.5284642,8.63894611 13.4088995,8.51900829 C13.2246093,8.33499793 13.0204539,8.16693575 12.803801,8.02032435" id="Fill-54" fill="#FFFFFF" mask="url(#mask-2)"></path>
        </g>
    </g>
</svg>