<?xml version="1.0" encoding="UTF-8"?>
<svg width="100px" height="50px" viewBox="0 0 100 50" version="1.1" xmlns="http://www.w3.org/2000/svg" xmlns:xlink="http://www.w3.org/1999/xlink">
    <!-- Generator: Sketch 57.1 (83088) - https://sketch.com -->
    <title>partners logos</title>
    <desc>Created with Sketch.</desc>
    <defs>
        <polygon id="path-1" points="0 0.0388953125 13.4345406 0.0388953125 13.4345406 10.7766141 0 10.7766141"></polygon>
        <polygon id="path-3" points="0 21.828125 45.3915 21.828125 45.3915 0.099515625 0 0.099515625"></polygon>
    </defs>
    <g id="partners-logos" stroke="none" stroke-width="1" fill="none" fill-rule="evenodd">
        <g id="park-inn" transform="translate(27.000000, 14.000000)">
            <g id="Group-42">
                <polygon id="Fill-1" fill="#FFFFFF" points="0 17.8239531 45.3878906 17.8239531 45.3878906 17.6520781 0 17.6520781"></polygon>
                <g id="Group-41" transform="translate(0.000000, 0.072359)">
                    <path d="M33.2028469,14.6353109 C33.2263937,14.6066078 33.2483937,14.5626078 33.367675,14.5335609 C33.367675,14.5335609 37.4251281,13.1558109 42.822175,13.4313266 C42.822175,13.4313266 43.1286281,13.4199828 43.0456125,13.5538734 C42.9966281,13.6325922 42.9057063,13.6374047 42.7326281,13.6468578 C42.7326281,13.6468578 42.6738469,13.6556234 42.4443938,13.6532172 C42.4443938,13.6532172 42.9961125,13.8675453 40.817425,13.8226859 C40.817425,13.8226859 41.009925,14.0191391 40.2086438,13.9625922 C40.2086438,13.9625922 37.9742688,13.8606703 33.4580813,14.6794828 C33.4580813,14.6794828 33.1031594,14.7559672 33.2028469,14.6353109" id="Fill-2" fill="#FFFFFF"></path>
                    <path d="M45.1508406,12.7900094 C45.1508406,12.7900094 45.7826531,13.3111344 44.9987313,13.2843219 C44.9987313,13.2843219 44.84645,13.2958375 44.7532938,12.9821656 C44.7532938,12.9821656 44.4837938,12.3668531 44.5033875,12.1341344 C44.4767469,12.1636969 44.3273875,12.34365 44.2423094,12.5421656 C44.1929813,12.6574937 44.1728719,12.6971969 44.1020594,12.8073687 C44.0633875,12.8621969 44.0264344,12.9120406 43.9915438,12.9436656 C43.6457313,13.2647281 43.6118719,12.8548062 43.6118719,12.8548062 C43.5407156,12.5055562 43.7199813,11.9449 43.7199813,11.9449 C43.8500906,11.5578375 44.0410438,11.7171656 44.0410438,11.7171656 C44.3067625,11.7866031 44.1995125,12.0421812 44.1995125,12.0421812 C44.1427938,12.2372594 44.0920906,12.1948062 44.0920906,12.1948062 C44.0264344,12.2382906 44.0083875,12.3314469 44.0037469,12.3907437 C44.0037469,12.3907437 43.9793406,12.6073062 44.0759344,12.4411031 C44.1491531,12.2932906 44.2897469,12.04665 44.3923563,11.9677594 C44.3923563,11.9677594 44.5437781,11.8068844 44.6321219,11.9392281 C44.6321219,11.9392281 45.0131688,12.705275 45.1508406,12.7900094 M34.3476375,14.4406969 C34.5092,14.6661969 34.6332937,14.825525 34.5994344,14.8554312 C34.4894344,14.95065 33.9940906,14.5639312 33.9940906,14.5639312 C33.1326531,13.8496187 32.7516062,12.9388531 32.6684188,12.71765 C32.6560437,12.6855094 32.68045,12.6568062 32.68045,12.6568062 C32.7098406,12.6239781 32.7571062,12.6055875 32.8817156,12.5920094 C32.8812,12.5920094 32.8820594,12.5921812 32.8820594,12.5921812 C32.8158875,12.5602125 32.7956062,12.5517906 32.8012781,12.5301344 C32.813825,12.4943844 32.9346531,12.4954156 32.9346531,12.4954156 C33.0300437,12.4911188 33.0991375,12.4854469 33.0991375,12.4854469 C33.2387,12.4703219 33.3093406,12.4572594 33.3093406,12.4572594 C33.6070281,12.4098219 33.7233875,12.2805719 33.7233875,12.2805719 C34.0176375,11.9828844 33.5451531,11.6839937 33.5451531,11.6839937 C32.3482156,10.9963219 31.383825,11.3221969 31.383825,11.3221969 C31.3314031,11.3373219 31.2913562,11.3376656 31.23395,11.3189312 C31.1083094,11.2769937 31.3314031,11.099275 31.3314031,11.099275 C31.925575,10.6073687 32.2370125,10.7548375 32.2370125,10.7548375 C33.3906375,10.8313219 33.8983562,11.4344312 33.8983562,11.4344312 C34.3002,11.8598219 34.1960438,12.1989312 34.1417312,12.2974156 C33.9452781,12.6574937 33.4791531,12.6660875 33.4791531,12.6660875 C33.4066219,12.6705562 33.3432,12.672275 33.286825,12.6726187 C33.34045,12.7334625 33.3796375,12.8401969 33.3796375,12.8401969 C33.4690125,13.1208687 34.3476375,14.4406969 34.3476375,14.4406969 M32.7976688,11.5513062 C32.8624656,11.6693844 32.7760125,11.8570719 32.7760125,11.8570719 C32.4021844,12.6217437 31.9348563,14.4269469 31.8413563,14.7954469 L31.8434188,14.7947594 C31.8434188,14.7947594 31.8411844,14.8004312 31.8379188,14.8107437 C31.8291531,14.8439156 31.8248562,14.8616187 31.8248562,14.8616187 C31.8188406,14.8889469 31.8121375,14.9133531 31.8054344,14.9362125 C31.7952938,14.9927594 31.7873875,15.0639156 31.7892781,15.1450406 L31.788075,15.1446969 C31.7911688,15.2430094 31.7870438,15.3428687 31.7573094,15.356275 C31.6734344,15.3946031 31.6301219,15.2823687 31.606575,15.1598219 C31.5244188,15.1405719 31.4565281,15.0340094 31.4565281,15.0340094 C31.1536844,14.8308531 31.3802156,14.2664156 31.3802156,14.2664156 C31.58595,13.4494937 32.6060281,11.7261031 32.6060281,11.7261031 C32.725825,11.5332594 32.775325,11.5100562 32.7976688,11.5513062 M35.148575,13.1514625 C35.1231375,13.1921969 35.0989031,13.2382594 35.033075,13.280025 C35.033075,13.280025 34.6960281,13.4864469 34.7077156,13.1951187 C34.7077156,13.1951187 34.7190594,13.0335563 34.7744031,12.8831656 C34.7744031,12.8831656 34.9301219,12.4887125 35.170575,12.2585719 C35.1927469,12.2365719 35.2119969,12.2343375 35.2240281,12.2510094 C35.2577156,12.2967281 35.2635594,12.34915 35.288825,12.3921187 C35.2957,12.4034625 35.3029188,12.41515 35.3111688,12.4266656 C35.2822938,12.5743062 35.2082156,12.8549781 35.1956688,13.0670719 C35.1869031,13.0966344 35.1655906,13.1236187 35.148575,13.1514625 M36.0371688,12.9691031 C36.0371688,12.9691031 36.0357938,12.9593062 36.0268563,12.9515719 C36.0046844,12.936275 35.8953719,12.9859469 35.7872625,13.0510875 C35.7699031,13.0612281 35.7544344,13.0701656 35.7393094,13.0782437 C35.7001219,13.1028219 35.66145,13.1277438 35.6459813,13.1409781 C35.6459813,13.1409781 35.5760281,13.1964937 35.5837625,13.0715406 C35.5837625,13.0698219 35.5839344,13.0684469 35.5841063,13.0665562 L35.5839344,13.0665562 C35.5851375,13.0388844 35.5908094,13.00365 35.5925281,12.9656656 C35.5925281,12.9656656 35.6879188,12.5837594 35.7293406,12.4766812 C35.7293406,12.4766812 35.7520281,12.3759625 35.7877781,12.2613219 C35.7877781,12.2613219 35.9505438,12.0918531 35.6514813,12.0368531 C35.6514813,12.0368531 35.5081375,11.685025 35.3543094,12.2393219 L35.3543094,12.2389781 C35.3434813,12.1819156 35.2912313,12.0940875 35.2109656,12.0593687 C35.1946375,12.0502594 35.1714344,12.0435562 35.1401531,12.0406344 C35.1282938,12.0392594 35.1203875,12.0428687 35.0940906,12.0392594 C35.0940906,12.0392594 34.9502313,11.9897594 34.7969188,12.1819156 C34.6336375,12.3618687 34.1566844,12.933525 34.265825,13.4121969 C34.265825,13.4121969 34.3246063,13.6596969 34.5442625,13.6588397 C34.5442625,13.6588397 34.8357625,13.6617594 35.0561062,13.4531031 C35.0561062,13.4531031 35.1217625,13.3950094 35.1927469,13.3085562 C35.195325,13.3379469 35.1999656,13.3702594 35.2082156,13.4024 C35.2099344,13.4085875 35.2113094,13.4146031 35.2128563,13.4206187 C35.2128563,13.4206187 35.2211063,13.4759625 35.2664812,13.5182437 C35.3001688,13.5488375 35.3539656,13.5723844 35.4393875,13.5606969 C35.4481531,13.5589781 35.4572625,13.5569156 35.4663719,13.5538219 C35.4663719,13.5538219 35.7743719,13.4794 35.7671531,13.3484312 C35.7633719,13.2836344 35.7869188,13.2710875 35.7869188,13.2710875 C35.7869188,13.2710875 35.8061688,13.2599156 35.7994656,13.2374 C35.7994656,13.2374 36.0452469,13.0729156 36.0371688,12.9691031 M41.36495,11.9713687 C41.5022781,12.0676187 41.7325906,12.2798844 41.6946063,12.5016031 C41.6946063,12.5016031 41.6280906,13.0014156 40.8015438,12.9842281 C40.8015438,12.9842281 40.7116531,12.9795875 40.7097625,12.9235562 C40.7099344,12.8824781 40.7272938,12.8499937 40.7981063,12.8226656 C40.7981063,12.8226656 41.3357313,12.6492438 40.9832156,12.00265 C40.9832156,12.00265 40.8503563,12.105775 40.6642156,12.2506656 C40.6642156,12.2506656 40.5339344,12.3941812 40.5432156,12.1901656 C40.5432156,12.1901656 40.5545594,12.0774156 40.6030281,12.0339312 C40.6030281,12.0339312 40.9026063,11.8569 41.0024656,11.580525 C41.0519656,11.3979937 41.3192313,11.2438219 41.3450125,11.3973062 C41.3568719,11.4669156 41.2774656,11.5097125 41.2379344,11.5590406 C41.1487313,11.6711031 41.2635438,11.9072594 41.36495,11.9713687 M42.5636063,11.5975406 C42.7078094,11.4069312 42.8087,11.4928687 42.8087,11.4928687 C42.8222781,11.5006031 42.8511531,11.4914938 42.8633563,11.4904625 C43.0544813,11.476025 42.8973875,11.6642281 42.8973875,11.6642281 C42.7359969,11.8831969 42.590075,12.2931187 42.590075,12.2931187 C42.55295,12.3855875 42.5175438,12.5352906 42.5175438,12.5352906 C42.4591063,12.7838219 42.7210438,12.6078219 42.7210438,12.6078219 C42.7585125,12.5816969 42.7927156,12.5437125 42.8107625,12.5272125 C42.8406688,12.4988531 42.8666219,12.4954156 42.8666219,12.4954156 C42.9212781,12.4876812 42.8282938,12.2030562 42.8282938,12.2030562 C42.7884188,12.0903062 42.7956375,12.08515 42.7956375,12.08515 C42.7700281,11.9469625 42.8472,11.9117281 42.8472,11.9117281 C42.9288406,11.8617125 42.9948406,11.9923375 42.9948406,11.9923375 C43.0680594,12.1040562 43.1330281,12.3976187 43.1330281,12.3976187 C43.1954188,12.6576656 43.0005125,12.6370406 43.0005125,12.6370406 C42.9197313,12.6531969 42.7815438,12.7906969 42.7815438,12.7906969 C42.5660125,12.9689312 42.2662625,12.9862906 42.2662625,12.9862906 C41.9680594,12.996775 41.99195,12.7343219 41.99195,12.7343219 C41.9898875,12.4503844 42.5636063,11.5975406 42.5636063,11.5975406 M39.1314344,10.9272281 C39.1230125,11.0049156 39.0814188,11.0700563 39.0247,11.1040875 C38.9440906,11.165275 38.7770281,11.2694313 38.7230594,11.2553375 C38.6684031,11.2409 38.7299344,11.0686812 38.7328563,11.0200406 C38.7364656,10.9655562 38.7362938,10.9256813 38.7471219,10.87515 C38.7646531,10.7575875 38.8588406,10.6725094 38.9623094,10.6833375 C39.0688719,10.6946813 39.1448406,10.8038219 39.1314344,10.9272281 M39.85245,11.6941344 C39.85245,11.6941344 40.3392,12.2121656 40.3190906,12.5710406 C40.3190906,12.5710406 40.2529188,13.0706812 39.4258563,13.0536656 C39.4258563,13.0536656 39.2216688,13.0230719 39.4225906,12.892275 C39.4225906,12.892275 39.9600438,12.7179937 39.6080438,12.0720875 C39.6080438,12.0720875 39.2752938,12.4627594 39.0551219,12.6789781 L39.0566688,12.6806969 C38.4267469,13.2953219 38.3029969,13.0698219 38.3029969,13.0698219 C38.0630594,12.7265875 38.2388875,11.9754938 38.2388875,11.9754938 C38.3317,11.5782906 38.5372625,11.7188844 38.5372625,11.7188844 C38.8380438,11.7676969 38.7252938,12.0274 38.7252938,12.0274 C38.6869656,12.2269469 38.638325,12.2051188 38.638325,12.2051188 C38.5456844,12.2795406 38.5262625,12.6085094 38.5262625,12.6085094 C38.5635594,12.7898375 38.4021688,13.0419781 38.8684656,12.6370406 C38.9789813,12.5261812 39.537575,11.8976344 39.6266063,11.6499625 C39.6266063,11.6499625 39.7197625,11.4089937 39.85245,11.6941344 M36.7420281,12.9405719 C36.7420281,12.9405719 36.6799813,12.8996656 36.6839344,12.7143844 C36.6839344,12.7143844 36.7016375,12.391775 36.9202625,12.1337906 C36.9202625,12.1337906 36.9816219,12.0561031 37.0311219,12.0473375 C37.0476219,12.0439 37.07495,12.0679625 37.0869813,12.1664469 C37.0902469,12.1908531 37.0204656,12.1958375 37.046075,12.2728375 C37.046075,12.2728375 37.1622625,12.5676031 37.4075281,12.4347437 C37.3975594,12.4950719 37.3863875,12.5559156 37.3748719,12.617275 C37.246825,12.7943062 36.9781844,13.1014469 36.7420281,12.9405719 M37.7854813,10.1778531 C37.7854813,10.1778531 37.5168406,9.8390875 37.5623875,10.2295875 C37.5623875,10.2295875 37.598825,11.0446187 37.4644188,12.0583375 C37.4491219,12.01915 37.4281531,11.9787594 37.4001375,11.9392281 C37.4001375,11.9392281 37.1657,11.6267594 36.9032469,11.7132125 C36.9032469,11.7132125 36.5680906,11.8187437 36.3740438,12.3247437 C36.3740438,12.3247437 36.2368875,12.6743375 36.2755594,12.9374781 C36.2755594,12.9374781 36.2628406,13.6291031 37.1046844,13.1402906 C37.1046844,13.1402906 37.1937156,13.0863219 37.2982156,12.9801031 C37.2777625,13.0663844 37.2447625,13.1229312 37.2414969,13.2117906 C37.2414969,13.2117906 37.2117625,13.3944937 37.2952938,13.4403844 C37.3269188,13.4580875 37.3614656,13.4338531 37.4353719,13.2563062 C37.4353719,13.2563062 38.0338406,11.7209469 38.0658094,11.0870719 C38.0658094,11.0870719 38.2763562,10.7723687 37.7854813,10.1778531" id="Fill-4" fill="#FFFFFF"></path>
                    <path d="M43.4122906,13.4632266 C43.5772906,13.4733672 43.7627437,13.4756016 44.0200406,13.5005234 C44.1534156,13.5135859 44.3594937,13.5135859 44.3888844,13.6000391 C44.4156969,13.6797891 44.3149781,13.7612578 44.1353687,13.7961484 C44.044275,13.8140234 43.9870406,13.8284609 43.9048844,13.8255391 C43.807775,13.8224453 43.5998063,13.8298359 43.5941344,13.7179453 C43.5894938,13.6481641 43.4535406,13.6488516 43.3629625,13.6452422 C43.1812906,13.6378516 43.1998531,13.5868047 43.2397281,13.5244141 C43.2631031,13.4864297 43.312775,13.4621953 43.4122906,13.4632266" id="Fill-6" fill="#FFFFFF"></path>
                    <g id="Group-10" transform="translate(0.000000, 2.406250)">
                        <mask id="mask-2" fill="white">
                            <use xlink:href="#path-1"></use>
                        </mask>
                        <g id="Clip-9"></g>
                        <path d="M10.4767437,2.80144219 C9.36419688,3.02762969 7.80219688,3.00202031 7.0230875,3.80416094 C7.02325938,3.79127031 7.023775,3.77855156 7.023775,3.76566094 C7.023775,3.26773906 6.96138438,2.77548906 6.83230625,2.31933281 L8.8869,2.31933281 C8.99122812,1.74578594 9.38207187,1.47233281 9.9944625,1.47233281 C10.4504469,1.47233281 11.0628375,1.66792656 11.0628375,2.17616094 C11.0628375,2.59295781 10.8543531,2.72323906 10.4767437,2.80144219 L10.4767437,2.80144219 Z M9.68182187,5.82455156 C9.18665,5.82455156 8.75661875,5.60300469 8.75661875,5.05592656 C8.75661875,4.52139531 9.17341562,4.31291094 9.6685875,4.19586406 C10.1508687,4.06523906 10.7240719,4.02639531 11.0368844,3.83080156 C11.0891344,5.22505156 10.7373062,5.82455156 9.68182187,5.82455156 L9.68182187,5.82455156 Z M3.47936875,5.49850469 C2.4759625,5.49850469 2.13719688,4.72987969 2.13719688,3.54445781 C2.13719688,2.14986406 2.89275938,1.73289531 3.49225938,1.73289531 C4.46954063,1.73289531 4.80847813,2.68439531 4.80847813,3.54445781 C4.80847813,4.46914531 4.46954063,5.49850469 3.47936875,5.49850469 L3.47936875,5.49850469 Z M13.17415,2.30644219 C13.17415,0.391067188 11.6234937,0.0388953125 10.0207594,0.0388953125 C9.2519625,0.0388953125 8.46993125,0.169176563 7.870775,0.507942188 C7.28175938,0.853410937 6.87097813,1.41475469 6.81941563,2.27464531 C6.44730625,1.01050469 5.55011875,0.0388953125 4.00049375,0.0388953125 C3.21863438,0.0388953125 2.56705625,0.377489063 2.13719688,1.01617656 L2.11107188,1.01617656 L2.11107188,0.234317188 L-6.875e-05,0.234317188 L-6.875e-05,10.7766141 L2.21522813,10.7766141 L2.21522813,6.26764531 L2.24135313,6.26764531 C2.6973375,6.87986406 3.336025,7.19284844 4.1699625,7.19284844 C5.34318125,7.19284844 6.149275,6.56653594 6.5982125,5.67742656 C6.82663438,6.70627031 7.73465,7.19284844 8.84788437,7.19284844 C9.65569688,7.19284844 10.5026969,6.95841094 11.0760719,6.35856719 C11.102025,6.58045781 11.12815,6.78877031 11.206525,6.99725469 L13.4345406,6.99725469 C13.17415,6.46306719 13.17415,5.83778594 13.17415,5.26423906 L13.17415,2.30644219 Z" id="Fill-8" fill="#FFFFFF" mask="url(#mask-2)"></path>
                    </g>
                    <path d="M22.9469109,5.19476719 L25.4224266,2.64070469 L22.8556453,2.64070469 L20.8359422,4.89484531 L20.8359422,0.0995328125 L18.6206453,0.0995328125 L18.6206453,2.55511094 C18.4623484,2.52245469 18.2949422,2.51025156 18.1383641,2.51025156 C17.1872078,2.51025156 16.4316453,2.96640781 16.1057703,3.82647031 L16.0798172,3.82647031 L16.0798172,2.64070469 L13.9296609,2.64070469 L13.9296609,9.40347031 L16.1447859,9.40347031 L16.1447859,6.05465781 C16.1447859,5.20765781 16.7183328,4.45209531 17.8128328,4.45209531 C18.0984891,4.45209531 18.3492547,4.50004844 18.6206453,4.57257969 L18.6206453,9.40347031 L20.8359422,9.40347031 L20.8359422,7.24042344 L21.4091453,6.68028281 L23.0643016,9.40347031 L25.7354109,9.40347031 L22.9469109,5.19476719 Z" id="Fill-11" fill="#FFFFFF"></path>
                    <mask id="mask-4" fill="white">
                        <use xlink:href="#path-3"></use>
                    </mask>
                    <g id="Clip-14"></g>
                    <path d="M28.2268594,1.7936875 L30.4423281,1.7936875 L30.4423281,0.0996875 L28.2268594,0.0996875 L28.2268594,1.7936875 Z M28.2268594,9.403625 L30.4423281,9.403625 L30.4423281,2.6406875 L28.2268594,2.6406875 L28.2268594,9.403625 Z" id="Fill-13" fill="#FFFFFF" mask="url(#mask-4)"></path>
                    <path d="M31.1757531,2.64065312 L33.3257375,2.64065312 L33.3257375,3.56568438 L33.3515187,3.56568438 C33.7555969,2.87509063 34.6675656,2.44505937 35.4757219,2.44505937 C37.7300344,2.44505937 37.9123937,4.08698125 37.9123937,5.06443438 L37.9123937,9.40359062 L35.6970969,9.40359062 L35.6970969,6.1326375 C35.6970969,5.20777813 35.801425,4.26968437 34.5897062,4.26968437 C33.7555969,4.26968437 33.3905344,4.97316875 33.3905344,5.7160125 L33.3905344,9.40359062 L31.1757531,9.40359062 L31.1757531,2.64065312 Z" id="Fill-15" fill="#FFFFFF" mask="url(#mask-4)"></path>
                    <path d="M38.6511469,2.64065312 L40.801475,2.64065312 L40.801475,3.56568438 L40.8274281,3.56568438 C41.2313344,2.87509063 42.143475,2.44505937 42.9514594,2.44505937 C45.2057719,2.44505937 45.3881313,4.08698125 45.3881313,5.06443438 L45.3881313,9.40359062 L43.1730063,9.40359062 L43.1730063,6.1326375 C43.1730063,5.20777813 43.2773344,4.26968437 42.0654438,4.26968437 C41.2313344,4.26968437 40.8666156,4.97316875 40.8666156,5.7160125 L40.8666156,9.40359062 L38.6511469,9.40359062 L38.6511469,2.64065312 Z" id="Fill-16" fill="#FFFFFF" mask="url(#mask-4)"></path>
                    <polygon id="Fill-17" fill="#FFFFFF" mask="url(#mask-4)" points="2.805 13.1833281 5.04625 13.1833281 5.04625 10.9420781 2.805 10.9420781"></polygon>
                    <polygon id="Fill-18" fill="#FFFFFF" mask="url(#mask-4)" points="5.04625 13.1833281 7.2875 13.1833281 7.2875 10.9420781 5.04625 10.9420781"></polygon>
                    <polygon id="Fill-19" fill="#FFFFFF" mask="url(#mask-4)" points="7.2875 13.1833281 9.52875 13.1833281 9.52875 10.9420781 7.2875 10.9420781"></polygon>
                    <polygon id="Fill-20" fill="#FFFFFF" mask="url(#mask-4)" points="9.52857812 13.1833281 11.7698281 13.1833281 11.7698281 10.9420781 9.52857812 10.9420781"></polygon>
                    <polygon id="Fill-21" fill="#FFFFFF" mask="url(#mask-4)" points="11.7698281 13.1833281 14.0110781 13.1833281 14.0110781 10.9420781 11.7698281 10.9420781"></polygon>
                    <polygon id="Fill-22" fill="#FFFFFF" mask="url(#mask-4)" points="14.0109062 13.1833281 16.2521563 13.1833281 16.2521563 10.9420781 14.0109062 10.9420781"></polygon>
                    <polygon id="Fill-23" fill="#FFFFFF" mask="url(#mask-4)" points="16.2521562 13.1833281 18.4934062 13.1833281 18.4934062 10.9420781 16.2521562 10.9420781"></polygon>
                    <polygon id="Fill-24" fill="#FFFFFF" mask="url(#mask-4)" points="18.4932344 13.1833281 20.7344844 13.1833281 20.7344844 10.9420781 18.4932344 10.9420781"></polygon>
                    <polygon id="Fill-25" fill="#FFFFFF" mask="url(#mask-4)" points="20.7343125 13.1833281 22.9755625 13.1833281 22.9755625 10.9420781 20.7343125 10.9420781"></polygon>
                    <polygon id="Fill-26" fill="#FFFFFF" mask="url(#mask-4)" points="22.9755625 13.1833281 25.2168125 13.1833281 25.2168125 10.9420781 22.9755625 10.9420781"></polygon>
                    <path d="M28.4491006,12.3968969 C28.5130401,12.4164906 28.606543,12.4312719 28.6703106,12.4312719 C28.8669418,12.4312719 29.0070243,12.2813969 29.0070243,12.0723969 C29.0070243,11.8391625 28.8841298,11.6867094 28.699874,11.6867094 C28.6089493,11.6867094 28.5424316,11.7162719 28.4491006,11.7998031 L28.4491006,12.3968969 Z M28.4491006,11.590975 C28.5451817,11.5220531 28.6433254,11.4900844 28.7538445,11.4900844 C29.0291968,11.4900844 29.2306406,11.7236625 29.2306406,12.0406 C29.2306406,12.4142562 29.0094306,12.6376938 28.6407472,12.6376938 C28.4956802,12.6376938 28.3385815,12.6058969 28.2306406,12.5541625 L28.2306406,10.9395687 L28.4491006,10.9395687 L28.4491006,11.590975 Z" id="Fill-27" fill="#FFFFFF" mask="url(#mask-4)"></path>
                    <polygon id="Fill-28" fill="#FFFFFF" mask="url(#mask-4)" points="29.6288781 13.1809219 29.385675 13.1809219 29.7615656 12.3796406 29.3339406 11.5123594 29.5821281 11.5123594 29.8794719 12.1338594 30.1644406 11.5123594 30.4102219 11.5123594"></polygon>
                    <polygon id="Fill-29" fill="#FFFFFF" mask="url(#mask-4)" points="11.8242094 19.5696703 11.8242094 21.5311078 12.9936469 21.5311078 12.9936469 21.7786078 11.5303031 21.7786078 11.5303031 19.5696703"></polygon>
                    <polygon id="Fill-30" fill="#FFFFFF" mask="url(#mask-4)" points="13.2627344 21.778625 13.5566406 21.778625 13.5566406 19.5696875 13.2627344 19.5696875"></polygon>
                    <path d="M14.3702797,18.9107016 L14.8034047,19.4118891 L15.0014047,19.4118891 L14.7044047,18.9107016 L14.3702797,18.9107016 Z M15.5768422,19.5696703 L15.5768422,19.8171703 L14.3455297,19.8171703 L14.3455297,20.5194516 L15.4933109,20.5194516 L15.4933109,20.7669516 L14.3455297,20.7669516 L14.3455297,21.5311078 L15.5861234,21.5311078 L15.5861234,21.7786078 L14.0516234,21.7786078 L14.0516234,19.5696703 L15.5768422,19.5696703 Z" id="Fill-31" fill="#FFFFFF" mask="url(#mask-4)"></path>
                    <path d="M17.2722687,21.7523453 C17.1442219,21.8028766 17.0154875,21.8281422 16.88555,21.8281422 C16.72055,21.8281422 16.5730813,21.7977203 16.4431438,21.7368766 C16.3132063,21.6760328 16.2028625,21.5940484 16.1121125,21.4909234 C16.0213625,21.3877984 15.9522687,21.2692047 15.9048312,21.1351422 C15.8573937,21.0010797 15.833675,20.8618609 15.833675,20.7174859 C15.833675,20.5566109 15.8558469,20.4034703 15.9001906,20.2580641 C15.9445344,20.1126578 16.0105344,19.9852984 16.0981906,19.8759859 C16.1858469,19.7666734 16.2949875,19.6795328 16.4261281,19.6145641 C16.5570969,19.5495953 16.7100656,19.5171109 16.88555,19.5171109 C17.005175,19.5171109 17.1180969,19.5310328 17.2243156,19.5588766 C17.3305344,19.5867203 17.4254094,19.6305484 17.5089406,19.6903609 C17.5924719,19.7501734 17.6625969,19.8259703 17.7193156,19.9177516 C17.7760344,20.0095328 17.8147063,20.1203922 17.8353312,20.2503297 L17.541425,20.2503297 C17.5268156,20.1657672 17.500175,20.0930641 17.4609875,20.0322203 C17.4218,19.9713766 17.3731594,19.9213609 17.3155812,19.8821734 C17.2578312,19.8429859 17.1923469,19.8135953 17.1191281,19.7940016 C17.0459094,19.7744078 16.9678781,19.7646109 16.88555,19.7646109 C16.7514875,19.7646109 16.6365031,19.7914234 16.5405969,19.8450484 C16.4446906,19.8986734 16.3663156,19.9693141 16.3054719,20.0569703 C16.2446281,20.1446266 16.1997688,20.2446578 16.1708938,20.3570641 C16.1418469,20.4694703 16.1275813,20.5844547 16.1275813,20.7020172 C16.1275813,20.8175172 16.1440813,20.9283766 16.1770813,21.0345953 C16.2099094,21.1408141 16.25855,21.2346578 16.3224875,21.3161266 C16.386425,21.3975953 16.4653156,21.4625641 16.5591594,21.5110328 C16.6528312,21.5595016 16.7618,21.5837359 16.88555,21.5837359 C17.00105,21.5837359 17.1031438,21.5651734 17.1918312,21.5280484 C17.2803469,21.4909234 17.3551125,21.4398766 17.4161281,21.3749078 C17.4768,21.3099391 17.5228625,21.2336266 17.5538,21.1459703 C17.5847375,21.0583141 17.5981437,20.9639547 17.5940188,20.8628922 L16.8886437,20.8628922 L16.8886437,20.6153922 L17.8569875,20.6153922 L17.8569875,21.7786422 L17.6713625,21.7786422 L17.5940188,21.5032984 C17.5073937,21.6187984 17.4001437,21.7018141 17.2722687,21.7523453" id="Fill-32" fill="#FFFFFF" mask="url(#mask-4)"></path>
                    <polygon id="Fill-33" fill="#FFFFFF" mask="url(#mask-4)" points="19.8152281 19.5696703 19.8152281 19.8171703 18.5839156 19.8171703 18.5839156 20.5194516 19.7316969 20.5194516 19.7316969 20.7669516 18.5839156 20.7669516 18.5839156 21.5311078 19.8245094 21.5311078 19.8245094 21.7786078 18.2900094 21.7786078 18.2900094 19.5696703"></polygon>
                    <path d="M22.1695203,20.8659516 L21.8013641,19.8357328 L21.7951766,19.8357328 L21.4208328,20.8659516 L22.1695203,20.8659516 Z M21.9653328,19.5696703 L22.8284891,21.7786078 L22.5036453,21.7786078 L22.2623328,21.1134516 L21.3280203,21.1134516 L21.0805203,21.7786078 L20.7804266,21.7786078 L21.6404891,19.5696703 L21.9653328,19.5696703 Z" id="Fill-34" fill="#FFFFFF" mask="url(#mask-4)"></path>
                    <polygon id="Fill-35" fill="#FFFFFF" mask="url(#mask-4)" points="23.057375 21.778625 23.3512812 21.778625 23.3512812 19.5696875 23.057375 19.5696875"></polygon>
                    <path d="M24.947725,20.5720453 C25.0096,20.5617328 25.0637406,20.5416234 25.1101469,20.5117172 C25.1565531,20.4818109 25.1936781,20.4415922 25.2215219,20.3910609 C25.2493656,20.3405297 25.2632875,20.2750453 25.2632875,20.1946078 C25.2632875,20.0832328 25.23235,19.9924828 25.170475,19.9223578 C25.1086,19.8522328 25.0085688,19.8171703 24.8703813,19.8171703 L24.1402563,19.8171703 L24.1402563,20.5875141 L24.7528188,20.5875141 C24.8208813,20.5875141 24.88585,20.5823578 24.947725,20.5720453 L24.947725,20.5720453 Z M24.88585,19.5696703 C25.096225,19.5696703 25.2607094,19.6212328 25.3793031,19.7243578 C25.4978969,19.8274828 25.5571937,19.9687641 25.5571937,20.1482016 C25.5571937,20.2822641 25.5267719,20.3998266 25.4659281,20.5008891 C25.4050844,20.6019516 25.3076313,20.6710453 25.1735688,20.7081703 L25.1735688,20.7143578 C25.2375063,20.7267328 25.2895844,20.7473578 25.3298031,20.7762328 C25.3700219,20.8051078 25.4019906,20.8396547 25.4257094,20.8798734 C25.4492563,20.9200922 25.4669594,20.9649516 25.4783031,21.0144516 C25.4896469,21.0639516 25.4984125,21.1155141 25.5046,21.1691391 C25.508725,21.2227641 25.5118188,21.2774203 25.5138813,21.3331078 C25.5159438,21.3887953 25.5211,21.4434516 25.52935,21.4970766 C25.5376,21.5507016 25.5494594,21.6017484 25.5649281,21.6502172 C25.5803969,21.6986859 25.6036,21.7414828 25.6345375,21.7786078 L25.3066,21.7786078 C25.285975,21.7559203 25.2720531,21.7249828 25.2648344,21.6857953 C25.2576156,21.6466078 25.252975,21.6027797 25.2509125,21.5543109 C25.24885,21.5058422 25.2467875,21.4537641 25.244725,21.3980766 C25.2426625,21.3423891 25.236475,21.2877328 25.2261625,21.2341078 C25.2179125,21.1804828 25.2076,21.1294359 25.195225,21.0809672 C25.18285,21.0324984 25.1632562,20.9902172 25.1364438,20.9541234 C25.1096313,20.9180297 25.0745688,20.8891547 25.0312563,20.8674984 C24.9879438,20.8458422 24.9301938,20.8350141 24.8580063,20.8350141 L24.1402563,20.8350141 L24.1402563,21.7786078 L23.84635,21.7786078 L23.84635,19.5696703 L24.88585,19.5696703 Z" id="Fill-36" fill="#FFFFFF" mask="url(#mask-4)"></path>
                    <path d="M26.8349125,20.6277672 C27.001975,20.6298297 27.1241781,20.5957984 27.2015219,20.5256734 C27.2788656,20.4555484 27.3175375,20.3544859 27.3175375,20.2224859 C27.3175375,20.0904859 27.2788656,19.9899391 27.2015219,19.9208453 C27.1241781,19.8517516 27.001975,19.8172047 26.8349125,19.8172047 L26.259475,19.8172047 L26.259475,20.6277672 L26.8349125,20.6277672 Z M26.9339125,19.5697047 C27.1566625,19.5697047 27.3252719,19.6269391 27.4397406,19.7414078 C27.5542094,19.8558766 27.6114438,20.0162359 27.6114438,20.2224859 C27.6114438,20.4287359 27.5542094,20.5896109 27.4397406,20.7051109 C27.3252719,20.8206109 27.1566625,20.8773297 26.9339125,20.8752672 L26.259475,20.8752672 L26.259475,21.7786422 L25.9655688,21.7786422 L25.9655688,19.5697047 L26.9339125,19.5697047 Z" id="Fill-37" fill="#FFFFFF" mask="url(#mask-4)"></path>
                    <path d="M28.1837188,21.0036578 C28.2125937,21.1119391 28.2579687,21.2093922 28.3198438,21.2960172 C28.3817187,21.3826422 28.461125,21.4522516 28.5580625,21.5048453 C28.655,21.5574391 28.7705,21.5837359 28.9045625,21.5837359 C29.038625,21.5837359 29.154125,21.5574391 29.2510625,21.5048453 C29.348,21.4522516 29.4274062,21.3826422 29.4892813,21.2960172 C29.5511562,21.2093922 29.5965312,21.1119391 29.6254063,21.0036578 C29.6542813,20.8953766 29.6687187,20.7855484 29.6687187,20.6741734 C29.6687187,20.5627984 29.6542813,20.4529703 29.6254063,20.3446891 C29.5965312,20.2364078 29.5511562,20.1389547 29.4892813,20.0523297 C29.4274062,19.9657047 29.348,19.8960953 29.2510625,19.8435016 C29.154125,19.7909078 29.038625,19.7646109 28.9045625,19.7646109 C28.7705,19.7646109 28.655,19.7909078 28.5580625,19.8435016 C28.461125,19.8960953 28.3817187,19.9657047 28.3198438,20.0523297 C28.2579687,20.1389547 28.2125937,20.2364078 28.1837188,20.3446891 C28.1548437,20.4529703 28.1404062,20.5627984 28.1404062,20.6741734 C28.1404062,20.7855484 28.1548437,20.8953766 28.1837188,21.0036578 M27.9130156,20.2395016 C27.9573594,20.1002828 28.023875,19.9770484 28.1125625,19.8697984 C28.20125,19.7625484 28.3115938,19.6769547 28.4435938,19.6130172 C28.5755937,19.5490797 28.72925,19.5171109 28.9045625,19.5171109 C29.079875,19.5171109 29.2335313,19.5490797 29.3655313,19.6130172 C29.4975313,19.6769547 29.607875,19.7625484 29.6965625,19.8697984 C29.78525,19.9770484 29.8517656,20.1002828 29.8961094,20.2395016 C29.9404531,20.3787203 29.962625,20.5236109 29.962625,20.6741734 C29.962625,20.8247359 29.9404531,20.9696266 29.8961094,21.1088453 C29.8517656,21.2480641 29.78525,21.3712984 29.6965625,21.4785484 C29.607875,21.5857984 29.4975313,21.6708766 29.3655313,21.7337828 C29.2335313,21.7966891 29.079875,21.8281422 28.9045625,21.8281422 C28.72925,21.8281422 28.5755937,21.7966891 28.4435938,21.7337828 C28.3115938,21.6708766 28.20125,21.5857984 28.1125625,21.4785484 C28.023875,21.3712984 27.9573594,21.2480641 27.9130156,21.1088453 C27.8686719,20.9696266 27.8465,20.8247359 27.8465,20.6741734 C27.8465,20.5236109 27.8686719,20.3787203 27.9130156,20.2395016" id="Fill-38" fill="#FFFFFF" mask="url(#mask-4)"></path>
                    <path d="M31.4228234,20.5720453 C31.4846984,20.5617328 31.5388391,20.5416234 31.5852453,20.5117172 C31.6316516,20.4818109 31.6689484,20.4415922 31.6967922,20.3910609 C31.7244641,20.3405297 31.7383859,20.2750453 31.7383859,20.1946078 C31.7383859,20.0832328 31.7074484,19.9924828 31.6455734,19.9223578 C31.5838703,19.8522328 31.4836672,19.8171703 31.3454797,19.8171703 L30.6155266,19.8171703 L30.6155266,20.5875141 L31.2279172,20.5875141 C31.2961516,20.5875141 31.3611203,20.5823578 31.4228234,20.5720453 L31.4228234,20.5720453 Z M31.3611203,19.5696703 C31.5713234,19.5696703 31.7358078,19.6212328 31.8545734,19.7243578 C31.9729953,19.8274828 32.0322922,19.9687641 32.0322922,20.1482016 C32.0322922,20.2822641 32.0018703,20.3998266 31.9411984,20.5008891 C31.8801828,20.6019516 31.7827297,20.6710453 31.6486672,20.7081703 L31.6486672,20.7143578 C31.7127766,20.7267328 31.7646828,20.7473578 31.8050734,20.7762328 C31.8451203,20.8051078 31.8772609,20.8396547 31.9008078,20.8798734 C31.9245266,20.9200922 31.9420578,20.9649516 31.9534016,21.0144516 C31.9647453,21.0639516 31.9735109,21.1155141 31.9796984,21.1691391 C31.9839953,21.2227641 31.9869172,21.2774203 31.9889797,21.3331078 C31.9910422,21.3887953 31.9961984,21.4434516 32.0046203,21.4970766 C32.0126984,21.5507016 32.0245578,21.6017484 32.0400266,21.6502172 C32.0556672,21.6986859 32.0786984,21.7414828 32.1096359,21.7786078 L31.7816984,21.7786078 C31.7610734,21.7559203 31.7471516,21.7249828 31.7401047,21.6857953 C31.7327141,21.6466078 31.7280734,21.6027797 31.7261828,21.5543109 C31.7239484,21.5058422 31.7218859,21.4537641 31.7199953,21.3980766 C31.7177609,21.3423891 31.7117453,21.2877328 31.7012609,21.2341078 C31.6930109,21.1804828 31.6828703,21.1294359 31.6703234,21.0809672 C31.6579484,21.0324984 31.6383547,20.9902172 31.6117141,20.9541234 C31.5847297,20.9180297 31.5496672,20.8891547 31.5063547,20.8674984 C31.4630422,20.8458422 31.4052922,20.8350141 31.3332766,20.8350141 L30.6155266,20.8350141 L30.6155266,21.7786078 L30.3214484,21.7786078 L30.3214484,19.5696703 L31.3611203,19.5696703 Z" id="Fill-39" fill="#FFFFFF" mask="url(#mask-4)"></path>
                    <polygon id="Fill-40" fill="#FFFFFF" mask="url(#mask-4)" points="32.1499406 19.8171531 32.1499406 19.5696531 33.9164719 19.5696531 33.9164719 19.8171531 33.1801594 19.8171531 33.1801594 21.7785906 32.8862531 21.7785906 32.8862531 19.8171531"></polygon>
                </g>
            </g>
        </g>
    </g>
</svg>