<?xml version="1.0" encoding="utf-8"?>
<!-- Generator: Adobe Illustrator 23.0.2, SVG Export Plug-In . SVG Version: 6.00 Build 0)  -->
<svg xmlns="http://www.w3.org/2000/svg" xmlns:xlink="http://www.w3.org/1999/xlink" version="1.1" id="Layer_1" x="0px" y="0px" viewBox="0 0 1500 457" style="enable-background:new 0 0 1500 457;" xml:space="preserve">
<style type="text/css">
	.st0{fill:#FFFFFF;}
</style>
<title>stepArtboard 1</title>
<path class="st0" d="M1394.5,342.2c35.2-0.1,70.3-0.2,105.5-0.2v-17c-0.6-3.6-1.2-7.2-1.9-10.8c-9.4-50.1-49-70.8-92.2-63.6  c-42.9,7.2-68.9,39.4-67.7,82.9c0.9,32.2,14.7,57,45.5,70c19.1,8,39.1,8.8,59.3,4.8c15.9-3.2,29.9-10.1,40.8-22.5  c6.5-7.4,11.1-16.3,13.4-25.9h-46.5c-9.4,14.8-24.8,20.2-41.5,14.6c-12.9-4.4-21.8-18.3-20.6-32  C1390.5,341.8,1392.6,342.2,1394.5,342.2z M1420.3,283.2c15.7,0.1,27.3,12,29.4,30.5h-61.1C1391.1,295.4,1403.9,283.1,1420.3,283.2  L1420.3,283.2z"/>
<path class="st0" d="M832.8,260.1c0-1.9,0.5-4-0.6-5.9h-47.3v17.4c-7.1-9.5-14.8-16.2-25.2-19.5c-23.4-7.3-56.2-0.7-72.7,28.4  c-7.8,13.8-11.4,28.6-12.4,44.2c-1.4,23.2,2.6,45.1,17.1,64.1c21.6,28.1,68.7,29.3,88.9,3c0.4-0.5,0.7-1.2,1.8-0.8  c0,16.8,0,33.8,0,50.7c0,5.1,0.5,10.3-0.4,15.4h51c0-2-0.2-4-0.2-6C832.8,387.4,832.8,323.7,832.8,260.1z M781.1,351.6  c-4.5,13.6-15.3,21-28.5,20.5c-12.4-0.5-21.6-8.3-25.6-22.1c-1.8-6.2-2.6-12.7-2.5-19.2c0.1-10.2,1.7-20.2,6.9-29.2  c5.7-9.9,14.3-14.5,25.7-13.7c10.7,0.7,18.1,6.3,22.1,16C785.7,319,786.4,336,781.1,351.6z"/>
<path class="st0" d="M115.2,8c0,49.1,0,98.3,0,147.4c0,2.2-0.2,4.3-0.2,6.5L0,162v163c2,0,4,0.1,6,0.1h134.8  c0.1,2.2,0.2,4.3,0.2,6.5c0,30,0,60,0,90c0,1.9-0.6,4,0.6,5.6h113.1V309.1h-6.2l-90.4-0.1V206.1c2-0.1,4-0.2,6-0.2h148.1V1.8h-197  L115.2,8z"/>
<path class="st0" d="M1193,364.8c0-22.8,0.3-45.6-0.2-68.5c-0.5-21-11.3-34.8-31.2-41.7c-9.4-3.3-19.1-4.4-28.9-5  c-18.4-1-36.6,0-53.8,7.3c-18.4,7.8-30,25.3-28.9,43.8h46.3c1.2-4.8,2.8-9.1,6.2-12.5c8.8-9,31-8.4,39.4,1  c4.8,5.2,4.5,13.3-0.7,18.1c-1.3,1.2-2.8,2.1-4.5,2.7c-4.4,1.6-9,2.3-13.6,3c-15.3,2.4-30.7,3.6-45.6,8c-21.5,6.4-32,18.5-34.1,39.1  c-2,19.9,7,36.6,24.1,44.8c22.2,10.7,56.9,5.9,75.3-10.3c0.8-0.7,1.3-2.1,2.9-1.4c0.7,4.1,0.7,8.5,2.7,12.5h50.3  C1192.6,392.4,1193,378.6,1193,364.8z M1138.1,369.7c-2.9,4.4-7.1,6.9-12.1,8.3c-6,1.7-12.2,2-18.3,1c-7.6-1.2-12.7-6-13.8-12.5  c-1.5-8.5,1-14.7,8-18.8c6.6-3.9,14-5.1,21.3-6.6c6.8-1.5,13.8-2.3,21.4-5.7C1144.6,347.8,1144.9,359.4,1138.1,369.7L1138.1,369.7z"/>
<path class="st0" d="M801.5,211c22.9,9.1,45.6,7.3,67.1-5c3.5-2,6.6-4.8,10.1-7.4c0.6,4.8,0.8,9.2,3,13.3H932  c-4.7-9.8-5.7-20.1-5.8-30.4c-0.2-25.5-0.1-51-0.2-76.5c0-24.1-12.7-40.3-36.1-46c-20.9-5.1-42.7-5.4-63.8-0.8  c-13.7,3-26.2,8.9-34.7,20.8c-5.8,8-8.8,17.7-8.3,27.6h46.3c1.9-7.7,5.2-14,12.7-16.7c9.1-3.5,19.3-3,28.1,1.4c6,2.8,8.5,8,7.9,14.8  c-0.5,6.2-4.8,8.8-10,10.4c-2.2,0.6-4.5,1.2-6.8,1.5c-15.8,2.8-32,3.7-47.6,8c-20.6,5.7-36.7,16.4-37.2,42.9  C776.2,186.9,782.4,203.4,801.5,211z M834.8,153.6c5.8-3.5,12.4-4.8,18.8-6.2c7.9-1.8,16-2.7,24.2-6.1c0.2,10.6,0,20.3-3.9,29.6  c-2.7,6.8-8.6,11.8-15.8,13.2c-6.5,1.7-13.3,1.7-19.7,0c-6.4-1.7-10.5-5.8-11.4-12.4C825.9,164.2,827.8,157.8,834.8,153.6  L834.8,153.6z"/>
<path class="st0" d="M1060,115.6c0.2,2.7,0.3,5.3,0.3,8c0,27.5,0,55,0,82.5c0,1.9-0.7,4,0.9,5.8h49c0.2-0.4,0.4-0.9,0.5-1.4  c-0.3-37.1,1.7-74.3-1.1-111.4c-1.2-16.7-8.6-31-25-38.1c-19.7-8.5-39.4-8.1-58.6,2.3c-7,3.8-12.6,9.3-18,15.9  c-1-6.8,0.7-13.1-1.6-19.8c-15.7,0.1-31.4-0.4-47.2,0.4v151.9h49.7v-6.4c0-26.3-0.1-52.6,0.2-79c0.2-19.7,12.8-30.9,32-29.2  C1051.6,97.9,1058.9,105.1,1060,115.6z"/>
<path class="st0" d="M968,259.3c0,25.8,0,51.7,0,77.5c0,4.5-0.6,9-2,13.3c-4.4,13.8-16.5,21-31.2,18.8  c-12.3-1.9-18.2-10.1-18.3-25.6v-3c0-27,0-54,0-81c0-1.7,0.6-3.6-0.7-5.1h-49.7v5.8c0,27.8,0,55.7,0,83.5  c-0.1,8.3,0.5,16.6,1.9,24.9c2.6,14.2,7.9,27.1,21.2,34.5c15.2,8.5,31.6,9.8,48.3,5.4c12.8-3.3,23-10.7,31.6-22.4v19.9h48.6V254.2  H968V259.3z"/>
<path class="st0" d="M637,206.4c18.2,9.7,37.8,11.4,57.7,9.2c19-2.1,36.1-9,49.1-23.9c6.5-7.3,11-16.1,13.3-25.5h-46.6  c-8.5,16.4-26.9,18.8-41.3,14.1c-13.2-4.3-22.3-19.2-20.4-32.4h111c0.7-9.6,0-19.2-1.8-28.6c-4-20.9-13.5-38.7-31.3-50.9  c-16.9-11.6-36-14.8-56.1-12.6c-25.9,2.9-46.3,14.9-60.5,36.7c-11.4,17.5-14.1,37-11.1,57.4C602.6,174.9,614.4,194.3,637,206.4z   M680.3,89.2c15.8,0.2,28,12.7,29.3,30.5h-61C650.5,101.8,663.8,89,680.3,89.2z"/>
<path class="st0" d="M622.6,316.1c-8.4-2.1-17-3.4-25.4-5.1c-9.8-2-19.6-3.7-28.4-8.8c-4.1-2.4-7-5.7-6.1-10.9  c0.9-5.1,4.8-6.8,9.1-8.2c1.1-0.3,2.3-0.6,3.4-0.8c17.4-3.2,27.1,1.9,31.5,16.5h45.1c0.7-18-9.7-34.3-26.6-41.6  c-19.5-8.4-40-9.3-60.7-6.6c-14,1.8-27.2,6-38.5,15c-19.4,15.4-19,53,5.4,65.7c7.9,4,16.2,6.9,24.8,8.8c13.6,3.2,27.4,5.3,40.6,9.8  c5.5,1.9,10.3,5,10.4,11.9c0.1,7.1-4.1,10.9-10,13.5c-18.3,8.1-35.1,0.2-40.4-19.2h-46.6c-1.5,18.8,10.1,37.4,28.8,45.9  c19.7,9,40.6,9.9,61.7,7.5c13.7-1.6,26.7-5.5,37.9-14c15.5-11.8,21.6-28,17.9-46.7C653,330.6,640.1,320.5,622.6,316.1z"/>
<path class="st0" d="M569.8,2.5C553.2,2.2,537,2,520.5,2.7v209h49.3V2.5z"/>
<path class="st0" d="M1299.7,255.2c-11,4.7-18.4,13.1-23.8,23.7v-24.8h-48.6v151.5h50.1v-5.8c0-22.7,0-45.3,0-68  c0-22.4,14.4-36.8,36.8-37.1c6.6-0.1,13,1.3,19.7,2.5V252C1321.9,249.9,1310.6,250.5,1299.7,255.2z"/>
<path class="st0" d="M421.4,0.7v411.1c1.5,1,2.7,0.8,4.5,0.4V0.3C424.1,0.1,422.7-0.4,421.4,0.7z"/>
</svg>
