<?xml version="1.0" encoding="UTF-8"?>
<svg width="100px" height="50px" viewBox="0 0 100 50" version="1.1" xmlns="http://www.w3.org/2000/svg" xmlns:xlink="http://www.w3.org/1999/xlink">
    <!-- Generator: Sketch 57.1 (83088) - https://sketch.com -->
    <title>partners logos</title>
    <desc>Created with Sketch.</desc>
    <defs>
        <polygon id="path-1" points="10.7915863 10.5756287 10.7915863 0.0248146389 0.179621994 0.0248146389 0.179621994 10.5756287 10.7915863 10.5756287"></polygon>
        <polygon id="path-3" points="0 24.998204 59.5743979 24.998204 59.5743979 0.337540711 0 0.337540711"></polygon>
    </defs>
    <g id="partners-logos" stroke="none" stroke-width="1" fill="none" fill-rule="evenodd">
        <g id="LGG" transform="translate(20.000000, 11.000000)">
            <g id="Page-1">
                <path d="M48.9626177,3.70718465 L48.9626177,0.624487346 C43.101777,0.624487346 38.3500551,5.34851391 38.3500551,11.175759 L41.4509851,11.175759 C41.4509851,7.0511585 44.8137776,3.70718465 48.9626177,3.70718465 Z" id="Fill-1" fill="#FFFFFF"></path>
                <g id="Group-5" transform="translate(48.782812, 11.151036)">
                    <mask id="mask-2" fill="white">
                        <use xlink:href="#path-1"></use>
                    </mask>
                    <g id="Clip-4"></g>
                    <path d="M0.179621994,7.4929314 C4.32800184,7.4929314 7.69125455,4.14895755 7.69125455,0.0248146389 L10.7917244,0.0248146389 C10.7917244,5.85205972 6.04092283,10.5756287 0.179621994,10.5756287 L0.179621994,7.4929314 Z" id="Fill-3" fill="#FFFFFF" mask="url(#mask-2)"></path>
                </g>
                <path d="M43.7435471,13.6623705 C43.7435471,13.6623705 42.693336,13.7548011 42.693336,13.140275 C42.693336,12.526664 43.9598483,11.9432532 45.8430489,11.9432532 C46.4058921,11.9432532 47.0000299,12.0613081 47.6254624,12.2255783 C46.5310706,13.0066625 45.2484509,13.5383671 43.7435471,13.6623705 M53.5014901,12.526664 C52.1019757,12.526664 50.8842462,12.2113934 49.7433727,11.8563135 C51.8088186,9.69929478 53.5626987,6.09404437 53.5944536,0.337723742 C53.5944536,0.337723742 52.6220188,7.67680375 48.5417509,11.4719487 C47.5131699,11.1452386 46.5181846,10.8684044 45.4725757,10.8684044 C42.9096372,10.8684044 41.5506217,12.2502874 41.5506217,13.2327056 C41.5506217,14.2151237 43.2805706,14.6754464 44.1457752,14.6754464 C45.2815863,14.6754464 47.1634063,14.121778 48.9499617,12.6044521 C50.0641427,12.9307047 51.2699066,13.2551269 52.5750769,13.2551269 C55.1996842,13.2551269 55.5397832,12.1271992 55.5397832,12.1271992 C55.5397832,12.1271992 54.6750389,12.526664 53.5014901,12.526664" id="Fill-6" fill="#FFFFFF"></path>
                <polygon id="Fill-8" fill="#FFFFFF" points="6.79033726 16.2068656 6.79033726 17.4592543 0.731604109 17.4592543 0.731604109 11.1414865 2.95490376 11.1414865 2.95490376 16.2068656"></polygon>
                <mask id="mask-4" fill="white">
                    <use xlink:href="#path-3"></use>
                </mask>
                <g id="Clip-11"></g>
                <polygon id="Fill-10" fill="#FFFFFF" mask="url(#mask-4)" points="7.15220448 17.4596203 9.37550413 17.4596203 9.37550413 11.1413949 7.15220448 11.1413949"></polygon>
                <polygon id="Fill-12" fill="#FFFFFF" mask="url(#mask-4)" points="12.0558435 12.3661002 12.0558435 13.6464011 15.6694533 13.6464011 15.6694533 14.8342714 12.0558435 14.8342714 12.0558435 16.2344575 16.641888 16.2344575 16.641888 17.4593915 9.83300406 17.4593915 9.83300406 11.1411662 16.641888 11.1411662 16.641888 12.3661002"></polygon>
                <path d="M20.7928911,15.2580793 L20.7928911,14.0793606 L24.7116235,14.0793606 L24.7116235,17.459483 L23.6973092,17.459483 L23.3779199,16.7319354 C22.6687282,17.3029917 21.8905043,17.5514561 20.7790846,17.5514561 C17.9855783,17.5514561 16.832279,16.0135392 16.832279,14.3557372 C16.832279,12.6425683 18.0964902,11.0488271 20.9732954,11.0488271 C23.0299972,11.0488271 24.4198471,11.8779569 24.7116235,13.2136246 L22.599696,13.4067222 C22.5021303,12.7711475 21.98807,12.237155 20.9180696,12.237155 C19.3478153,12.237155 19.1112647,13.5911258 19.1112647,14.3740403 C19.1112647,15.193561 19.4587272,16.3539766 21.0147148,16.3539766 C21.98807,16.3539766 22.6549218,15.9028056 22.599696,15.2580793 L20.7928911,15.2580793 Z" id="Fill-13" fill="#FFFFFF" mask="url(#mask-4)"></path>
                <polygon id="Fill-14" fill="#FFFFFF" mask="url(#mask-4)" points="27.8907441 12.3661002 27.8907441 13.6464011 31.5038937 13.6464011 31.5038937 14.8342714 27.8907441 14.8342714 27.8907441 16.2344575 32.4763284 16.2344575 32.4763284 17.4593915 25.6674445 17.4593915 25.6674445 11.1411662 32.4763284 11.1411662 32.4763284 12.3661002"></polygon>
                <path d="M7.73207563,24.9098458 L5.57826848,24.9098458 L5.05546401,23.6629481 L2.2914115,23.6629481 L1.755721,24.9098458 L0,24.9098458 L2.73920089,18.8437455 L5.05546401,18.8437455 L7.73207563,24.9098458 Z M4.59478859,22.5487477 L3.68586357,20.4173533 L2.77647832,22.5487477 L4.59478859,22.5487477 Z" id="Fill-15" fill="#FFFFFF" mask="url(#mask-4)"></path>
                <polygon id="Fill-16" fill="#FFFFFF" mask="url(#mask-4)" points="8.09518543 24.9098916 10.0869968 24.9098916 10.0869968 18.8437912 8.09518543 18.8437912"></polygon>
                <path d="M12.9328756,24.9098458 L10.940604,24.9098458 L10.940604,18.8437455 L14.5390267,18.8437455 C15.2983818,18.8437455 16.0701626,18.8524394 16.729651,19.15261 C17.4277975,19.4802353 17.8129976,20.0723401 17.8129976,20.6649025 C17.8129976,21.3549289 17.2533759,21.9914187 16.3315649,22.230274 L17.9128643,24.9098458 L15.6964679,24.9098458 L14.3894567,22.5135142 L12.9328756,22.5135142 L12.9328756,24.9098458 Z M12.9328756,21.4697808 L14.0281878,21.4697808 C14.43916,21.4697808 14.8874096,21.4963202 15.2486785,21.3457773 C15.5722098,21.204386 15.7466314,20.9216033 15.7466314,20.6562086 C15.7466314,20.4173533 15.5473582,20.1611101 15.2606441,20.0371067 C14.924687,19.8870214 14.3521793,19.9222548 13.9784845,19.9222548 L12.9328756,19.9222548 L12.9328756,21.4697808 Z" id="Fill-17" fill="#FFFFFF" mask="url(#mask-4)"></path>
                <path d="M20.3645228,24.9098458 L18.3727114,24.9098458 L18.3727114,18.8437455 L21.5850135,18.8437455 C22.4193836,18.8437455 23.1787387,18.8437455 23.8883906,19.1883011 C24.6104682,19.5511597 24.9965888,20.0723401 24.9965888,20.7005936 C24.9965888,21.2753105 24.7098747,21.8591789 24.0752379,22.238968 C23.3407345,22.6722935 22.5556073,22.6640571 21.6471425,22.6640571 L20.3645228,22.6640571 L20.3645228,24.9098458 Z M21.4851468,21.5580931 C21.9587082,21.5580931 22.3567944,21.5580931 22.7056375,21.293156 C22.8924849,21.1426131 22.9790053,20.9481428 22.9790053,20.7536725 C22.9790053,20.5148172 22.8423214,20.267268 22.5684934,20.1167251 C22.2573879,19.9487943 21.8464157,19.9487943 21.4731812,19.9487943 L20.3645228,19.9487943 L20.3645228,21.5580931 L21.4851468,21.5580931 Z" id="Fill-18" fill="#FFFFFF" mask="url(#mask-4)"></path>
                <path d="M26.1981186,24.0432404 C25.5749872,23.4154446 25.3016194,22.6284119 25.3016194,21.8679186 C25.3016194,20.2586198 26.4346692,18.7550212 28.9617109,18.7550212 C30.0943005,18.7550212 30.99126,19.020416 31.6760602,19.6834453 C32.2863056,20.2760077 32.597411,21.1339649 32.597411,21.8679186 C32.597411,22.5574874 32.3360088,23.3975991 31.7883527,23.972316 C31.1284041,24.6623423 30.1200726,24.998204 28.9617109,24.998204 C27.8042697,24.998204 26.870493,24.7154213 26.1981186,24.0432404 M27.6671256,20.6031754 C27.4673922,20.9655765 27.3932975,21.487672 27.3932975,21.8679186 C27.3932975,22.6284119 27.5548331,23.8396186 28.9617109,23.8396186 C29.6465112,23.8396186 30.0202059,23.6012209 30.2438705,23.1500498 C30.4431437,22.7784972 30.5057329,22.2747047 30.5057329,21.8766126 C30.5057329,21.4341355 30.4431437,20.9129551 30.1941672,20.5057114 C29.945651,20.0989254 29.5843821,19.9136066 28.9617109,19.9136066 C28.2773709,19.9136066 27.9036762,20.1611558 27.6671256,20.6031754" id="Fill-19" fill="#FFFFFF" mask="url(#mask-4)"></path>
                <path d="M35.5474825,24.9098458 L33.5556711,24.9098458 L33.5556711,18.8437455 L37.1536336,18.8437455 C37.9129887,18.8437455 38.6847696,18.8524394 39.3447182,19.15261 C40.0419442,19.4802353 40.4280648,20.0723401 40.4280648,20.6649025 C40.4280648,21.3549289 39.8675227,21.9914187 38.9461718,22.230274 L40.5279315,24.9098458 L38.3110748,24.9098458 L37.0045239,22.5135142 L35.5474825,22.5135142 L35.5474825,24.9098458 Z M35.5474825,21.4697808 L36.6427947,21.4697808 C37.0542271,21.4697808 37.5020165,21.4963202 37.8628252,21.3457773 C38.1872769,21.204386 38.3612383,20.9216033 38.3612383,20.6562086 C38.3612383,20.4173533 38.1624253,20.1611101 37.8757113,20.0371067 C37.5397542,19.8870214 36.9672464,19.9222548 36.5935517,19.9222548 L35.5474825,19.9222548 L35.5474825,21.4697808 Z" id="Fill-20" fill="#FFFFFF" mask="url(#mask-4)"></path>
                <polygon id="Fill-21" fill="#FFFFFF" mask="url(#mask-4)" points="46.8003425 20.0460752 44.6589612 20.0460752 44.6589612 24.9101204 42.6666896 24.9101204 42.6666896 20.0460752 40.5004566 20.0460752 40.5004566 18.8435624 46.8003425 18.8435624"></polygon>
            </g>
        </g>
    </g>
</svg>